<?xml version="1.0" encoding="utf-8"?>
<!-- Generator: Adobe Illustrator 19.0.0, SVG Export Plug-In . SVG Version: 6.00 Build 0)  -->
<svg version="1.1" id="Layer_1" xmlns="http://www.w3.org/2000/svg" xmlns:xlink="http://www.w3.org/1999/xlink" x="0px" y="0px"
	 viewBox="0 0 52.5 46.1" style="enable-background:new 0 0 52.5 46.1;" xml:space="preserve">
<style type="text/css">
	.st0{fill:#302E2E;}
</style>
<g id="XMLID_16_">
	<path id="XMLID_95_" class="st0" d="M26.3,44.3C22,44.4,17.9,43.6,14,42l-0.8,1.6c4.1,1.7,8.6,2.5,13.1,2.4c2.2,0,4.3-0.2,6.5-0.5
		l-0.3-1.8C30.4,44.1,28.3,44.3,26.3,44.3z"/>
	<path id="XMLID_84_" class="st0" d="M10.7,39.7l-1.4,1.1c0.6,0.7,1.3,1.3,2,1.8l1-1.5C11.7,40.7,11.1,40.2,10.7,39.7z"/>
	<path id="XMLID_19_" class="st0" d="M52,13.6L26.7,0.9c-0.3-0.1-0.6-0.1-0.8,0L0.5,13.6c-0.4,0.2-0.6,0.8-0.4,1.2
		c0.1,0.2,0.2,0.3,0.4,0.4l9.5,4.7v14.4c0,4.6,7.2,8.1,16.3,8.1s16.3-3.6,16.3-8.1V19.9l4.5-2.3V30c-1.4,0.5-2.2,2-1.7,3.4
		c0.1,0.4,0.4,0.7,0.6,1l-1.6,4.1c-0.2,0.5,0,1,0.5,1.2c0.1,0,0.2,0.1,0.3,0.1h5.4c0.5,0,0.9-0.4,0.9-0.9c0-0.1,0-0.2-0.1-0.3
		l-1.6-4.1c1.1-1.1,1.1-2.8,0-3.8c-0.3-0.3-0.6-0.5-1-0.6V16.8l3.1-1.6c0.4-0.2,0.6-0.8,0.4-1.2C52.3,13.8,52.2,13.7,52,13.6
		L52,13.6z M40.7,34.3c0,3.1-5.8,6.3-14.5,6.3s-14.5-3.3-14.5-6.3v-0.7c2.7,2.6,8.1,4.4,14.5,4.4s11.8-1.8,14.5-4.4V34.3z
		 M40.7,29.8c0,3.1-5.8,6.3-14.5,6.3s-14.5-3.3-14.5-6.3v-8.9l14.1,7c0.3,0.1,0.6,0.1,0.8,0l14.1-7V29.8z M48,31.6
		c0.5,0,0.9,0.4,0.9,0.9s-0.4,0.9-0.9,0.9s-0.9-0.4-0.9-0.9S47.5,31.6,48,31.6z M49.4,37.9h-2.8l1.1-2.7c0.1,0,0.2,0,0.3,0
		s0.2,0,0.3,0L49.4,37.9z M47.8,15.3l-17.3-1.7c-0.6-1.1-2.2-1.9-4.3-1.9c-2.6,0-4.5,1.2-4.5,2.7s1.9,2.7,4.5,2.7
		c2,0,3.6-0.7,4.2-1.7l14.3,1.4l-18.5,9.3L2.9,14.4L26.3,2.7l23.3,11.7L47.8,15.3z M29,14.4c0,0.2-1,0.9-2.7,0.9s-2.7-0.7-2.7-0.9
		c0-0.2,1-0.9,2.7-0.9S29,14.2,29,14.4z"/>
	
		<rect id="XMLID_18_" x="47.1" y="7.9" transform="matrix(-0.4472 0.8944 -0.8944 -0.4472 77.4564 -29.9615)" class="st0" width="1.8" height="2"/>
	
		<rect id="XMLID_17_" x="37.6" y="-3.4" transform="matrix(-0.4472 0.8944 -0.8944 -0.4472 59.45 -28.3325)" class="st0" width="1.8" height="15.2"/>
</g>
</svg>
