<?xml version="1.0" encoding="iso-8859-1"?>
<!-- Generator: Adobe Illustrator 19.0.0, SVG Export Plug-In . SVG Version: 6.00 Build 0)  -->
<svg version="1.1" id="Layer_1" xmlns="http://www.w3.org/2000/svg" xmlns:xlink="http://www.w3.org/1999/xlink" x="0px" y="0px"
	 viewBox="-49 141 512 512" style="enable-background:new -49 141 512 512;" xml:space="preserve">
<g>
	<path style="fill:#FFFFFF;" d="M329.423,181.215C325.295,161.136,307.539,146,286.249,146c-4.855,0-8.762,3.952-8.762,8.818
		c0,4.855,3.908,8.818,8.762,8.818c14.586,0,26.453,11.823,26.453,26.398c0,14.575-11.867,26.398-26.453,26.398
		c-4.855,0-8.762,3.963-8.762,8.818c0,4.866,3.908,8.818,8.762,8.818c21.29,0,39.046-15.137,43.174-35.216h115.378v79.249H-30.746
		v-79.249h149.68c4.865,0,8.817-3.963,8.817-8.818c0-4.855-3.952-8.818-8.817-8.818h-15.995c3.654-10.227,13.331-17.58,24.812-17.58
		c14.575,0,26.398,11.823,26.398,26.398c0,14.575-11.823,26.398-26.398,26.398c-4.855,0-8.817,3.963-8.817,8.818
		c0,4.866,3.962,8.818,8.817,8.818c24.296,0,44.034-19.738,44.034-44.033S152.047,146,127.751,146
		c-21.246,0-39.046,15.136-43.13,35.215H-48.381V648h510.763V181.215H329.423z M444.801,630.365H-30.746v-334.63h475.547V630.365z
		 M444.801,630.365"/>
	<path style="fill:#FFFFFF;" d="M180.602,163.635c14.575,0,26.398,11.823,26.398,26.398c0,14.575-11.823,26.398-26.398,26.398
		c-4.866,0-8.817,3.963-8.817,8.818c0,4.866,3.952,8.818,8.817,8.818c24.252,0,44.034-19.738,44.034-44.033S204.853,146,180.602,146
		c-4.866,0-8.817,3.952-8.817,8.818C171.785,159.672,175.736,163.635,180.602,163.635L180.602,163.635z M180.602,163.635"/>
	<path style="fill:#FFFFFF;" d="M233.453,163.635c14.531,0,26.398,11.823,26.398,26.398c0,14.575-11.867,26.398-26.398,26.398
		c-4.866,0-8.818,3.963-8.818,8.818c0,4.866,3.952,8.818,8.818,8.818c24.251,0,44.033-19.738,44.033-44.033S257.704,146,233.453,146
		c-4.866,0-8.818,3.952-8.818,8.818C224.635,159.672,228.587,163.635,233.453,163.635L233.453,163.635z M233.453,163.635"/>
	<path style="fill:#FFFFFF;" d="M30.868,366.166h193.768c4.855,0,8.818-3.952,8.818-8.818c0-4.855-3.963-8.818-8.818-8.818H30.868
		c-4.855,0-8.818,3.963-8.818,8.818C22.05,362.214,26.013,366.166,30.868,366.166L30.868,366.166z M30.868,366.166"/>
	<path style="fill:#FFFFFF;" d="M383.133,489.448h-132.1c-4.854,0-8.817,3.963-8.817,8.818c0,4.854,3.963,8.818,8.817,8.818h132.1
		c4.866,0,8.818-3.963,8.818-8.818C391.95,493.411,387.998,489.448,383.133,489.448L383.133,489.448z M383.133,489.448"/>
	<path style="fill:#FFFFFF;" d="M30.868,436.597h88.066c4.865,0,8.817-3.908,8.817-8.763c0-4.91-3.952-8.818-8.817-8.818H30.868
		c-4.855,0-8.818,3.908-8.818,8.818C22.05,432.689,26.013,436.597,30.868,436.597L30.868,436.597z M30.868,436.597"/>
	<path style="fill:#FFFFFF;" d="M383.133,559.934h-88.066c-4.855,0-8.818,3.908-8.818,8.763c0,4.91,3.963,8.818,8.818,8.818h88.066
		c4.866,0,8.818-3.908,8.818-8.818C391.95,563.842,387.998,559.934,383.133,559.934L383.133,559.934z M383.133,559.934"/>
	<path style="fill:#FFFFFF;" d="M198.182,427.834c0,4.854,3.963,8.763,8.818,8.763h132.1c4.866,0,8.818-3.908,8.818-8.763
		c0-4.91-3.952-8.818-8.818-8.818H207C202.145,419.017,198.182,422.924,198.182,427.834L198.182,427.834z M198.182,427.834"/>
	<path style="fill:#FFFFFF;" d="M169.253,434.065c1.541-1.673,2.532-3.952,2.532-6.231c0-2.323-0.991-4.601-2.532-6.286
		c-3.269-3.269-9.247-3.269-12.517,0c-1.596,1.684-2.587,3.963-2.587,6.286c0,2.279,0.991,4.557,2.587,6.231
		c1.674,1.673,3.952,2.532,6.231,2.532C165.245,436.597,167.568,435.738,169.253,434.065L169.253,434.065z M169.253,434.065"/>
	<path style="fill:#FFFFFF;" d="M66.083,498.265c0,4.854,3.963,8.818,8.818,8.818H207c4.866,0,8.818-3.963,8.818-8.818
		c0-4.855-3.952-8.818-8.818-8.818H74.9C70.046,489.448,66.083,493.411,66.083,498.265L66.083,498.265z M66.083,498.265"/>
	<path style="fill:#FFFFFF;" d="M30.868,507.083c2.278,0,4.601-0.991,6.286-2.587c1.541-1.673,2.532-3.952,2.532-6.23
		c0-2.279-0.991-4.601-2.532-6.154c-3.27-3.346-9.247-3.346-12.517-0.077c-1.596,1.629-2.587,3.952-2.587,6.231
		c0,2.278,0.991,4.557,2.587,6.23C26.31,506.092,28.5,507.083,30.868,507.083L30.868,507.083z M30.868,507.083"/>
	<path style="fill:#FFFFFF;" d="M383.133,436.597c2.279,0,4.601-0.859,6.286-2.532c1.673-1.673,2.532-3.952,2.532-6.231
		c0-2.323-0.858-4.601-2.532-6.286c-3.357-3.269-9.247-3.269-12.516,0c-1.596,1.684-2.587,3.963-2.587,6.286
		c0,2.279,0.991,4.557,2.587,6.231C378.575,435.738,380.854,436.597,383.133,436.597L383.133,436.597z M383.133,436.597"/>
	<path style="fill:#FFFFFF;" d="M251.033,559.934H30.868c-4.855,0-8.818,3.908-8.818,8.763c0,4.91,3.963,8.818,8.818,8.818h220.165
		c4.866,0,8.818-3.908,8.818-8.818C259.851,563.842,255.899,559.934,251.033,559.934L251.033,559.934z M251.033,559.934"/>
</g>
</svg>
