<?xml version="1.0" encoding="utf-8"?>
<!-- Generator: Adobe Illustrator 19.0.0, SVG Export Plug-In . SVG Version: 6.00 Build 0)  -->
<svg version="1.1" id="Layer_1" xmlns="http://www.w3.org/2000/svg" xmlns:xlink="http://www.w3.org/1999/xlink" x="0px" y="0px"
	 viewBox="0 0 16.5 16.5" style="enable-background:new 0 0 16.5 16.5;" xml:space="preserve">
<style type="text/css">
	.st0{fill:#302E2E;}
	.st1{fill:#F26D24;}
</style>
<g id="XMLID_19_">
	<path id="XMLID_83_" class="st0" d="M8.3,16.5c-2.2,0-4.3-0.9-5.8-2.4C0.9,12.5,0,10.5,0,8.3S0.9,4,2.4,2.4C4,0.9,6.1,0,8.3,0
		s4.3,0.9,5.8,2.4c1.6,1.6,2.4,3.6,2.4,5.8s-0.9,4.3-2.4,5.8C12.5,15.7,10.5,16.5,8.3,16.5z M8.3,0.7c-4.2,0-7.6,3.4-7.6,7.6
		s3.4,7.6,7.6,7.6s7.6-3.4,7.6-7.6S12.4,0.7,8.3,0.7z"/>
	<path id="XMLID_27_" class="st1" d="M6.5,12.3c-0.3,0-0.6-0.1-0.8-0.3L3.3,9.6C2.8,9.1,2.8,8.4,3.3,8s1.2-0.4,1.6,0l1.6,1.6
		l4.8-4.8c0.4-0.4,1.2-0.4,1.6,0c0.4,0.4,0.4,1.2,0,1.6L7.3,12C7.1,12.2,6.8,12.3,6.5,12.3z M4.1,8.3c-0.1,0-0.3,0-0.3,0.1
		c-0.2,0.2-0.2,0.5,0,0.7l2.4,2.4c0.1,0.1,0.2,0.1,0.3,0.1s0.3-0.1,0.3-0.1l5.7-5.7c0.2-0.2,0.2-0.5,0-0.7C12.3,5,12,5,11.8,5.2
		l-5.1,5.1c-0.1,0.1-0.3,0.1-0.5,0L4.4,8.4C4.3,8.3,4.2,8.3,4.1,8.3z"/>
	<path id="XMLID_22_" class="st0" d="M8.3,15.4c-0.2,0-0.3-0.1-0.3-0.3s0.1-0.3,0.3-0.3c3,0,5.5-2,6.2-4.9c0-0.2,0.2-0.3,0.4-0.2
		c0.2,0,0.3,0.2,0.2,0.4C14.3,13.2,11.5,15.4,8.3,15.4z"/>
	<path id="XMLID_20_" class="st0" d="M15,8.9C15,8.9,15,8.9,15,8.9c-0.2,0-0.3-0.2-0.3-0.3c0-0.1,0-0.2,0-0.3c0-0.2,0.1-0.3,0.3-0.3
		c0.2,0,0.3,0.1,0.3,0.3c0,0.1,0,0.2,0,0.3C15.3,8.7,15.2,8.9,15,8.9z"/>
</g>
</svg>
