<?xml version="1.0" encoding="iso-8859-1"?>
<!-- Generator: Adobe Illustrator 19.0.0, SVG Export Plug-In . SVG Version: 6.00 Build 0)  -->
<svg version="1.1" id="Layer_1" xmlns="http://www.w3.org/2000/svg" xmlns:xlink="http://www.w3.org/1999/xlink" x="0px" y="0px"
	 viewBox="-49 141 512 512" style="enable-background:new -49 141 512 512;" xml:space="preserve">
<g>
	<circle style="fill:#FFFFFF;" cx="4.333" cy="215.667" r="10.667"/>
	<circle style="fill:#FFFFFF;" cx="47" cy="215.667" r="10.667"/>
	<circle style="fill:#FFFFFF;" cx="89.667" cy="215.667" r="10.667"/>
	<path style="fill:#FFFFFF;" d="M68.333,375.667H303c5.896,0,10.667-4.771,10.667-10.667s-4.771-10.667-10.667-10.667H68.333
		c-5.896,0-10.667,4.771-10.667,10.667S62.438,375.667,68.333,375.667z"/>
	<path style="fill:#FFFFFF;" d="M196.333,482.333h-128c-5.896,0-10.667,4.771-10.667,10.667s4.771,10.667,10.667,10.667h128
		c5.896,0,10.667-4.771,10.667-10.667S202.229,482.333,196.333,482.333z"/>
	<path style="fill:#FFFFFF;" d="M422.167,290.333c-0.618,0-1.217,0.155-1.833,0.184V205c0-23.531-19.146-42.667-42.667-42.667h-384
		C-29.854,162.333-49,181.469-49,205v384c0,23.531,19.146,42.667,42.667,42.667h384c23.521,0,42.667-19.135,42.667-42.667V390.745
		l30.708-30.703c0,0,0,0,0-0.01c7.604-7.604,11.958-18.125,11.958-28.865C463,308.646,444.688,290.333,422.167,290.333z
		 M-6.333,183.667h384C389.438,183.667,399,193.24,399,205v42.667H-27.667V205C-27.667,193.24-18.104,183.667-6.333,183.667z
		 M399,589c0,11.76-9.563,21.333-21.333,21.333h-384c-11.771,0-21.333-9.573-21.333-21.333V269H399v28.62
		c-2.025,1.392-3.962,2.923-5.708,4.672l-116.06,116.042H68.333c-5.896,0-10.667,4.771-10.667,10.667s4.771,10.667,10.667,10.667
		h191.785l-10.243,51.24c-0.708,3.5,0.396,7.115,2.917,9.635c2.021,2.021,4.75,3.125,7.542,3.125c0.688,0,1.396-0.073,2.083-0.208
		l53.313-10.667c2.083-0.417,3.979-1.427,5.458-2.917L399,412.076V589z M308.396,472.51l-34.458,6.896l6.896-34.5l96.828-96.828
		l27.587,27.587L308.396,472.51z M435.958,344.958l-15.625,15.625l-27.589-27.589l15.63-15.63c3.625-3.615,8.646-5.698,13.792-5.698
		c10.75,0,19.5,8.75,19.5,19.5C441.667,336.292,439.583,341.323,435.958,344.958z"/>
</g>
</svg>
