<?xml version="1.0" encoding="iso-8859-1"?>
<!-- Generator: Adobe Illustrator 19.0.0, SVG Export Plug-In . SVG Version: 6.00 Build 0)  -->
<svg version="1.1" id="Layer_1" xmlns="http://www.w3.org/2000/svg" xmlns:xlink="http://www.w3.org/1999/xlink" x="0px" y="0px"
	 viewBox="-49 141 512 512" style="enable-background:new -49 141 512 512;" xml:space="preserve">
<g>
	<path style="fill:#FFFFFF;" d="M449.409,316.705L287.283,154.581c-8.752-8.751-20.423-13.571-32.865-13.571
		c-12.441,0-24.113,4.818-32.865,13.569L-35.429,411.563C-44.18,420.314-49,431.984-49,444.426c0,12.442,4.82,24.114,13.571,32.864
		l19.992,19.992c0.002,0.001,0.003,0.003,0.005,0.005c0.002,0.002,0.004,0.004,0.006,0.006l134.36,134.36H100.33
		c-5.89,0-10.666,4.775-10.666,10.666c0,5.89,4.776,10.666,10.666,10.666h59.189c0.014,0,0.027,0.001,0.041,0.001
		s0.027-0.001,0.041-0.001l154.053,0.002c5.89,0,10.666-4.776,10.666-10.666c0-5.891-4.776-10.666-10.666-10.666l-113.464-0.002
		L449.41,382.433C467.53,364.311,467.53,334.825,449.409,316.705z M434.325,367.35L177.341,624.333
		c-4.713,4.712-11.013,7.31-17.742,7.32h-0.081c-6.727-0.011-13.025-2.608-17.736-7.32L7.195,489.745L253.99,242.948
		c4.165-4.165,4.165-10.919,0-15.084c-4.166-4.165-10.918-4.165-15.085,0.001L-7.89,474.662l-12.456-12.456
		c-4.721-4.721-7.321-11.035-7.321-17.779c0-6.744,2.6-13.059,7.322-17.781l256.982-256.982c4.722-4.721,11.037-7.321,17.781-7.321
		c6.744,0,13.059,2.6,17.781,7.322l57.703,57.702l-246.798,246.8c-4.165,4.164-4.165,10.918,0,15.085
		c2.083,2.082,4.813,3.123,7.542,3.123c2.73,0,5.459-1.042,7.542-3.124l246.798-246.799l89.339,89.336
		C444.128,341.593,444.127,357.545,434.325,367.35z"/>
	<path style="fill:#FFFFFF;" d="M213.801,449.063c-4.165-4.165-10.917-4.164-15.085,0l-83.934,83.933
		c-4.165,4.165-4.165,10.918,0,15.085c2.083,2.083,4.813,3.124,7.542,3.124c2.73,0,5.459-1.042,7.542-3.124l83.934-83.933
		C217.966,459.981,217.966,453.228,213.801,449.063z"/>
	<path style="fill:#FFFFFF;" d="M179.375,528.74l-34.425,34.425c-4.165,4.165-4.165,10.919,0,15.085
		c2.083,2.082,4.813,3.124,7.542,3.124c2.731,0,5.459-1.042,7.542-3.124l34.425-34.425c4.165-4.165,4.165-10.919,0-15.085
		C190.294,524.575,183.543,524.575,179.375,528.74z"/>
	<path style="fill:#FFFFFF;" d="M211.054,497.065l-4.525,4.524c-4.166,4.165-4.166,10.918-0.001,15.085
		c2.082,2.083,4.813,3.125,7.542,3.125c2.73,0,5.459-1.042,7.541-3.125l4.525-4.524c4.166-4.165,4.166-10.918,0.001-15.084
		C221.974,492.9,215.219,492.899,211.054,497.065z"/>
	<path style="fill:#FFFFFF;" d="M358.073,304.792c-2-2-4.713-3.124-7.542-3.124s-5.541,1.124-7.542,3.124l-45.255,45.254
		c-2,2.001-3.124,4.713-3.124,7.542c0,2.829,1.124,5.542,3.124,7.542l30.17,30.167c2.083,2.083,4.813,3.124,7.542,3.124
		c2.731,0,5.459-1.042,7.542-3.124l45.253-45.252c4.165-4.165,4.165-10.919,0-15.084L358.073,304.792z M335.445,372.672
		l-15.085-15.084l30.17-30.17l15.084,15.085L335.445,372.672z"/>
	<path style="fill:#FFFFFF;" d="M271.339,221.186c2.731,0,5.461-1.042,7.543-3.126l4.525-4.527
		c4.164-4.166,4.163-10.92-0.003-15.084c-4.165-4.164-10.92-4.163-15.084,0.003l-4.525,4.527c-4.164,4.166-4.163,10.92,0.003,15.084
		C265.881,220.146,268.609,221.186,271.339,221.186z"/>
	<path style="fill:#FFFFFF;" d="M58.215,499.057l-4.525,4.525c-4.165,4.164-4.165,10.918,0,15.085
		c2.083,2.082,4.813,3.123,7.542,3.123s5.459-1.041,7.542-3.123l4.525-4.525c4.165-4.166,4.165-10.92,0-15.085
		C69.133,494.891,62.381,494.891,58.215,499.057z"/>
</g>
</svg>
