<?xml version="1.0" encoding="iso-8859-1"?>
<!-- Generator: Adobe Illustrator 19.0.0, SVG Export Plug-In . SVG Version: 6.00 Build 0)  -->
<svg version="1.1" id="Layer_1" xmlns="http://www.w3.org/2000/svg" xmlns:xlink="http://www.w3.org/1999/xlink" x="0px" y="0px"
	 viewBox="0 0 108.196 114.312" style="enable-background:new 0 0 108.196 114.312;" xml:space="preserve">
<g id="XMLID_530_">
	<g id="XMLID_27_">
		<path id="XMLID_29_" style="fill:#F26C23;" d="M54.098,114.312c-5.229,0-9.467-4.239-9.467-9.467
			c0-20.197-2.29-27.344-17.453-35.783C8.636,58.74,0,44.267,0,23.513c0-5.229,4.239-9.467,9.467-9.467s9.467,4.239,9.467,9.467
			c0,13.881,4.893,22.013,17.452,29.004c20.574,11.452,27.178,24.167,27.178,52.328C63.565,110.073,59.327,114.312,54.098,114.312z"
			/>
		<path id="XMLID_28_" style="fill:#F26C23;" d="M98.729,100.266c-5.229,0-9.467-4.239-9.467-9.467
			c0-20.197-2.29-27.344-17.453-35.783C53.267,44.694,44.631,30.221,44.631,9.467C44.631,4.239,48.87,0,54.098,0
			s9.467,4.239,9.467,9.467c0,13.881,4.893,22.013,17.452,29.004c20.574,11.452,27.178,24.167,27.178,52.328
			C108.196,96.027,103.958,100.266,98.729,100.266z"/>
	</g>
</g>
</svg>
