<?xml version="1.0" encoding="iso-8859-1"?>
<!-- Generator: Adobe Illustrator 19.0.0, SVG Export Plug-In . SVG Version: 6.00 Build 0)  -->
<svg version="1.1" id="Layer_1" xmlns="http://www.w3.org/2000/svg" xmlns:xlink="http://www.w3.org/1999/xlink" x="0px" y="0px"
	 viewBox="-49 141 512 512" style="enable-background:new -49 141 512 512;" xml:space="preserve">
<g>
	<path style="fill:#FFFFFF;" d="M444.522,234.706H134.088c-10.17,0-18.455,8.284-18.455,18.455v80.928H-30.553
		c-10.163,0-18.447,8.285-18.447,18.478v188.272c0,10.171,8.284,18.455,18.447,18.455h310.471c10.163,0,18.448-8.285,18.448-18.455
		v-80.928h146.155c10.201,0,18.478-8.285,18.478-18.448V253.161C463,242.99,454.723,234.706,444.522,234.706L444.522,234.706z
		 M280.274,540.839c0,0.181-0.181,0.355-0.355,0.355l-310.796-0.355l0.355-188.649l310.796,0.377V540.839z M444.877,441.463
		c0,0.174-0.143,0.347-0.355,0.347l-146.155-0.173v-89.069c0-10.193-8.284-18.478-18.478-18.478H133.937l0.151-81.283l310.789,0.355
		V441.463z M444.877,441.463"/>
</g>
</svg>
