<svg id="Capa_1" data-name="Capa 1" xmlns="http://www.w3.org/2000/svg" xmlns:xlink="http://www.w3.org/1999/xlink" viewBox="0 0 106 110"><defs><style>.cls-1{fill:none;}.cls-2{clip-path:url(#clip-path);}.cls-3{fill:#840e33;}.cls-4{fill:#b99359;}</style><clipPath id="clip-path"><rect class="cls-1" x="-258.11" y="-630.01" width="1280" height="355"/></clipPath></defs><title>icons</title><g class="cls-2"><polygon class="cls-3" points="-187.76 -569.01 -73.94 -569.01 194.13 -178.69 194.13 122.88 -187.76 -438.7 -187.76 -569.01"/></g><circle class="cls-3" cx="53.65" cy="55" r="50"/><path class="cls-4" d="M74.66,53.73H44.23a.77.77,0,0,0-.39.11L32.25,61.09a.72.72,0,0,0,.38,1.34H63.07a.76.76,0,0,0,.38-.11L75,55.08a.73.73,0,0,0-.38-1.35ZM62.86,61H35.16l9.27-5.8H72.14Z"/><path class="cls-4" d="M62.86,72.57H32.63V74H63.07a.76.76,0,0,0,.38-.11L75,66.67l-.76-1.23Z"/><path class="cls-4" d="M62.86,63.88H32.63v1.45H63.07a.76.76,0,0,0,.38-.11L75,58l-.76-1.23Z"/><path class="cls-4" d="M62.86,66.78H32.63v1.45H63.07a.76.76,0,0,0,.38-.11L75,60.87l-.76-1.22Z"/><path class="cls-4" d="M62.86,69.67H32.63v1.45H63.07a.75.75,0,0,0,.38-.1L75,63.77l-.76-1.23Z"/><path class="cls-4" d="M50.5,59.53h1.13A2.44,2.44,0,0,0,53.08,59l2-1.49a.93.93,0,0,1,.58-.2h1.13A1,1,0,0,1,57.47,59l1,1a2.41,2.41,0,0,0,.67-1.24h2.44V57.35H59a2.38,2.38,0,0,0-2.21-1.45H55.66a2.44,2.44,0,0,0-1.45.49l-2,1.49a1,1,0,0,1-.59.2H50.49a1,1,0,0,1-.68-1.67l-1-1a2.41,2.41,0,0,0-.67,1.24H45.67v1.45h2.61A2.4,2.4,0,0,0,50.5,59.53Z"/><path class="cls-4" d="M68.14,42.86h-.72V32.72c0-2-5.55-2.18-7.25-2.18s-7.24.16-7.24,2.18v2.91a19.79,19.79,0,0,0-5.81-.74c-1.7,0-7.24.16-7.24,2.18V52.28h1.45V50.1a19.73,19.73,0,0,0,5.8.74,19.73,19.73,0,0,0,5.8-.74v2.18h1.45V48.65a19.73,19.73,0,0,0,5.8.74V47.93c-3.34,0-5.36-.54-5.8-.87V45.74a19.4,19.4,0,0,0,5.8.74V45c-3.34,0-5.36-.55-5.8-.87V42.84a19.35,19.35,0,0,0,5.79.75V42.14c-3.34,0-5.37-.55-5.8-.88V40a19.68,19.68,0,0,0,5.8.73A19.68,19.68,0,0,0,66,40v3c-2.24.17-5.07.66-5.07,2.1v7.25h1.44V49.37a19.68,19.68,0,0,0,5.8.73,19.4,19.4,0,0,0,5.8-.74v2.92h1.45V45C75.39,43,69.84,42.86,68.14,42.86ZM54.37,34.15a19.4,19.4,0,0,0,5.8.74,19.4,19.4,0,0,0,5.8-.74v1.32c-.44.32-2.46.87-5.8.87s-5.37-.55-5.8-.87ZM60.17,32a16.13,16.13,0,0,1,5.51.73,16.22,16.22,0,0,1-5.51.72,16.57,16.57,0,0,1-5.52-.72A16.2,16.2,0,0,1,60.17,32Zm-7.25,7.83c-.43.32-2.46.87-5.8.87s-5.36-.55-5.79-.87V38.5a19.67,19.67,0,0,0,5.79.74,19.69,19.69,0,0,0,5.8-.74Zm0,2.89c-.43.33-2.46.88-5.8.88s-5.36-.55-5.79-.88V41.4a19.67,19.67,0,0,0,5.79.74,19.69,19.69,0,0,0,5.8-.74Zm0,2.9c-.43.32-2.46.88-5.8.88s-5.36-.55-5.79-.88V44.3a19.67,19.67,0,0,0,5.79.74,19.69,19.69,0,0,0,5.8-.74Zm-5.8-9.27a16.16,16.16,0,0,1,5.52.73,16.29,16.29,0,0,1-5.52.72,16.49,16.49,0,0,1-5.51-.72A15.87,15.87,0,0,1,47.12,36.34ZM41.33,48.51V47.2a19.62,19.62,0,0,0,5.79.73,19.64,19.64,0,0,0,5.8-.73v1.31c-.43.32-2.46.88-5.8.88S41.76,48.83,41.33,48.51Zm13-10.15V37.05a19.73,19.73,0,0,0,5.8.74,19.73,19.73,0,0,0,5.8-.74v1.31c-.44.33-2.46.88-5.8.88S54.8,38.69,54.37,38.36Zm13.77,6a16.57,16.57,0,0,1,5.52.72,16.25,16.25,0,0,1-5.52.73A16.25,16.25,0,0,1,62.62,45,16.57,16.57,0,0,1,68.14,44.31Zm-5.8,3.48V46.47a19.4,19.4,0,0,0,5.8.74,19.4,19.4,0,0,0,5.8-.74v1.32c-.43.32-2.46.87-5.8.87S62.78,48.11,62.34,47.79Z"/></svg>