<svg id="Capa_1" data-name="Capa 1" xmlns="http://www.w3.org/2000/svg" xmlns:xlink="http://www.w3.org/1999/xlink" viewBox="0 0 106 110"><defs><style>.cls-1{fill:none;}.cls-2{clip-path:url(#clip-path);}.cls-3{fill:#840e33;}.cls-4{fill:#b99359;}</style><clipPath id="clip-path"><rect class="cls-1" x="-372.11" y="-630.01" width="1280" height="355"/></clipPath></defs><title>icons</title><g class="cls-2"><polygon class="cls-3" points="-301.76 -569.01 -187.94 -569.01 80.13 -178.69 80.13 122.88 -301.76 -438.7 -301.76 -569.01"/></g><circle class="cls-3" cx="52.71" cy="55" r="50"/><path class="cls-4" d="M66.39,58.16a7.36,7.36,0,1,0-3,0,12.69,12.69,0,0,0-4.56,1.44,5.29,5.29,0,0,0-9.94-.81,13.66,13.66,0,0,0-5.39-1.54,7.83,7.83,0,1,0-1.94,0A13.7,13.7,0,0,0,28.8,70.9v.59H45.1a9.37,9.37,0,0,0-.82,3.81v.59H63.06V75.3a9.36,9.36,0,0,0-.81-3.81H77.71V70.9A12.85,12.85,0,0,0,66.39,58.16ZM58.7,51a6.17,6.17,0,1,1,6.17,6.16A6.17,6.17,0,0,1,58.7,51Zm-5,5.89A4.11,4.11,0,1,1,49.57,61,4.11,4.11,0,0,1,53.68,56.85ZM35.84,49.49a6.64,6.64,0,1,1,6.64,6.63A6.65,6.65,0,0,1,35.84,49.49ZM30,70.3A12.49,12.49,0,0,1,48.47,59.93a5.77,5.77,0,0,0-.09,1A5.29,5.29,0,0,0,52.19,66a9.42,9.42,0,0,0-6.45,4.27Zm15.5,4.41a8.2,8.2,0,0,1,16.36,0ZM61.62,70.3A9.41,9.41,0,0,0,55.16,66,5.3,5.3,0,0,0,59,61v-.08a11.48,11.48,0,0,1,5.9-1.63,11.66,11.66,0,0,1,11.63,11Z"/><path class="cls-4" d="M54.16,45.9l.06-.06.06.06,6.6-6.59A5,5,0,0,0,54.23,32a5,5,0,0,0-6.65,7.34ZM48.41,33.14A3.77,3.77,0,0,1,51.08,32a3.72,3.72,0,0,1,2.66,1.11l.48.47.48-.47a3.77,3.77,0,0,1,5.33,0,3.77,3.77,0,0,1,0,5.32l-5.75,5.76-.06-.06-.06.06-5.75-5.75a3.78,3.78,0,0,1,0-5.33Z"/></svg>