<svg id="Capa_1" data-name="Capa 1" xmlns="http://www.w3.org/2000/svg" viewBox="0 0 271 81"><defs><style>.cls-1{fill:#b79257;}</style></defs><title>icons</title><path class="cls-1" d="M205,69.13v-.82c-1.81-.16-2.27-.49-2.27-2.3V54.07h-.52a7.59,7.59,0,0,1-4,1.41v.66c1.65.49,2,.82,2,2.47V66c0,1.81-.47,2.2-2.27,2.3v.82ZM201.14,52A1.86,1.86,0,1,1,203,50.15,1.81,1.81,0,0,1,201.14,52"/><path class="cls-1" d="M163.78,69.13v-.82c1.71-.16,2.1-.49,2.1-2.3V59.76c0-2.3-.59-3.78-2.89-3.78a7.11,7.11,0,0,0-3.88,1.81s0,.65,0,1.31V66c0,1.81.36,2.14,2.11,2.3v.82h-6.78v-.82c1.71-.16,2.1-.49,2.1-2.3V59.76c0-2.3-.59-3.78-2.89-3.78-1.48,0-3,1.15-3.85,1.81V66c0,1.81.36,2.14,2.11,2.3v.82H145v-.82c1.81-.1,2.27-.49,2.27-2.3v-7.4c0-1.65-.32-2-2-2.47v-.66a7,7,0,0,0,4-1.41h.55l0,2.56A44,44,0,0,0,154.18,54c2.36-.37,4.09.42,4.76,2.83A38.9,38.9,0,0,0,163.4,54c2.95-.31,5,1.21,5,4.8V66c0,1.81.46,2.14,2.3,2.3v.82Z"/><path class="cls-1" d="M244.62,69.13v-.82c1.71-.16,2.1-.49,2.1-2.3V59.76c0-2.3-.76-3.78-3.22-3.78a7.41,7.41,0,0,0-3.85,1.64V66c0,1.81.39,2.1,2.1,2.3v.82h-6.94v-.82c1.81-.1,2.27-.49,2.27-2.3v-7.4c0-1.65-.33-2-2-2.47v-.66a10.87,10.87,0,0,0,4.09-1.41h.45l0,2.4s3.22-1.68,4.72-2.5c3.22-.28,4.95,1.28,4.95,4.8V66c0,1.81.46,2.14,2.3,2.3v.82Z"/><path class="cls-1" d="M139.17,60.58c-.36.24-3.56,1.88-3.56,1.88a3.17,3.17,0,0,0-2,3.06,2.57,2.57,0,0,0,2.66,2.23c1.12,0,2.86-1.9,2.86-1.9Zm2.18,9c-1.32,0-2.14-1-2.14-2.7a17,17,0,0,1-3.61,2.7C132.86,69.53,131,68,131,66s1.24-3,2.67-3.63c0,0,4.49-2.19,5.55-2.84v-.6c0-2.47-1.38-3.46-3-3.46s-2.07,1-2.07,1.65a1.77,1.77,0,0,0,.52,1.15,1.82,1.82,0,0,1-1.58,1,1.5,1.5,0,0,1-1.58-1.65c0-1.31,1.42-1.91,2.9-2.47L137.53,54c2.47,0,4.21,1.18,4.21,3.65v8.23c0,1.15.49,1.74,1,1.74a2.41,2.41,0,0,0,1.45-.56l.24.32-1.74,1.78a3,3,0,0,1-1.39.4"/><path class="cls-1" d="M107.24,60.57c-.36.24-3.55,1.9-3.55,1.9a3.18,3.18,0,0,0-2,3.07,2.57,2.57,0,0,0,2.68,2.22c1.12,0,2.85-1.92,2.85-1.92Zm2.22,8.94c-1.31,0-2.14-1-2.15-2.69a16.33,16.33,0,0,1-3.59,2.72c-2.74,0-4.66-1.52-4.67-3.49s1.22-3,2.64-3.65c0,0,4.49-2.22,5.54-2.87v-.6c0-2.47-1.4-3.45-3-3.44s-2.07,1-2.07,1.66a1.8,1.8,0,0,0,.54,1.15,1.84,1.84,0,0,1-1.58,1,1.49,1.49,0,0,1-1.59-1.63c0-1.32,1.41-1.92,2.88-2.49l3.19-1.2c2.46,0,4.21,1.16,4.23,3.63l0,8.22c0,1.15.5,1.74,1.06,1.74a2.39,2.39,0,0,0,1.44-.57l.25.32-1.73,1.8a3.09,3.09,0,0,1-1.4.4"/><path class="cls-1" d="M194.89,57.69a1.3,1.3,0,0,1-1.41-.83.58.58,0,0,0,.2-.42.44.44,0,0,0-.5-.43c-.92,0-2,1.81-2.63,2.8V66c0,1.81.3,2.14,2.76,2.3v.82h-7.6v-.82c1.81-.1,2.27-.49,2.27-2.3v-7.4c0-1.65-.32-2-2-2.47v-.66a8.9,8.9,0,0,0,4-1.41h.59l0,3.29s1.1-1.23,2.23-2.66a2.8,2.8,0,0,1,1.71-.73,1.85,1.85,0,0,1,2,1.88,1.78,1.78,0,0,1-1.58,1.84"/><path class="cls-1" d="M208.81,60.86c.09,4.29,2.37,6.38,5.33,6.38A8.39,8.39,0,0,0,219,65.79l0,.81-2.25,2.06a7.34,7.34,0,0,1-3.5.87c-4.57,0-7.24-3.58-7.32-7.6a7.31,7.31,0,0,1,7.3-7.89c3.38,0,5.38,1.58,5.42,3.49a1.83,1.83,0,0,1-1.8,1.92,1.37,1.37,0,0,1-1.45-1.28c.49,0,.93-.42.93-1.14,0-1.19-1.46-2-3.23-2-2.77,0-4.34,2.33-4.27,5.78"/><path class="cls-1" d="M260.69,60.58c-.37.24-3.56,1.88-3.56,1.88a3.18,3.18,0,0,0-2,3.06,2.58,2.58,0,0,0,2.67,2.23c1.12,0,2.86-1.9,2.86-1.9Zm2.17,9c-1.31,0-2.14-1-2.14-2.7a16.7,16.7,0,0,1-3.6,2.7c-2.74,0-4.65-1.55-4.65-3.52s1.24-3,2.66-3.63c0,0,4.5-2.19,5.56-2.84v-.6c0-2.47-1.38-3.46-3-3.46s-2.08,1-2.08,1.65a1.76,1.76,0,0,0,.53,1.15,1.84,1.84,0,0,1-1.58,1A1.49,1.49,0,0,1,253,57.62c0-1.31,1.42-1.91,2.9-2.47L259.05,54c2.46,0,4.21,1.18,4.21,3.65v8.23c0,1.15.49,1.74,1.05,1.74a2.43,2.43,0,0,0,1.45-.56l.24.32-1.74,1.78a3,3,0,0,1-1.4.4"/><path class="cls-1" d="M229,60.58c-.36.24-3.56,1.88-3.56,1.88a3.17,3.17,0,0,0-2,3.06,2.56,2.56,0,0,0,2.66,2.23c1.12,0,2.86-1.9,2.86-1.9Zm2.17,9c-1.31,0-2.14-1-2.14-2.7a16.7,16.7,0,0,1-3.6,2.7c-2.74,0-4.65-1.55-4.65-3.52s1.24-3,2.67-3.63c0,0,4.49-2.19,5.55-2.84v-.6c0-2.47-1.38-3.46-3-3.46s-2.08,1-2.08,1.65a1.76,1.76,0,0,0,.53,1.15,1.82,1.82,0,0,1-1.58,1,1.49,1.49,0,0,1-1.58-1.65c0-1.31,1.42-1.91,2.9-2.47L227.31,54c2.46,0,4.21,1.18,4.21,3.65v8.23c0,1.15.49,1.74,1,1.74A2.43,2.43,0,0,0,234,67l.24.32-1.74,1.78a3,3,0,0,1-1.4.4"/><path class="cls-1" d="M91.45,60.1H88.19V51.71c0-.82.07-1.22.33-1.45S89,50,89.84,50c3.29,0,5.49,1.45,5.49,4.9s-1.81,5.2-3.88,5.2m0-11.22h-9v.86a3.39,3.39,0,0,1,2.4.72c.4.49.5,1.15.5,2.9v11.3c0,1.65-.1,2.3-.6,2.8s-.82.59-2.46.82v.85h9v-.85c-1.64-.2-2.13-.33-2.63-.82s-.56-1.15-.56-2.8V61.15h3.62a6.86,6.86,0,0,0,4.44-1.48,6.26,6.26,0,0,0,2.3-5.1c0-3.94-3.81-5.69-7.1-5.69"/><path class="cls-1" d="M174.27,61.47l7.08-1.42c.54-3.69-1.21-5-2.69-5-2.73,0-4.46,2.42-4.39,6.45m-2.91.43c0-5.09,3.45-7.93,7.18-7.93,3,0,6,1.48,5.63,6.52l-9.79,2a5.2,5.2,0,0,0,5.08,4.78A8.3,8.3,0,0,0,184.17,66v.83s-1.28.86-3.28,2.25a6.49,6.49,0,0,1-2.38.45c-4.56,0-7.15-3.59-7.15-7.63"/><path class="cls-1" d="M122.79,69.13v-.82c1.71-.16,2.11-.49,2.11-2.3V59.76c0-2.3-.76-3.78-3.22-3.78a7.41,7.41,0,0,0-3.85,1.64V66c0,1.81.39,2.1,2.1,2.3v.82H113v-.82c1.81-.1,2.27-.49,2.27-2.3v-7.4c0-1.65-.33-2-2-2.47v-.66a10.87,10.87,0,0,0,4.09-1.41h.45l0,2.4s3.22-1.68,4.72-2.5c3.22-.28,5,1.28,5,4.8V66c0,1.81.46,2.14,2.3,2.3v.82Z"/><path class="cls-1" d="M91.26,35.65c-.15.17-.17.39-.17,1v2.68a5.06,5.06,0,0,1-.2,1.67c-.13.42-.6,1.52-2.58,1.52s-2.45-1.1-2.59-1.51a5.83,5.83,0,0,1-.19-1.68V36.62c0-.58,0-.8-.17-1s-.38-.22-.8-.24v-.29c.5,0,1,.06,1.43.06s.94-.06,1.44-.06v.28a1.17,1.17,0,0,0-.81.25c-.13.17-.16.39-.16,1v2.48a4.36,4.36,0,0,0,.25,1.81,1.79,1.79,0,0,0,1.78.92,1.82,1.82,0,0,0,1.8-.9,4.45,4.45,0,0,0,.25-1.82l0-2.48c0-.58,0-.8-.17-1s-.33-.22-.77-.24v-.29c.41,0,.8.06,1.21.06s.83-.06,1.25-.06v.28c-.39,0-.64.09-.77.25"/><path class="cls-1" d="M106.57,35.66c-.17.17-.17.43-.17,1l0,3.75c0,1,.08,2,.08,2l-.37.16a12.47,12.47,0,0,1-.93-1.12l-3.83-5.15.08,4.56c0,.55,0,.77.17.93s.35.21.84.28v.28c-.49,0-.79-.05-1.28-.05s-.81.05-1.3.05V42c.44-.06.66-.11.82-.28s.17-.38.17-.93l0-4.46a.93.93,0,0,0-.21-.66,1.26,1.26,0,0,0-.77-.29v-.29c.33,0,.61.06.94.06s.9-.06.9-.06a6.11,6.11,0,0,0,.61.92l3.55,4.79-.05-4.19c0-.54,0-.8-.17-1a1.24,1.24,0,0,0-.82-.26v-.29c.46,0,.79.06,1.26.06s.8-.06,1.27-.06v.28a1.26,1.26,0,0,0-.79.26"/><path class="cls-1" d="M116.56,42.26c-.5,0-1,.05-1.49.05V42c.55-.08.66-.11.83-.28s.2-.38.2-.93v-4.2c0-.58,0-.8-.17-1a1.15,1.15,0,0,0-.8-.24v-.29c.49,0,.93.06,1.43.06s.93-.06,1.43-.06v.28a1.13,1.13,0,0,0-.79.25c-.15.17-.17.39-.17,1v4.21c0,.55,0,.77.19.93s.34.22.84.28v.28c-.51,0-1-.05-1.5-.05"/><path class="cls-1" d="M131.86,35.67a1.34,1.34,0,0,0-.33.58L129.84,41a8.76,8.76,0,0,0-.38,1.21,4.1,4.1,0,0,0-.8.22,14.26,14.26,0,0,0-.44-1.43l-1.65-4.74a1.58,1.58,0,0,0-.33-.58,1,1,0,0,0-.62-.26v-.29c.5,0,.81.06,1.3.06s.94-.06,1.43-.06v.28c-.49,0-.69.15-.77.3s0,.38.11.88l1.57,4.8,1.59-4.8a1.36,1.36,0,0,0,.13-.88c-.09-.15-.28-.27-.79-.29v-.29c.5,0,.75.06,1.25.06s.55-.06,1-.06v.28a1.23,1.23,0,0,0-.62.27"/><path class="cls-1" d="M145.4,42.31c-1.1,0-3.41-.05-3.91-.05s-1,.05-1.48.05V42c.49-.07.66-.11.82-.28s.2-.38.2-.93v-4.2c0-.58,0-.8-.16-1a1.18,1.18,0,0,0-.81-.24v-.29c.5,0,.94.06,1.43.06,1,0,3.77-.06,3.77-.06l0,1.63-.22,0c-.33-1-.44-1.21-1.37-1.21h-1.27c-.44,0-.46,0-.46.49v2.37l1.12,0c.5,0,.72-.05.85-.2a1.12,1.12,0,0,0,.26-.77h.27c0,.44-.06.83-.06,1.24s.06.8.06,1.24h-.25a1.53,1.53,0,0,0-.27-.82c-.14-.14-.36-.19-.86-.2l-1.12,0v2.26c0,.61.11.75.74.75H144c.83,0,1.27-.63,1.6-1.45l.28.07Z"/><path class="cls-1" d="M157.94,36.92c0-1.1-.86-1.42-1.69-1.42h-.35c-.22,0-.27,0-.27.27v2.8l.62,0c1.09-.06,1.68-.53,1.68-1.63Zm1.32,5.35c-.28,0-.8,0-.8,0L157,39.56c-.19-.37-.27-.62-.66-.63l-.73,0v1.92c0,.55,0,.77.18.93s.33.22.77.28v.28c-.49,0-.93-.05-1.43-.05s-1,.05-1.48.05V42c.49-.06.66-.11.82-.28s.2-.36.2-.93v-4.2c0-.6,0-.8-.17-1a1.13,1.13,0,0,0-.8-.24v-.29c.5,0,.83.06,1.38.06s1-.06,1.59-.06a3.26,3.26,0,0,1,1.22.2,1.62,1.62,0,0,1,1.1,1.49,2.1,2.1,0,0,1-1.74,1.87c.47.06.73.62,1,1.16l.79,1.48a1.56,1.56,0,0,0,.44.5,1.59,1.59,0,0,0,.59.21v.28c-.28,0-.57,0-.85,0"/><path class="cls-1" d="M171.27,41.87a2.59,2.59,0,0,1-3.4,0l-.14-1.71.33,0c.37,1.74,1.19,2,1.63,2a1.29,1.29,0,0,0,1-.36,1.35,1.35,0,0,0,.36-.88,1.5,1.5,0,0,0-.22-.88,1.75,1.75,0,0,0-.71-.66l-.83-.5a4.57,4.57,0,0,1-.91-.66,1.78,1.78,0,0,1-.51-1.3,1.72,1.72,0,0,1,.76-1.42,2.34,2.34,0,0,1,1.54-.42,2.81,2.81,0,0,1,1.52.44l-.05,1.5-.26,0c-.16-1.26-.79-1.59-1.45-1.59a1.13,1.13,0,0,0-1.2,1,1.15,1.15,0,0,0,.29.85,2.84,2.84,0,0,0,.71.54l.83.5a3.53,3.53,0,0,1,1,.83,1.92,1.92,0,0,1,.4,1.24,2.07,2.07,0,0,1-.66,1.48"/><path class="cls-1" d="M181.42,42.26c-.49,0-1,.05-1.49.05V42c.56-.08.67-.11.83-.28s.2-.38.2-.93v-4.2c0-.58,0-.8-.17-1a1.13,1.13,0,0,0-.8-.24v-.29c.5,0,.94.06,1.43.06s.94-.06,1.43-.06v.28a1.15,1.15,0,0,0-.79.25c-.14.17-.16.39-.16,1v4.21c0,.55,0,.77.18.93s.34.22.84.28v.28c-.51,0-1-.05-1.5-.05"/><path class="cls-1" d="M195.56,36.09a3,3,0,0,0-2-.57h-.22c-.55,0-.6,0-.6.6v5.09c0,.5.16.69.66.69h.26a2.8,2.8,0,0,0,2-.69,3.56,3.56,0,0,0,.89-2.59,3,3,0,0,0-1-2.53m.69,5.56a4.07,4.07,0,0,1-2.43.66c-.55,0-1-.05-1.54-.05s-1,.05-1.49.05V42c.56-.08.67-.11.83-.28s.2-.37.2-.93v-4.2c0-.59,0-.8-.17-1a1.13,1.13,0,0,0-.8-.24v-.29c.5,0,.94.06,1.43.06s.68-.06,1.4-.06a4.73,4.73,0,0,1,2.26.48,3.63,3.63,0,0,1,.31,6"/><path class="cls-1" d="M208.77,35.93l-1.11,3.21h2.16Zm2.35,6.33c-.5,0-.94.05-1.44.05V42c.5-.06.71-.16.79-.32a.88.88,0,0,0,0-.63L210,39.62h-2.47L207,41.07a.91.91,0,0,0-.05.64c.09.16.3.26.8.32v.28c-.44,0-.76-.05-1.2-.05s-.61.05-1.05.05V42a1.39,1.39,0,0,0,.61-.28,1.64,1.64,0,0,0,.33-.59l1.76-4.79a8,8,0,0,0,.38-1.21s.58-.06.85-.11c.06.27.23.78.42,1.32l1.65,4.79a1.64,1.64,0,0,0,.33.59,1.28,1.28,0,0,0,.61.28v.28c-.5,0-.83-.05-1.32-.05"/><path class="cls-1" d="M224.79,36.09a3.06,3.06,0,0,0-2-.57h-.22c-.55,0-.6,0-.6.6v5.09c0,.5.16.69.66.69h.26a2.8,2.8,0,0,0,2-.69,3.56,3.56,0,0,0,.89-2.59,3,3,0,0,0-1-2.53m.68,5.56a4.07,4.07,0,0,1-2.43.66c-.55,0-1-.05-1.54-.05s-1,.05-1.48.05V42c.55-.08.66-.11.82-.28s.2-.37.2-.93v-4.2c0-.59,0-.8-.16-1a1.18,1.18,0,0,0-.81-.24v-.29c.5,0,.94.06,1.43.06s.69-.06,1.4-.06a4.73,4.73,0,0,1,2.26.48,3.63,3.63,0,0,1,.31,6"/><path class="cls-1" d="M56.3,43c-.56,1.93-2,3.26-4.33,4a20.35,20.35,0,0,0-3.24,1.39l-.12.06a13.74,13.74,0,0,0-3.14,2.09A7.18,7.18,0,0,0,44,53.86a15.13,15.13,0,0,0,.21,8.41,8.86,8.86,0,0,0,2.88,4.23,12,12,0,0,0,3.66,1.7c.46.15.93.3,1.37.47a3.18,3.18,0,0,1,1.05.71,2.72,2.72,0,0,0-.49,0h-.26a.22.22,0,0,1-.16,0l0,0a4.44,4.44,0,0,0-.67-.38c-.32-.14-.65-.25-1-.36l-1.07-.33a12.29,12.29,0,0,1-1.21-.41A7.84,7.84,0,0,1,46.72,67a5.6,5.6,0,0,1-1.22-1,9.94,9.94,0,0,1-2-3.48,15.79,15.79,0,0,1-.22-8.83A7.85,7.85,0,0,1,45,50.08a14.56,14.56,0,0,1,3.28-2.19l.13-.07a21.64,21.64,0,0,1,3.34-1.42c2.36-.79,3.59-1.9,3.87-3.48a6.89,6.89,0,0,1,.35-1c0-.09.07-.16.09-.22a5.93,5.93,0,0,0,.44-3.11A7.42,7.42,0,0,1,56.3,43M52,70.27A2.7,2.7,0,0,0,49.77,69l-.12,0a3.6,3.6,0,0,1-.94-.32,3.21,3.21,0,0,0-1-.31,4.1,4.1,0,0,0-.49-.06.92.92,0,0,1-.4-.08c-3.24-2.26-3.77-3.9-4.2-5.22l0-.14a16.86,16.86,0,0,1-.24-9.42,10.16,10.16,0,0,1,2-4,6.58,6.58,0,0,1,3.81-2.1,12.23,12.23,0,0,0,1.32-.17c-.41.18-.8.37-1.18.58l-.12.06A14.21,14.21,0,0,0,44.89,50a8,8,0,0,0-1.76,3.67,16.08,16.08,0,0,0,.22,8.94,10.51,10.51,0,0,0,2,3.55,6.42,6.42,0,0,0,1.18,1,7.39,7.39,0,0,0,1.54.77c.3.12.61.23.92.33s.69.22,1,.31a8.51,8.51,0,0,1,1,.3,3.36,3.36,0,0,1,.81.39,1,1,0,0,1,.26.24.11.11,0,0,1,0,.11,5.51,5.51,0,0,1-.07.68m-5.25-1.09a4.67,4.67,0,0,1-.86-.49,1.35,1.35,0,0,0-.33-.19c-2.86-2.12-3.35-3.69-3.76-5l-.09-.29,0-.09a17.94,17.94,0,0,1-.25-10c.51-1.88,1.13-4,2.72-5.17.19-.13.39-.25.58-.36l.09,0h0a7.46,7.46,0,0,1,.8-.4,6.46,6.46,0,0,1,.73-.28,15.72,15.72,0,0,1,2.27-.49c.58-.1,1.18-.2,1.79-.36.34-.09.64-.15.93-.21a4.63,4.63,0,0,0,3.35-2l.08-.1c.25-.3.46-.59.65-.87v.06c-.27,1.5-1.46,2.56-3.74,3.33l-.55.19h0a9.7,9.7,0,0,1-3,.65,6.79,6.79,0,0,0-4,2.17,10.43,10.43,0,0,0-2,4.13,17.07,17.07,0,0,0,.24,9.53l0,.14c.41,1.27,1,3,4.27,5.32a1.11,1.11,0,0,1,.28.32.21.21,0,0,0,0,.06,2.65,2.65,0,0,1,.28.77,3.83,3.83,0,0,0-.57-.31m-2.91-1h0a.32.32,0,0,1-.28-.09,11.77,11.77,0,0,1-2.76-4.58l0-.09a18.93,18.93,0,0,1-.26-10.6,7.81,7.81,0,0,1,2.42-4l.24-.2a11.68,11.68,0,0,0-1.92,4.42,18.15,18.15,0,0,0,.25,10.12l0,.09.09.29A8.53,8.53,0,0,0,45,68.3a4.29,4.29,0,0,0-1.16-.08m.43,1.13a3.1,3.1,0,0,1,.28.3,1.24,1.24,0,0,0,.61.4l.16.07a1.12,1.12,0,0,1,.55.59,1.73,1.73,0,0,0,.78.83,1.52,1.52,0,0,1,.65,1.4,2.16,2.16,0,0,0-.62-1c-.61-.44-1-.77-1.31-1s-.39-.33-.58-.47A15.68,15.68,0,0,1,43,68.75,12.36,12.36,0,0,1,40,63.84l0-.09c-1.34-4.1-.75-8.75-.28-11.15a8.1,8.1,0,0,1,2.71-4.45A11.22,11.22,0,0,1,45,46.43h0l0,0c.32-.13.68-.26,1.1-.39a15.29,15.29,0,0,1,2.38-.52c.59-.1,1.15-.19,1.72-.34a10,10,0,0,1,1-.22,3.85,3.85,0,0,0,2.83-1.69c1-1.28,2.05-2.92,1.51-4.32a3,3,0,0,1-.05-2.33c.06-.18.11-.38.17-.6,0,0,0,.08,0,.12a.23.23,0,0,0,.16.14.24.24,0,0,0,.2,0,1.58,1.58,0,0,0,0,1.36v0a6.12,6.12,0,0,1-1.44,6l-.1.12a4.44,4.44,0,0,1-3.23,1.93c-.29.06-.59.12-.93.21-.61.16-1.21.26-1.79.36a16.35,16.35,0,0,0-2.29.5,7.61,7.61,0,0,0-.75.28,9.57,9.57,0,0,0-.9.46,3.73,3.73,0,0,0-.6.37,12.55,12.55,0,0,0-1.23.91,8.09,8.09,0,0,0-2.49,4.1,19.14,19.14,0,0,0,.27,10.71l0,.09a11.77,11.77,0,0,0,2.84,4.68,4.91,4.91,0,0,1,.4.53,3.86,3.86,0,0,0,.41.53m2.13,3.19a5,5,0,0,1-.79-.48,5.72,5.72,0,0,0-1-.51,4,4,0,0,1-1-.64c-.35-.31-1.65-1.54-1.94-1.85a14.23,14.23,0,0,1-1.44-1.84l-.36-.59a9.18,9.18,0,0,1-1-3.61,15.16,15.16,0,0,1,.07-2.7,20.72,20.72,0,0,0,.66,3.55l0,.09a12.58,12.58,0,0,0,3,5.05,17.53,17.53,0,0,0,1.93,1.74c.18.13.36.28.56.45s.71.61,1.33,1.06a2.1,2.1,0,0,1,.68.81,6.48,6.48,0,0,0-.73-.53m-2,.2a2.49,2.49,0,0,1,.19,1.17,1,1,0,0,1-.26.49,2,2,0,0,0-.73-1.48,3.15,3.15,0,0,1-.82-1.15,2.1,2.1,0,0,0-.34-.55c-.17-.19-.35-.36-.53-.53l-.59-.47c-.18-.13-.36-.24-.56-.36a1.35,1.35,0,0,1-.46-.43,6.59,6.59,0,0,1-.51-1.15,8.92,8.92,0,0,0-.5-1.09L39.17,67a8.61,8.61,0,0,1-1.24-4.91l.08-.56A22.43,22.43,0,0,0,38.26,59l0-.47a19.22,19.22,0,0,0,0-2.42c0-.12,0-.23,0-.33a5.12,5.12,0,0,0-.06-.93,1,1,0,0,1,.28-.9,5.57,5.57,0,0,0,.72-.88,28.67,28.67,0,0,0-.43,6.06c0,.47-.05,1-.09,1.41a12.34,12.34,0,0,0,0,2.51,9.26,9.26,0,0,0,1,3.7,13.11,13.11,0,0,0,2.79,3.47s.64.61.78.78.59.67.64.75a2.94,2.94,0,0,1,.23.51c.08.16.15.32.22.49m-4.45-2.39a5.89,5.89,0,0,1-.29.63,4.6,4.6,0,0,1-.48.73L39,72c-.38.39-.33,1.36-.28,2.21,0,.38,0,.7,0,.93a1.57,1.57,0,0,1,0,.34,8.22,8.22,0,0,1-.44-2.92,4.25,4.25,0,0,1,.33-1,8.66,8.66,0,0,0,.57-2.26,5.77,5.77,0,0,0,0-1.86c.37.69.59,1.46.89,2.18a1.43,1.43,0,0,1,.08.22h0a1.22,1.22,0,0,1-.17.59m-2.4,2.71a5.85,5.85,0,0,1,.19-1.43,2.94,2.94,0,0,0,.13-1c0-.18,0-.34-.06-.49s0-.21,0-.3a.82.82,0,0,1,.09-.57A4,4,0,0,0,38.34,68a3.11,3.11,0,0,0-.12-1.27l-.06-.24a17.76,17.76,0,0,1-.36-2.67,10.44,10.44,0,0,0,.79,2.61,3.38,3.38,0,0,1,.32,1,5.75,5.75,0,0,1-.07,2.19,8.2,8.2,0,0,1-.48,1.79,3.88,3.88,0,0,0-.34,1.1,7.28,7.28,0,0,0,.38,2.69,8.55,8.55,0,0,1-.86-2.12m-.08-3.85a4,4,0,0,1-.49.68,3.17,3.17,0,0,1-.34.3l-.21.12-.16.07s0-.15,0-.2v-.24c0-.12,0-.25,0-.37a.73.73,0,0,1,.08-.25l.21-.41a6.56,6.56,0,0,0,.53-1.42A13,13,0,0,0,37.34,66l.06-.54c0-.16,0-.33,0-.5s0-.18,0-.27l0-.26c0-.08.05-.56.06-.64a16.41,16.41,0,0,0,.25,2.81q0,.14.06.24A2.67,2.67,0,0,1,38,67.93a3.29,3.29,0,0,1-.37,1,1.71,1.71,0,0,1-.13.23M36,69.39v0a1.37,1.37,0,0,1-.22.19,1.23,1.23,0,0,1-.25.14l-.27.14-.08,0a3.56,3.56,0,0,0-.66.43,16.18,16.18,0,0,0,1.66-3.13A40.71,40.71,0,0,0,37,62.3c0-.3.09-.61.13-.91.17-1.14.29-2.37.39-4a10.66,10.66,0,0,0-.46-3.71,5.15,5.15,0,0,0,.47.47l.13.1.11.09a.91.91,0,0,1,.23.47,3.43,3.43,0,0,1,.06.56c0,.13,0,.27,0,.4s0,.22,0,.34a18.72,18.72,0,0,1,0,2.39L38,59a22.32,22.32,0,0,1-.25,2.52l-.09.56a7.88,7.88,0,0,1-.2,1,8.15,8.15,0,0,0-.24,1.34l0,.25c0,.16,0,.32,0,.48s0,.34,0,.52a9.63,9.63,0,0,1-.66,2.9,6.53,6.53,0,0,1-.55.85m-2.16,1.4a5.44,5.44,0,0,0-.27.54,4.78,4.78,0,0,0-.33.9v0c0,.16-.07.32-.1.48a2.63,2.63,0,0,1-.15.63,3.55,3.55,0,0,1-.49.79,6.44,6.44,0,0,1-.47.55.86.86,0,0,1,.24-.6c.48-.37,0-1.6-.16-2,0-.08.17-.31.24-.38a4.27,4.27,0,0,0,.91-1.36c.09-.18.17-.36.25-.54.41-.92.83-1.87,1.07-2.27a10.17,10.17,0,0,0,1.13-3.37c.14-.88.26-1.66.36-2.39l.09-.56c.19-1.29.24-2.62.32-4a8.18,8.18,0,0,0-.09-1.78,10.52,10.52,0,0,0-.74-2.59c-.1-.23-.2-.45-.29-.68a6.94,6.94,0,0,1-.38-3.85,6.19,6.19,0,0,1,.7-2,9.72,9.72,0,0,1,1.55-2l.51.46a6.31,6.31,0,0,0-2.15,4.09c0,.11,0,.21,0,.32a7,7,0,0,0,.67,3.11,11.1,11.1,0,0,1,.45,1.26A11.35,11.35,0,0,1,37,55a9.27,9.27,0,0,1,.14,1.18c0,.39,0,.78,0,1.17-.1,1.61-.21,2.84-.38,4,0,.31-.09.61-.13.92a41.16,41.16,0,0,1-.87,4.86,7.91,7.91,0,0,1-.82,1.74l-1.15,1.94m-2,1.26c-.09.11-.18.22-.26.34a2.74,2.74,0,0,1-.67.77,1.26,1.26,0,0,1-.7.13,1.79,1.79,0,0,0-.95.22,3.57,3.57,0,0,0-.77.81,2.26,2.26,0,0,1,1.08-1.18,1.33,1.33,0,0,1,.43-.13,1.9,1.9,0,0,0,.88-.38,12.92,12.92,0,0,0,1.88-3.32c.44-1,.86-1.93,1.12-2.37a8.64,8.64,0,0,0,1-2.9c.14-.86.25-1.64.36-2.38l.08-.57a20.33,20.33,0,0,0,.24-3.62,14.38,14.38,0,0,0-.83-4.65,12,12,0,0,1-.5-1.54A8.83,8.83,0,0,1,34,48a8.7,8.7,0,0,1,2.17-4.47l.82.68a7,7,0,0,0-2.26,4,7.19,7.19,0,0,0,.41,4.13c.11.25.2.49.3.74A9.54,9.54,0,0,1,36,54.71a8,8,0,0,1,.25,1.61v.21a30.38,30.38,0,0,1-.33,4.67l-.09.57c-.1.72-.22,1.5-.36,2.38a10.11,10.11,0,0,1-1.11,3.31c-.24.4-.67,1.36-1.08,2.28A7.41,7.41,0,0,1,32.6,71c-.25.36-.56.69-.84,1m-3.52,2.19a2.16,2.16,0,0,1,1.21-1.48l.26-.18.09-.06c.43-.29,1-.69,1.07-1.25a7.5,7.5,0,0,1,.7-2.19,32.42,32.42,0,0,0,1.9-3.55,15.75,15.75,0,0,0,1-6.56c0-3.83-.46-4.73-.65-5.33a1.72,1.72,0,0,1-.07-.21c0-.18-.16-.49-.31-.88A20.24,20.24,0,0,1,32.41,49a10.09,10.09,0,0,1,.33-3.23,11.09,11.09,0,0,1,1.88-3.44l.55.42a8.69,8.69,0,0,0-2.12,5.66,10.08,10.08,0,0,0,1,3.71A14.3,14.3,0,0,1,35.14,56,18.24,18.24,0,0,1,35,61.06l-.08.57c-.11.74-.22,1.52-.36,2.38a8.51,8.51,0,0,1-.94,2.83c-.27.45-.69,1.39-1.13,2.39a14.32,14.32,0,0,1-1.83,3.25,1.63,1.63,0,0,1-.8.34,1.65,1.65,0,0,0-.48.15,2.7,2.7,0,0,0-1.16,1.27m2.57-5.9a11.78,11.78,0,0,0-1.46,1h0l-.68.56a2,2,0,0,0-.53.62,1.07,1.07,0,0,1-.76.56c-.48.12-1-.09-1.42.26a6.18,6.18,0,0,1-1.41.67,9.27,9.27,0,0,1,1.1-.75,4,4,0,0,1,.9-.46,2.08,2.08,0,0,0,.79-.48c.25-.23.46-.5.69-.74a9.81,9.81,0,0,1,2.19-1.66l.39-.2a3.5,3.5,0,0,0,.92-.61,5.37,5.37,0,0,0,1.08-1.71,19.2,19.2,0,0,0,1.22-3.25c0-.16.18-.83.21-1a12.28,12.28,0,0,1-.91,4.25c-.1.21-.2.43-.31.64s-.18.38-.28.57-.17.33-.26.5-.17.31-.25.46l-.11.18a1.2,1.2,0,0,1-.21.17l-.89.45m-5.27,2.47a1.26,1.26,0,0,0,.71-.55l0-.07a1.33,1.33,0,0,1,.49-.51,1.9,1.9,0,0,0,.4-.3c.35-.36.73-.69,1-.94a5.45,5.45,0,0,1,.87-.56,7.35,7.35,0,0,0,1.22-.81,7.38,7.38,0,0,0,1.63-2.46,15.43,15.43,0,0,0,1.44-6c.07-2.55-.47-6.07-2.2-8.29a9.85,9.85,0,0,0-3.21-2.35l-.15-.08a21.79,21.79,0,0,0-3.66-1.61,6,6,0,0,1-3.63-3.08l.08.09.07.09h0l.37.45a5.76,5.76,0,0,0,1.29,1.27,3.87,3.87,0,0,0,1.22.56l.61.14a8.12,8.12,0,0,1,1,.25,15,15,0,0,1,1.9.8l.52.26c.24.12.62.35,1.05.53a12.5,12.5,0,0,1,1.78.86,7.18,7.18,0,0,1,1.37,1.3,8.27,8.27,0,0,1,.74,1.14c.21.64.44,1.27.63,1.77s.26.69.3.86,0,.14.07.22c.17.54.58,1.44.63,5.21A8.66,8.66,0,0,1,34,60.41c-.07.48-.19,1-.3,1.42l-.06.23a18.78,18.78,0,0,1-1.2,3.22,5.53,5.53,0,0,1-1,1.66,3.41,3.41,0,0,1-.88.57,3.72,3.72,0,0,0-.39.21,9.85,9.85,0,0,0-2.23,1.67c-.23.24-.43.5-.67.73a2,2,0,0,1-.75.47,3.15,3.15,0,0,0-.47.2,8.31,8.31,0,0,0-1.23.79,2.16,2.16,0,0,0-.33.27,3.86,3.86,0,0,1,1.1-1m-1.12-.71a2.57,2.57,0,0,0-1.49.79A1.73,1.73,0,0,1,24,69.66l.41-.1a5.13,5.13,0,0,0,2.13-.82c.3-.3.63-.61,1.08-1a6,6,0,0,1,1-.65,6.55,6.55,0,0,0,1.08-.72,6.29,6.29,0,0,0,1.4-2.16,14.44,14.44,0,0,0,1.36-5.67,12.45,12.45,0,0,0-2-7.7,9.31,9.31,0,0,0-2.93-2.1l-.15-.09a22.07,22.07,0,0,0-3.52-1.55C21.48,46.32,20,45,19.47,43a6.26,6.26,0,0,1,0-4.54c0-.17.11-.34.16-.53a3.68,3.68,0,0,0-.23-2l0-.11.22.21.1.07s.15,0,.16,0a5.17,5.17,0,0,1-.15,2.54,5.49,5.49,0,0,0,.37,4.16,6.43,6.43,0,0,0,4,3.59A21.72,21.72,0,0,1,27.7,48l.15.08A10,10,0,0,1,31,50.39c1.7,2.19,2.23,5.66,2.16,8.17a15.08,15.08,0,0,1-1.43,6,7,7,0,0,1-1.57,2.39,6.68,6.68,0,0,1-1.2.79,6.09,6.09,0,0,0-.9.59,13.72,13.72,0,0,0-1,1,3.56,3.56,0,0,1-1.23.61,5.42,5.42,0,0,1-1.38.24m-6.14-35a.76.76,0,0,1-.55-.48s0,0,.08-.06l.05,0,.5-.17.17.16c.21.19.41.4.6.61l.26.3a1.77,1.77,0,0,1,.26.35,2.92,2.92,0,0,0-.32-.28,2,2,0,0,0-.32-.18c-.24-.09-.49-.14-.73-.23M17,33.27a10.83,10.83,0,0,1,1.21.89l-.13,0A2.7,2.7,0,0,1,17,33.27m.31-.68c-.1-.11-.26-.3-.42-.51A10.88,10.88,0,0,1,19.1,34l.06.07c.09.27.17.53.24.75s.13.39.19.55A9.7,9.7,0,0,0,16.9,33l.53-.24Zm-1-1.76a.5.5,0,0,1,0-.22,11.29,11.29,0,0,1,2.44,2l0,0,.11.39c.05.19.11.38.16.56a11.9,11.9,0,0,0-2.45-2,1.67,1.67,0,0,1-.32-.84m.72-.26v-.19a1.64,1.64,0,0,1,0-.49,9.9,9.9,0,0,1,1.36,1.29l0,0c0,.18.09.35.14.53s.09.34.13.52a11.44,11.44,0,0,0-2.05-1.7ZM17.22,29a8.41,8.41,0,0,1,.79.79l0,0,0,.14c0,.17.08.35.13.55s.05.2.07.31A10.31,10.31,0,0,0,17,29.67a2,2,0,0,1,.23-.68m.55-.46h0c1-.22,1.65,1.16,1.66,1.18l.08.16.55-.32h0a.39.39,0,0,1,.18.18,3.89,3.89,0,0,1,0,2l0,.22h.61l0,0,0,.1a2.74,2.74,0,0,1-.51,1.43l-.23.34.4-.09.24,0h0c.08,0,.08,0,.09,0,.12.37-.28.77-.6,1.1a3.26,3.26,0,0,0-.32.34,3.06,3.06,0,0,0-.29.6h0c0-.2-.1-.53-.19-.95s-.17-.72-.27-1.14c-.05-.21-.1-.42-.16-.64L19,32.34l-.18-.66c-.06-.22-.13-.43-.19-.64l-.18-.59c-.06-.19-.12-.36-.17-.53a6.84,6.84,0,0,0-.35-1c-.05,0,0,.17.08.54-.19-.21-.4-.41-.62-.61a1,1,0,0,1,.43-.3m2.45,8a3.47,3.47,0,0,1,0,2.39c-.57,1.82.32,2.87,1.11,3.8.14.17.28.33.41.5a3.87,3.87,0,0,0,2.83,1.69,10,10,0,0,1,1,.22c.57.15,1.13.24,1.72.34a15.65,15.65,0,0,1,2.39.52,7.13,7.13,0,0,1,2.43,1.15h0c0,.24-.06.49-.08.74A5.05,5.05,0,0,0,31,47.27a15.15,15.15,0,0,0-1.52-.58,16.35,16.35,0,0,0-2.29-.5c-.58-.1-1.18-.2-1.78-.36-.35-.09-.65-.15-.94-.21a4.44,4.44,0,0,1-3.23-1.93c-.12-.16-.25-.3-.38-.46v0l-.08-.08c-.12-.14-.23-.29-.34-.44a3.71,3.71,0,0,1-.33-.54,3.31,3.31,0,0,1-.15-.33l-.09-.35a4.77,4.77,0,0,1-.1-.66,5.36,5.36,0,0,1,.05-1.2,6.66,6.66,0,0,1,.17-.89A4.76,4.76,0,0,0,20,36s0-.09,0-.13c.05.25.11.48.16.68M32.27,50.16c-.12-.17-.24-.35-.37-.51a7.27,7.27,0,0,0-1.41-1.33,12.92,12.92,0,0,0-1.82-.89c-.42-.18-.79-.39-1-.51A12.07,12.07,0,0,0,26,46.19l1.07.19a15.72,15.72,0,0,1,2.27.49c.48.16,1,.35,1.49.58a4.71,4.71,0,0,1,1.12.7,5.77,5.77,0,0,0,0,.94,8,8,0,0,0,.24,1.07m1.62,1a8.52,8.52,0,0,1-.65-2.76,8.54,8.54,0,0,1,2.08-5.54l.68.53,0,0a8.69,8.69,0,0,0-1.8,2.94,13.2,13.2,0,0,0-.4,1.62l0,.16a11.42,11.42,0,0,0,.07,3m6-2a5.86,5.86,0,0,1-2,4.72,5.84,5.84,0,0,1-2-4.72v-.3a6,6,0,0,1,2-3.81,6,6,0,0,1,2,3.81c0,.1,0,.2,0,.3M29.8,37.92A5.93,5.93,0,0,1,28,34.53a2.79,2.79,0,0,0-.71-1.65c-1.57-1.63-1.55-5.16-1.54-7.06,0-.15,0-.3,0-.43a3.75,3.75,0,0,0-1.07-2.45c-.46-.57-.71-.92-.56-1.34s-.24-.87-.62-1.3l-.09-.09a1.66,1.66,0,0,1,.21.06h.12a15.83,15.83,0,0,1,1.57,2.32c.14.25.28.52.42.8a6.35,6.35,0,0,1,.69,2v.44c0,.1,0,.21,0,.33v.05c0,1.76.07,4.85,1.34,6.16a3.5,3.5,0,0,1,.9,2,5.09,5.09,0,0,0,1.62,3,38.74,38.74,0,0,0,4.77,4l.36.27c.81.59,1.65,1.21,2.41,1.89,1.39,1.24,3,3.21,3.07,5.66a7.71,7.71,0,0,0-.63.94,6.87,6.87,0,0,0,.05-.93v-.32a6.47,6.47,0,0,0-2.26-4.2h0c-.51-.5-1.1-1-1.61-1.38l-.23-.17c-.39-.3-1-.77-1.6-1.22h0a38.76,38.76,0,0,1-4.78-4m-7.28-18c-.45.1-1,.23-1.26-.07,0,0,0,0,0-.09h0l.4-.41a7.47,7.47,0,0,1,1.4.5H23l-.45.09M20,19a10.92,10.92,0,0,1,1.48.23h-.1A3.27,3.27,0,0,1,20,19m0-.75a6.19,6.19,0,0,1-.61-.27,10.7,10.7,0,0,1,2.87.68l.09,0,.55.56.42.4a9.61,9.61,0,0,0-3.46-.86l.35-.47Zm-1.71-1.1a.48.48,0,0,1-.06-.21,11.5,11.5,0,0,1,3.1.69h0l.27.3.4.42a12,12,0,0,0-3.07-.61,1.82,1.82,0,0,1-.67-.6m0-2.09a8.23,8.23,0,0,1,1.06.35h0l.1.12.35.42.21.25a10.84,10.84,0,0,0-1.66-.44,1.83,1.83,0,0,1-.1-.71m.41,1.37a3.09,3.09,0,0,1-.23-.44,9.47,9.47,0,0,1,1.8.51l.06,0c.11.14.23.27.36.41l.35.4a11,11,0,0,0-2.59-.56l.35-.19Zm-.13-2,0,0c.77-.65,2,.27,2,.28l.15.12.35-.55s.1,0,.26.07a3.94,3.94,0,0,1,1,1.78l.06.22.5-.32h0s0,0,.11.09a2.77,2.77,0,0,1,.2,1.51l-.05.4.32-.26.2-.16v0c.07-.05.08,0,.09,0,.28.28.11.82,0,1.25a3.85,3.85,0,0,0-.12.45,3.06,3.06,0,0,0,0,.67h0c-.12-.15-.32-.42-.6-.75s-.47-.57-.76-.89l-.43-.5-.46-.5c-.16-.17-.31-.34-.47-.5s-.3-.33-.45-.48L20,15.83l-.39-.39c-.49-.48-.83-.79-.83-.79s.13.19.37.48c-.27-.09-.54-.18-.83-.25a.81.81,0,0,1,.25-.46M41.82,48.18c-.27.26-.52.53-.75.8A8.46,8.46,0,0,0,38,43.42c-.77-.69-1.61-1.31-2.42-1.91l-.36-.26a38.54,38.54,0,0,1-4.75-4,4.9,4.9,0,0,1-1.57-2.92,3.68,3.68,0,0,0-1-2.12c-.84-.87-1.17-2.79-1.27-4.34A11.2,11.2,0,0,0,28,31a10.78,10.78,0,0,1,1.45,3.18A5.84,5.84,0,0,0,31,36.6c.08.1.17.19.25.28a19.89,19.89,0,0,0,4.08,3.26l.5.33c2.36,1.57,4.67,3.39,5.57,6a11.34,11.34,0,0,1,.36,1.5,1.57,1.57,0,0,0,0,.23m-.22-1.79c-.92-2.65-3.26-4.49-5.64-6.08l-.5-.33a19.85,19.85,0,0,1-4.05-3.22,3.33,3.33,0,0,0-.25-.28,6,6,0,0,1-1.52-2.35,11,11,0,0,0-1.47-3.24,9,9,0,0,1-1.55-4.68c0-.14,0-.27,0-.38v-.5a2.46,2.46,0,0,1,.14.47c.67,4.07,4.25,9,6.05,11a16.4,16.4,0,0,0,3.4,2.6l.47.3a21.47,21.47,0,0,1,2,1.35A11.37,11.37,0,0,1,41,43.5,10.05,10.05,0,0,1,42,45.39a10.42,10.42,0,0,1,.54,1.91l0,.21-.41.35L42,48l0-.11a9.73,9.73,0,0,0-.36-1.53m-14-20.73c.52,3.72,3.9,8.39,5.82,10.57a16.19,16.19,0,0,0,3.22,2.44l.65.42.42.28.4.23.76.55a14.2,14.2,0,0,1,1.52,1.27l.51.54c.22.26.42.55.62.83a10.55,10.55,0,0,1,.59.89,11.71,11.71,0,0,1,.78,1.59,8.92,8.92,0,0,1,.37,1.14,3.86,3.86,0,0,1,.1.49h0l-.62.47,0-.12a11.09,11.09,0,0,0-.55-1.95,10.39,10.39,0,0,0-1.07-1.92,12,12,0,0,0-2.36-2.45c-.63-.5-1.32-.94-2-1.37l-.47-.29A16.36,16.36,0,0,1,33,36.71c-1.78-2-5.33-6.92-6-10.95a12.73,12.73,0,0,0-1-2.32c-.18-.38-.39-.79-.65-1.23a5.6,5.6,0,0,0-.43-.69c-.29-.44-.62-.9-1-1.35a.33.33,0,0,0,0-.15c0-.05,0-.1,0-.16,1.31,1,3.37,3.46,3.7,5.8m11.55,13a16,16,0,0,0,3.23-2.44c1.91-2.18,5.3-6.85,5.82-10.57.32-2.3,2.31-4.7,3.62-5.74,0,0,0,.07,0,.1a.22.22,0,0,0,0,.16,14.9,14.9,0,0,0-1.22,1.62,11.74,11.74,0,0,0-1.13,2.06,6,6,0,0,0-.63,1.91c-.55,3.88-4,8.7-6,10.94a16.17,16.17,0,0,1-3.37,2.57l-.66.43-.62-.43.93-.61M52,17.53s0,0,.09,0l0,0,.2.16.31.26,0-.4a2.77,2.77,0,0,1,.2-1.51c0-.07.09-.09.1-.09h0l.5.32.06-.22a3.76,3.76,0,0,1,1-1.78c.16-.1.24-.09.26-.07l.35.55.15-.12s1.23-.93,2-.28l0,0a1,1,0,0,1,.25.46c-.29.07-.57.16-.83.25l.37-.48s-.34.31-.83.79l-.39.39-.43.45-.46.48-.46.5-.46.5c-.15.17-.29.34-.44.5l-.76.89-.6.75h0a3.85,3.85,0,0,0,0-.67,3.85,3.85,0,0,0-.12-.45c-.14-.43-.31-1,0-1.25m5.36-1.75a11.16,11.16,0,0,0-1.66.44l.21-.25.36-.42.09-.12h0a8.38,8.38,0,0,1,1.07-.35,1.83,1.83,0,0,1-.11.71m0,1a11,11,0,0,0-2.6.56l.36-.4.36-.41.06,0A9.16,9.16,0,0,1,57.31,16a3.81,3.81,0,0,1-.22.44l-.1.15Zm.24.17a.48.48,0,0,1-.06.21,1.82,1.82,0,0,1-.67.6,11.93,11.93,0,0,0-3.07.61l.4-.42.27-.3h0a11.42,11.42,0,0,1,3.1-.69m-1.77,1.31-.21.07.35.47a9.61,9.61,0,0,0-3.46.86l.41-.4.56-.56.08,0A10.87,10.87,0,0,1,56.42,18c-.25.12-.47.22-.61.27m-1.41,1h-.11A11.17,11.17,0,0,1,55.77,19a3.21,3.21,0,0,1-1.37.23m.1.57c-.25.3-.8.17-1.25.07l-.45-.09h-.14a7.36,7.36,0,0,1,1.39-.5l.4.41h0c.07.06,0,.08,0,.09M39.9,40.31l-.14.09c-.24-.2-.49-.39-.74-.57l.61-.39a16.4,16.4,0,0,0,3.4-2.6c2-2.25,5.49-7.12,6-11.05,0-.11,0-.21.05-.33a9.64,9.64,0,0,1-1.32,5.42A9.22,9.22,0,0,0,46.24,34l0,.1a7.5,7.5,0,0,1-1.7,2.56l-.07.08a19.32,19.32,0,0,1-4,3.22l-.49.33m.1.16.5-.33a19.89,19.89,0,0,0,4.08-3.26l.07-.07a7.72,7.72,0,0,0,1.75-2.63l0-.1A8.81,8.81,0,0,1,48,31a8.08,8.08,0,0,0,1.25-3.58c-.06,1.7-.3,3.82-1.27,4.82a3.77,3.77,0,0,0-1,2.12,4.87,4.87,0,0,1-1.56,2.92,37.47,37.47,0,0,1-4.73,3.95c-.25-.24-.51-.48-.77-.7l.08-.06M51.71,21.6c.14.42-.11.77-.56,1.34a3.75,3.75,0,0,0-1.07,2.45v.43c0,1.9,0,5.43-1.53,7.06a2.81,2.81,0,0,0-.72,1.65A5.81,5.81,0,0,1,46,37.92a38.28,38.28,0,0,1-4.74,4l-.12-.15c-.11-.13-.23-.25-.34-.37a38.11,38.11,0,0,0,4.73-4,5,5,0,0,0,1.61-3,3.58,3.58,0,0,1,.91-2c1.36-1.41,1.34-4.88,1.33-6.54v-.44a3.58,3.58,0,0,1,.29-1.45,12.52,12.52,0,0,1,1.11-2A14.18,14.18,0,0,1,52,20.28h.09l.31-.09-.11.12c-.38.43-.77.86-.62,1.3m3.66,13.3c-.33-.33-.73-.73-.61-1.1,0,0,0,0,.09,0h0l.23.05.4.08-.23-.34a2.67,2.67,0,0,1-.51-1.42l0-.1s0,0,0,0h.61l-.05-.22a3.89,3.89,0,0,1,0-2,.39.39,0,0,1,.18-.18h0l.55.32.08-.16s.67-1.4,1.66-1.18h0a1,1,0,0,1,.43.3c-.22.2-.43.4-.62.61.07-.37.13-.53.08-.54a6.84,6.84,0,0,0-.35,1l-.17.53-.18.59-.18.64c-.07.22-.13.44-.19.66l-.18.66c-.06.21-.11.43-.16.64l-.27,1.14c-.09.42-.16.75-.19.94h0a3.06,3.06,0,0,0-.29-.6c-.08-.1-.2-.21-.31-.33m3.37-5.13a10.36,10.36,0,0,0-1.28,1.16c0-.11,0-.21.07-.32s.09-.37.13-.54l0-.14,0,0a8.48,8.48,0,0,1,.79-.8,2.19,2.19,0,0,1,.23.68m0,.72,0,.19h.39a11.84,11.84,0,0,0-2,1.69c0-.17.09-.34.14-.51s.09-.36.13-.53l0,0A10.49,10.49,0,0,1,58.76,30a2.7,2.7,0,0,1,0,.49m.67.23a.81.81,0,0,1,0,.22,1.74,1.74,0,0,1-.31.84,11.4,11.4,0,0,0-2.46,2c0-.19.11-.37.16-.56s.08-.26.11-.39l0,0a11.36,11.36,0,0,1,2.45-2.05m-1,2-.16.17.53.24a9.7,9.7,0,0,0-2.69,2.37c.06-.16.12-.34.19-.55s.15-.48.24-.75l.06-.07a10.59,10.59,0,0,1,2.25-1.92c-.16.21-.32.4-.42.51m-.77,1.53-.13,0a9.71,9.71,0,0,1,1.21-.89,2.64,2.64,0,0,1-1.08.85m.32.45a.82.82,0,0,1-.56.48c-.24.09-.49.13-.73.23a2,2,0,0,0-.32.18,2.14,2.14,0,0,0-.32.28,2.27,2.27,0,0,1,.26-.35l.26-.3c.19-.21.4-.42.6-.61l.18-.17.49.18.06,0c.09,0,.08.05.08.06m-1.59,2.66a1.77,1.77,0,0,1,.22-1.5s0-.07,0-.11l.32-.09c.5-.13,1.19-.3,1.33-.88a.36.36,0,0,0-.19-.42,2.42,2.42,0,0,0,1-1,.5.5,0,0,0,0-.4.32.32,0,0,0-.19-.16l-.11-.06a3.6,3.6,0,0,0,1-1.82c0-.44-.23-.55-.32-.57h-.38c0-.47,0-1.69-1-2h0c-1-.23-1.73.79-2,1.2l-.26-.15-.07,0c-.1,0-.34,0-.57.33A3.63,3.63,0,0,0,55,31.71h-.12a.34.34,0,0,0-.24.05.46.46,0,0,0-.21.34,2.34,2.34,0,0,0,.37,1.35.37.37,0,0,0-.39.26c-.18.57.32,1.07.69,1.43.11.12.21.22.28.31h0a.49.49,0,0,0,0,.11,5.75,5.75,0,0,1-.23.93,3.3,3.3,0,0,0,.07,2.58c.47,1.22-.54,2.75-1.46,3.94a3.5,3.5,0,0,1-2.6,1.55c-.3.06-.63.12-1,.23-.55.14-1.1.23-1.68.33a18,18,0,0,0-2.44.53c-.33.11-.63.21-.9.32L45,46a6.13,6.13,0,0,0-1.26.64,10.77,10.77,0,0,0-2.17-4.48,37.51,37.51,0,0,0,4.75-4,6.12,6.12,0,0,0,1.9-3.58,2.48,2.48,0,0,1,.62-1.46c1.67-1.74,1.65-5.37,1.64-7.32,0-.16,0-.3,0-.43a3.4,3.4,0,0,1,1-2.21c.43-.55.84-1.06.62-1.71-.08-.22.25-.59.54-.91l.35-.4.22.05c.5.11,1.19.27,1.58-.18a.36.36,0,0,0,0-.46,2.34,2.34,0,0,0,1.34-.4.48.48,0,0,0,.18-.35.31.31,0,0,0-.09-.23l-.07-.1a3.68,3.68,0,0,0,1.68-1.18c.19-.4,0-.59,0-.66l-.06,0-.27-.15c.23-.41.73-1.53,0-2.29l0,0c-.81-.68-1.89-.09-2.28.16L55,14.06a.15.15,0,0,0,0-.06c-.08-.07-.29-.2-.66,0a3.57,3.57,0,0,0-1,1.77l-.11-.07a.34.34,0,0,0-.24-.07.51.51,0,0,0-.34.21,2.4,2.4,0,0,0-.29,1.37.35.35,0,0,0-.46.05c-.41.42-.2,1.1,0,1.59,0,.16.09.3.11.41s0,.08,0,.14a10.69,10.69,0,0,0-4,6.18,16.2,16.2,0,0,1-2.32,5.69A34.15,34.15,0,0,1,42.11,36,15.57,15.57,0,0,1,39,38.35l-1,.68-1.05-.68A15.57,15.57,0,0,1,33.73,36a34.15,34.15,0,0,1-3.41-4.67A16.2,16.2,0,0,1,28,25.61a10.69,10.69,0,0,0-4.1-6.23.22.22,0,0,1,0-.09,3.72,3.72,0,0,1,.11-.41c.16-.49.37-1.17-.05-1.59a.35.35,0,0,0-.46-.05,2.32,2.32,0,0,0-.29-1.37.47.47,0,0,0-.34-.21.33.33,0,0,0-.23.07l-.11.07a3.64,3.64,0,0,0-1-1.77c-.38-.23-.59-.1-.66,0a.22.22,0,0,0-.05.06l-.16.25c-.39-.25-1.47-.84-2.28-.16l0,0c-.74.76-.24,1.88,0,2.29l-.26.15-.06,0c-.08.07-.23.26,0,.66a3.63,3.63,0,0,0,1.68,1.18l-.07.1a.31.31,0,0,0-.09.23.48.48,0,0,0,.18.35,2.32,2.32,0,0,0,1.34.4A.36.36,0,0,0,21,20c.38.45,1.08.29,1.58.18l.28-.06.36.41c.29.32.61.69.54.91-.23.65.19,1.16.62,1.71a3.4,3.4,0,0,1,1,2.21v.43c0,1.95,0,5.58,1.64,7.32a2.55,2.55,0,0,1,.62,1.46,6.15,6.15,0,0,0,1.89,3.58,38.34,38.34,0,0,0,4.76,4A10.71,10.71,0,0,0,32.1,46.7a8.4,8.4,0,0,0-2.36-1.06,18.18,18.18,0,0,0-2.43-.53c-.59-.1-1.14-.19-1.69-.33-.37-.11-.71-.17-1-.23A3.51,3.51,0,0,1,22,43c-.13-.17-.28-.34-.42-.51-.76-.89-1.54-1.81-1-3.44a3.82,3.82,0,0,0,0-2.6,8.7,8.7,0,0,1-.2-.9.53.53,0,0,0-.09-.19s0,0,0,0a3.58,3.58,0,0,1,.28-.3c.37-.37.87-.87.69-1.44a.37.37,0,0,0-.38-.26A2.41,2.41,0,0,0,21.27,32a.48.48,0,0,0-.21-.34.33.33,0,0,0-.24-.05l-.12,0a3.62,3.62,0,0,0-.13-2.05c-.23-.38-.47-.36-.57-.33l-.07,0-.26.16c-.23-.42-.92-1.44-2-1.21h0c-1,.33-1.06,1.56-1.05,2h-.38c-.09,0-.31.13-.32.57a3.6,3.6,0,0,0,1,1.82l-.11.06a.35.35,0,0,0-.19.16.55.55,0,0,0,0,.4,2.42,2.42,0,0,0,1,1,.36.36,0,0,0-.19.42c.14.58.83.76,1.33.89l.2.05c0,.16.09.32.14.49a3.35,3.35,0,0,1,.23,1.77c-.05.19-.11.36-.16.53a6.62,6.62,0,0,0,0,4.76c.6,2.09,2.13,3.5,4.66,4.33A20.84,20.84,0,0,1,27.21,49l.16.08a9.11,9.11,0,0,1,2.81,2c1.52,2,2,5.24,1.92,7.45a13.94,13.94,0,0,1-1.32,5.52,6,6,0,0,1-1.3,2,5.79,5.79,0,0,1-1,.67,6.79,6.79,0,0,0-1.07.7,14.75,14.75,0,0,0-1.1,1,5.54,5.54,0,0,1-1.95.7l-.42.11c-1.37.39-1.48,2.11-1.49,2.18a.21.21,0,0,0,.12.19.19.19,0,0,0,.22-.06c.27-.31,1.09-1.11,1.65-1.11a5.28,5.28,0,0,0,1.31-.21,1.18,1.18,0,0,1-.32.17c-.68.24-1.42,1.62-1.51,1.78a.22.22,0,0,0,0,.21.2.2,0,0,0,.21.06,8,8,0,0,0,2.06-.91,1.25,1.25,0,0,1,.72-.14,1.63,1.63,0,0,0,1.21-.35,4.83,4.83,0,0,0,.43-.58,2.94,2.94,0,0,1,.57-.55,11.38,11.38,0,0,1,1.67-1.17l.34-.18c.06,0,.29-.11.32-.17l-.23.45v0a7.75,7.75,0,0,0-.73,2.3c0,.39-.54.73-.9,1l-.1.07-.25.17a2.21,2.21,0,0,0-1.16,1.32,5.94,5.94,0,0,0-.17,1.52.18.18,0,0,0,.15.19.2.2,0,0,0,.22-.11,3.54,3.54,0,0,1,1.06-1.54,1.51,1.51,0,0,1,.79-.15,1.61,1.61,0,0,0,.91-.19,2.89,2.89,0,0,0,.79-.89c.19.56.29,1.12.14,1.23-.49.39-.4,1.28-.39,1.38a.18.18,0,0,0,.13.15.17.17,0,0,0,.19,0,7.42,7.42,0,0,0,.84-.91,4.14,4.14,0,0,0,.54-.87,2.88,2.88,0,0,0,.18-.73c0-.07,0-.13,0-.2l.06-.28a3.86,3.86,0,0,1,.37-.81,3.57,3.57,0,0,1,1.36-1.26L35.9,70c0,.16-.06.45-.08.59,0,.32-.08.45.08.52a.21.21,0,0,0,.25-.07,1.31,1.31,0,0,1,.52-.41,1.25,1.25,0,0,0,.52-.39l.19-.24a2,2,0,0,1,0,.26c0,.14,0,.31.06.5a3.61,3.61,0,0,1-.12.82,6.8,6.8,0,0,0-.21,1.52,9.88,9.88,0,0,0,1.13,2.65.52.52,0,0,0,.32.26l.1,0a.2.2,0,0,0,.13,0c.13-.08.17-.23.25-.8a5.93,5.93,0,0,0,0-1c0-.7-.09-1.65.17-1.93a5.63,5.63,0,0,0,1.21-2.12,6,6,0,0,1,2,1.81,3.45,3.45,0,0,0,.9,1.28,1.62,1.62,0,0,1,.61,1.6.21.21,0,0,0,.18.23h0c.28,0,.78-.72.83-1a3.64,3.64,0,0,0-.48-2l-.1-.22a3.82,3.82,0,0,1,1,.6,4.83,4.83,0,0,0,.87.53,1.89,1.89,0,0,1,1,1.12.16.16,0,0,0,.18.14.2.2,0,0,0,.19-.14c0-.09.48-2.17-.76-2.82a1.36,1.36,0,0,1-.62-.67,1.47,1.47,0,0,0-.73-.76l-.16-.07c-.35-.15-.35-.15-.48-.31l-.29-.31a4.63,4.63,0,0,1-.4-.48,2.64,2.64,0,0,1,1.51.4,4.92,4.92,0,0,0,.93.53,1.53,1.53,0,0,1,.66.44c.18.24.34.16.38.13.25-.18,0-1-.19-1.44h.07a3.31,3.31,0,0,1,1,.3,3.73,3.73,0,0,0,1.05.36l.11,0a2.31,2.31,0,0,1,2,1.19c0,.08.15.33.37.29s.32-.07.38-1.12a2.3,2.3,0,0,1,.94.16.3.3,0,0,0,.3,0,.23.23,0,0,0,.09-.21,3.22,3.22,0,0,0-1.6-1.36c-.45-.17-.93-.33-1.39-.48a11.55,11.55,0,0,1-3.54-1.63,8.46,8.46,0,0,1-2.75-4.05A14.72,14.72,0,0,1,44.33,54a7,7,0,0,1,1.41-3.07,13.18,13.18,0,0,1,3-2l.12-.07a20.4,20.4,0,0,1,3.18-1.35c2.48-.83,4-2.24,4.58-4.3.72-2.48.65-4.06-.25-5.8"/><path class="cls-1" d="M39.91,30.14a11.66,11.66,0,0,0-1.85,2.54c0-.19,0-.39,0-.58v-.43a11.4,11.4,0,0,1,1.82-2.62.45.45,0,0,1,.1.2,1.8,1.8,0,0,1-.09.89m0,1.38a9.68,9.68,0,0,0-2,3c0-.16,0-.35,0-.57s0-.51,0-.79l0-.08a10.77,10.77,0,0,1,1.67-2.45c-.1.25-.2.47-.27.61l-.11.2Zm-.8,1.38L39,33A10.78,10.78,0,0,1,40,31.79a2.76,2.76,0,0,1-.82,1.11m0,1c-.2.15-.44.25-.64.41a1.66,1.66,0,0,0-.27.26,2.64,2.64,0,0,0-.23.35,2.05,2.05,0,0,1,.16-.41,3.78,3.78,0,0,1,.17-.35q.19-.39.42-.75l.13-.2.52,0h.06c.09,0,.09,0,.09,0a.81.81,0,0,1-.41.61m-1.23-6.05a8.06,8.06,0,0,0-.06,1.08c0,.17,0,.36,0,.56s0,.4,0,.62,0,.43,0,.66,0,.45,0,.68,0,.46,0,.69,0,.44,0,.66c0,.43,0,.83,0,1.17s0,.77.06,1h0a2.92,2.92,0,0,0-.44-.5,3.33,3.33,0,0,0-.39-.24c-.39-.23-.89-.51-.87-.9,0,0,0,0,.09,0h.27l.41,0-.3-.27c-.23-.21-.84-.83-.87-1.25v-.1l0,0h.37l.06,0h.17l-.11-.21a3.81,3.81,0,0,1-.49-2c0-.15.1-.21.13-.22s0,0,0,0l.62.17,0-.18s.28-1.53,1.29-1.58h0a1,1,0,0,1,.49.17c-.16.25-.31.51-.44.76,0-.38,0-.55-.07-.55m1.06.51a11.76,11.76,0,0,0-.93,1.45c0-.11,0-.22,0-.32s0-.39,0-.56,0-.1,0-.15l0,0a10.88,10.88,0,0,1,.55-1,1.8,1.8,0,0,1,.4.6m.22.69,0,.18.38-.1a12.08,12.08,0,0,0-1.54,2.17v-.53c0-.19,0-.37,0-.54l0-.06a9.58,9.58,0,0,1,1-1.6,3.62,3.62,0,0,1,.13.48m1.12.15c-.12-.43-.36-.47-.46-.47h-.07l-.3.07c-.11-.45-.49-1.62-1.55-1.67h0c-1.06,0-1.46,1.21-1.58,1.67L36,28.69H36c-.1,0-.34.05-.46.47a3.55,3.55,0,0,0,.42,2l-.13,0a.41.41,0,0,0-.22.11.48.48,0,0,0-.1.39,2.3,2.3,0,0,0,.7,1.2.35.35,0,0,0-.3.35c0,.6.58,1,1,1.21a3.36,3.36,0,0,1,.36.22,4,4,0,0,1,.47.56.23.23,0,0,0,.19.1.24.24,0,0,0,.2-.12,2.55,2.55,0,0,1,.37-.54,3.36,3.36,0,0,1,.36-.22c.45-.26,1.06-.61,1-1.2a.38.38,0,0,0-.3-.36,2.33,2.33,0,0,0,.72-1.2.51.51,0,0,0-.1-.38.31.31,0,0,0-.23-.11l-.11,0a3.75,3.75,0,0,0,.44-2"/><path class="cls-1" d="M36.62,15.93a2.22,2.22,0,0,1,.13-.48,11.12,11.12,0,0,1,1,1.6l0,.05v.55c0,.17,0,.35,0,.53A11.15,11.15,0,0,0,36.2,16l.39.1Zm.61-1.29a11,11,0,0,1,.56,1v.19c0,.17,0,.36,0,.56s0,.21,0,.32a9.8,9.8,0,0,0-.93-1.45,2.17,2.17,0,0,1,.4-.6m.65-.29h0c1,.05,1.29,1.56,1.29,1.58l0,.18.62-.17h0s.08.07.13.22a3.81,3.81,0,0,1-.5,2l-.1.21h.16l.07,0H40a0,0,0,0,1,0,0,.38.38,0,0,1,0,.1c0,.42-.64,1-.87,1.25l-.31.27.41,0h.28c.08,0,.08,0,.08.05,0,.39-.47.67-.87.9a3.15,3.15,0,0,0-.38.24,2.91,2.91,0,0,0-.45.5h0c0-.19,0-.53.06-1s0-.74,0-1.17c0-.22,0-.44,0-.66v-.69c0-.23,0-.46,0-.68s0-.45,0-.66,0-.43,0-.62,0-.39,0-.56a6.93,6.93,0,0,0-.07-1.08s0,.17-.06.55c-.14-.25-.28-.51-.45-.76a1,1,0,0,1,.5-.17m-2,4.09.57-.1-.1-.2a5.57,5.57,0,0,1-.27-.61A11,11,0,0,1,37.73,20l0,.08c0,.28,0,.55,0,.79s0,.41,0,.57a9.68,9.68,0,0,0-2-3m1.7,3a1.66,1.66,0,0,0-.27-.26c-.2-.16-.43-.26-.64-.41a.81.81,0,0,1-.41-.61s0,0,.1,0h0l.53,0,.12.21q.23.36.42.75l.18.35a2,2,0,0,1,.15.41,1.92,1.92,0,0,0-.23-.35m-1.71-2.74a12,12,0,0,1,.93,1.18l-.11-.07a2.59,2.59,0,0,1-.82-1.11m0-1.65a1.79,1.79,0,0,1-.08-.89.46.46,0,0,1,.09-.2,11.19,11.19,0,0,1,1.82,2.62V19c0,.2,0,.4,0,.59a12.07,12.07,0,0,0-1.86-2.54M36,15.62H36c-.1,0-.35,0-.47.47a3.75,3.75,0,0,0,.45,2l-.12,0a.29.29,0,0,0-.22.11.51.51,0,0,0-.11.38,2.4,2.4,0,0,0,.72,1.2.37.37,0,0,0-.29.36c0,.59.6.94,1,1.2a3.36,3.36,0,0,1,.36.22,2.55,2.55,0,0,1,.37.54.23.23,0,0,0,.2.12.22.22,0,0,0,.18-.1,4.59,4.59,0,0,1,.48-.56c.09-.07.22-.14.35-.22.45-.26,1.06-.61,1-1.21a.36.36,0,0,0-.3-.35,2.3,2.3,0,0,0,.7-1.2.48.48,0,0,0-.11-.39A.41.41,0,0,0,40,18.1l-.12,0a3.72,3.72,0,0,0,.42-2c-.13-.42-.37-.47-.47-.47h-.07l-.3.08c-.11-.46-.51-1.62-1.57-1.67h0c-1,.05-1.44,1.22-1.55,1.67Z"/><path class="cls-1" d="M31.44,9.31a14.07,14.07,0,0,1,.67,1.35l-.1-.1a2.58,2.58,0,0,1-.57-1.25m.65-.24L32,8.85c0-.15-.09-.38-.13-.65A11.24,11.24,0,0,1,33,10.94L33,11c-.05.28-.09.54-.13.78s-.06.4-.09.57a9.73,9.73,0,0,0-1.3-3.33Zm-.17-2.25a.61.61,0,0,1,.14-.18A11.32,11.32,0,0,1,33.3,9.58v0c0,.13,0,.26-.08.39s-.07.39-.11.57a12.21,12.21,0,0,0-1.28-2.86,1.85,1.85,0,0,1,.09-.89m.77.1.07-.17A3,3,0,0,1,33,6.31a9.59,9.59,0,0,1,.63,1.76l0,.06c0,.18-.09.35-.12.53l-.12.53a11.81,11.81,0,0,0-1-2.45Zm.94-1.3c.13.36.25.72.34,1.07v0a.83.83,0,0,0,0,.15c0,.16-.09.34-.14.54s0,.2-.08.31a10.72,10.72,0,0,0-.61-1.61,1.91,1.91,0,0,1,.52-.5m.69-.15h0c1,.26.94,1.79.94,1.81v.18l.64,0h0a.4.4,0,0,1,.07.24,3.72,3.72,0,0,1-.89,1.82L35,9.68H35l0,0,.06,0,.07,0,.06,0,.07,0,.07,0,.05,0,0,0h0a0,0,0,0,1,0,0,.36.36,0,0,1,0,.1c-.11.41-.84.89-1.1,1l-.36.2.39.11.23.06h0c.08,0,.08,0,.08.06-.07.38-.61.56-1,.7l-.43.15a4.07,4.07,0,0,0-.54.4h0c.05-.19.15-.51.26-.93s.18-.72.28-1.14l.15-.64c0-.22.09-.45.14-.67s.09-.45.14-.67l.12-.65c0-.21.08-.42.11-.61s.07-.38.09-.55a6.15,6.15,0,0,0,.16-1.07s-.07.16-.17.52c-.08-.27-.17-.55-.28-.83a1,1,0,0,1,.52-.06m-1.78,6.88a1.1,1.1,0,0,0-.2-.31c-.17-.2-.38-.35-.55-.54a.82.82,0,0,1-.27-.68s0,0,.1,0h.06l.52.08c0,.07,0,.15.08.22.09.27.18.54.25.82s.07.25.1.38a2.24,2.24,0,0,1,.07.44,1.68,1.68,0,0,0-.16-.39M31.2,10.74c-.15.57.39,1,.77,1.39l.31.29a2.33,2.33,0,0,1,.25.6.21.21,0,0,0,.17.16.21.21,0,0,0,.2,0,4.21,4.21,0,0,1,.58-.45,2.17,2.17,0,0,1,.39-.14c.5-.16,1.17-.38,1.27-1a.36.36,0,0,0-.22-.4,2.31,2.31,0,0,0,.93-1,.49.49,0,0,0,0-.4.42.42,0,0,0-.19-.16l-.12,0a3.64,3.64,0,0,0,.83-1.88c0-.44-.26-.54-.36-.56h-.38c0-.47-.16-1.7-1.19-2h0c-1-.17-1.66.89-1.86,1.32l-.27-.14-.07,0c-.1,0-.35,0-.55.36a3.6,3.6,0,0,0,0,2.06h-.12a.32.32,0,0,0-.24.06.52.52,0,0,0-.19.36,2.37,2.37,0,0,0,.46,1.32.36.36,0,0,0-.36.29"/><path class="cls-1" d="M24.08,13.21,24,13.14A2.64,2.64,0,0,1,23.2,12a13.19,13.19,0,0,1,.88,1.21m-.28-1.56-.1-.21a5.11,5.11,0,0,1-.24-.62A10.81,10.81,0,0,1,25,13.34l0,.09c0,.28,0,.55,0,.79s0,.41,0,.57a9.77,9.77,0,0,0-1.83-3.07Zm-.53-2.2a.46.46,0,0,1,.1-.19,11.25,11.25,0,0,1,1.7,2.7v0c0,.13,0,.26,0,.39s0,.4,0,.59a11.84,11.84,0,0,0-1.73-2.62,1.67,1.67,0,0,1-.05-.9m.77,0,0-.18a3.52,3.52,0,0,1,.15-.47,10,10,0,0,1,.91,1.64l0,.06q0,.25,0,.54l0,.53a11.1,11.1,0,0,0-1.44-2.24ZM24.75,8a8.7,8.7,0,0,1,.51,1l0,0s0,.09,0,.15,0,.35,0,.55l0,.32a10.94,10.94,0,0,0-.86-1.49A2,2,0,0,1,24.75,8m.66-.26h0c1,.1,1.21,1.62,1.21,1.63l0,.19.62-.14h0a.35.35,0,0,1,.11.23,3.75,3.75,0,0,1-.58,1.94l-.11.2h.1l.06,0H27l.07,0h.07l.07,0h.15s0,0,0,0v.1a2.82,2.82,0,0,1-.93,1.2l-.32.25.41.05.24,0h0c.08,0,.08,0,.08,0,0,.39-.5.65-.91.86a3.55,3.55,0,0,0-.4.23,3.07,3.07,0,0,0-.47.48h0c0-.2.06-.54.1-1s.07-.74.1-1.17c0-.22,0-.44,0-.66l0-.69,0-.68c0-.22,0-.45,0-.66s0-.42,0-.62,0-.38,0-.56a8.43,8.43,0,0,0,0-1.08c-.06,0-.05.17-.09.54-.12-.25-.26-.51-.41-.77a.92.92,0,0,1,.5-.15m-.63,7.08a1.6,1.6,0,0,0-.25-.27c-.2-.17-.43-.29-.63-.45a.79.79,0,0,1-.38-.62s0,0,.1,0h.06l.52,0,.11.21c.14.25.27.51.39.77l.16.36a2.07,2.07,0,0,1,.14.42,1.65,1.65,0,0,0-.22-.36M23,11.49a.45.45,0,0,0-.12.38,2.29,2.29,0,0,0,.66,1.23.36.36,0,0,0-.31.34c-.05.59.55,1,1,1.25l.35.24a2.25,2.25,0,0,1,.35.55.24.24,0,0,0,.19.13.22.22,0,0,0,.19-.09,5.17,5.17,0,0,1,.5-.54,3.91,3.91,0,0,1,.37-.2c.45-.24,1.08-.56,1.08-1.16a.34.34,0,0,0-.28-.36,2.39,2.39,0,0,0,.76-1.17.48.48,0,0,0-.09-.39.32.32,0,0,0-.22-.12l-.12,0a3.65,3.65,0,0,0,.51-2c-.11-.43-.35-.48-.44-.49h-.08l-.3.06c-.09-.46-.44-1.64-1.49-1.74h0c-1.05,0-1.49,1.15-1.62,1.6l-.29-.09h-.08c-.1,0-.34,0-.48.44a3.68,3.68,0,0,0,.36,2l-.12,0a.34.34,0,0,0-.23.1"/><path class="cls-1" d="M10.23,25.44a11,11,0,0,1,2.88,1.36h0a4,4,0,0,0,.2.35l.3.5a12.07,12.07,0,0,0-2.87-1.28,1.72,1.72,0,0,1-.52-.73.42.42,0,0,1,0-.21m.65-.22-.06-.17a4.71,4.71,0,0,1-.12-.48,10.2,10.2,0,0,1,1.64.89l.05,0c.09.16.17.31.27.47s.17.31.26.47a11.52,11.52,0,0,0-2.42-1.12Zm-.17-1.59a9.91,9.91,0,0,1,1,.57l0,0a.91.91,0,0,0,.07.14c.07.15.16.32.25.49l.15.28a11,11,0,0,0-1.53-.79,2.13,2.13,0,0,1,.05-.71m.42-.58h0c.9-.46,1.89.71,1.9.72l.12.14.46-.45h0a.36.36,0,0,1,.22.13,3.77,3.77,0,0,1,.55,1.95v.23h.05l0,0,.06,0,.06,0,.07,0,.07,0,.07,0,.05,0H15s0,0,0,0l.05.08A2.66,2.66,0,0,1,15,27.16l-.13.38.37-.18.21-.11,0,0c.07,0,.08,0,.09,0,.21.33-.08.82-.3,1.21a3.41,3.41,0,0,0-.22.41,3.41,3.41,0,0,0-.14.65h0c-.08-.18-.23-.49-.43-.87s-.34-.66-.55-1c-.1-.18-.2-.38-.32-.57l-.33-.6c-.12-.2-.24-.39-.35-.59l-.34-.57c-.11-.18-.22-.36-.33-.52s-.2-.33-.3-.47a8.57,8.57,0,0,0-.59-.91c-.05,0,.05.17.21.51-.24-.15-.49-.3-.76-.44a1,1,0,0,1,.35-.39m3.27,6.31a1.19,1.19,0,0,0-.36-.09c-.26,0-.51,0-.77,0a.78.78,0,0,1-.65-.33s0,0,.06-.08l0,0,.44-.3.21.12c.25.14.5.28.74.44a3.62,3.62,0,0,1,.32.22,1.81,1.81,0,0,1,.34.28,1.62,1.62,0,0,0-.37-.19m-2.85-1.52a12,12,0,0,1,1.4.55h-.14a2.61,2.61,0,0,1-1.26-.55m.13-.74a5.57,5.57,0,0,1-.54-.39A11.05,11.05,0,0,1,13.81,28l.07.05.42.67.32.48a9.7,9.7,0,0,0-3.2-1.61l.45-.37Zm-.37.15-.09.08a.33.33,0,0,0-.14.21.44.44,0,0,0,.1.38,2.44,2.44,0,0,0,1.22.69.37.37,0,0,0-.08.45c.28.52,1,.52,1.51.52h.42a3.32,3.32,0,0,1,.59.28.21.21,0,0,0,.23,0,.23.23,0,0,0,.12-.18,3.61,3.61,0,0,1,.13-.72,3.62,3.62,0,0,1,.2-.37c.26-.45.61-1.06.29-1.56a.35.35,0,0,0-.43-.15,2.47,2.47,0,0,0,0-1.4.49.49,0,0,0-.29-.28.34.34,0,0,0-.24,0l-.12,0a3.71,3.71,0,0,0-.64-2c-.32-.31-.55-.23-.64-.18l-.06.05-.21.21c-.33-.34-1.26-1.15-2.2-.67l0,0c-.89.57-.64,1.78-.51,2.23l-.29.08-.07,0c-.09,0-.28.21-.17.63.15.6,1,1.25,1.39,1.52"/><path class="cls-1" d="M5.3,29.94h0l.14.06.5.24.29.14a10.63,10.63,0,0,0-1.69.28,1.8,1.8,0,0,1-.4-.6,9.1,9.1,0,0,1,1.12-.12m-1.13-.59v0c.44-.91,1.94-.57,2-.57l.18,0,.1-.64s0,0,0,0a.36.36,0,0,1,.25,0c.54.06,1.35.91,1.62,1.23l.14.18v0l0,0,0,0,0-.05,0-.06,0-.06,0-.06,0-.06,0,0,0,0v0H8.8a.32.32,0,0,1,.09,0,2.66,2.66,0,0,1,.8,1.29l.13.39.19-.37.1-.21,0,0c0-.07,0-.07.07-.06.36.14.43.7.48,1.15a2.73,2.73,0,0,0,.08.46,2.79,2.79,0,0,0,.28.6h0l-.86-.44-1.06-.5-.61-.27-.63-.27-.63-.26-.61-.25-.58-.23-.52-.19a7.25,7.25,0,0,0-1-.37c0,.05.14.1.48.27-.28,0-.57.06-.87.11a1,1,0,0,1,0-.52m6.4,3.08a2.07,2.07,0,0,0-.34.15c-.22.12-.42.29-.64.42a.76.76,0,0,1-.71.14s0,0,0-.1l0-.06.18-.49.23,0c.28,0,.57-.07.85-.09l.4,0a2.2,2.2,0,0,1,.44,0,2.83,2.83,0,0,0-.42.07m-1.85.18a2.56,2.56,0,0,1-1.34.32,12.68,12.68,0,0,1,1.45-.4Zm-1.58.2.13-.57-.23,0a6.54,6.54,0,0,1-.66,0,10.84,10.84,0,0,1,2.9-.57h.09l.75.28.53.19a9.66,9.66,0,0,0-3.51.64M5,32a.5.5,0,0,1-.15-.16A11.26,11.26,0,0,1,8,31.16H8l.36.15.55.22a11.74,11.74,0,0,0-3.07.71A1.85,1.85,0,0,1,5,32m-.29-1.13a9.66,9.66,0,0,1,1.85-.28h.06l.5.22.49.22A11.62,11.62,0,0,0,5,31.54l.25-.31-.16-.1a2.55,2.55,0,0,1-.38-.3m0,.48-.19.24s0,0,0,.06-.1.34.25.61a3.66,3.66,0,0,0,2,.39l0,.11a.36.36,0,0,0,0,.25.5.5,0,0,0,.32.25A2.41,2.41,0,0,0,8.53,33a.35.35,0,0,0,.2.41c.54.25,1.11-.18,1.52-.49l.35-.24a2,2,0,0,1,.63-.13.22.22,0,0,0,.19-.14.22.22,0,0,0,0-.21,3.85,3.85,0,0,1-.33-.65,3.51,3.51,0,0,1-.06-.42c-.06-.51-.15-1.21-.7-1.42a.36.36,0,0,0-.44.13,2.31,2.31,0,0,0-.83-1.11.5.5,0,0,0-.4-.06.4.4,0,0,0-.19.16L8.4,29a3.65,3.65,0,0,0-1.69-1.18c-.43-.05-.57.15-.61.24s0,.06,0,.07l0,.31c-.46-.08-1.69-.17-2.15.78l0,0c-.37,1,.55,1.8.93,2.08"/><path class="cls-1" d="M10.28,42.27s0,0,0-.1v-.05l-.07-.52.19-.14c.23-.17.47-.32.72-.47a3.79,3.79,0,0,1,.34-.2,1.84,1.84,0,0,1,.4-.19,2.18,2.18,0,0,0-.34.26,1.61,1.61,0,0,0-.24.28c-.14.22-.23.46-.36.67a.84.84,0,0,1-.58.46m-1.7.5-.14-.56-.19.12c-.13.08-.34.19-.59.31A11.4,11.4,0,0,1,10,40.8l.08,0,.79-.09.57-.08a9.61,9.61,0,0,0-2.84,2.18m1.32-.9a2.61,2.61,0,0,1-1,.89,11.47,11.47,0,0,1,1.1-1Zm-2.69,1a1.83,1.83,0,0,1-.89.16.71.71,0,0,1-.2-.08,11.12,11.12,0,0,1,2.48-2h0l.39,0,.58-.06a12.12,12.12,0,0,0-2.39,2m-1.67-.72A9.76,9.76,0,0,1,7.06,41l.06,0,.54,0,.53,0a11.87,11.87,0,0,0-2.06,1.69l.08-.39H6s-.21,0-.48-.1m-.84-.43a9,9,0,0,1,.94-.62l0,0h.15l.56,0H6.7a11.22,11.22,0,0,0-1.38,1,1.86,1.86,0,0,1-.62-.36m-.34-.62v0c0-1,1.46-1.39,1.48-1.39l.18,0L5.81,39v0s.07-.09.21-.14a3.85,3.85,0,0,1,2,.35l.21.09V39s0,0,0-.07a.17.17,0,0,1,0-.07v-.07s0,0,0-.06v-.08h0l.1,0a2.84,2.84,0,0,1,1.3.78l.29.29V39c0-.08,0-.09,0-.09.39,0,.7.43,1,.8a3.12,3.12,0,0,0,.27.38,4.22,4.22,0,0,0,.53.4h0c-.19,0-.53,0-1,0s-.75,0-1.17,0l-.67,0-.68,0-.68.06L7,40.75l-.62.06-.55.07A6.23,6.23,0,0,0,4.74,41s.17,0,.55,0a7.65,7.65,0,0,0-.72.49,1,1,0,0,1-.21-.48m7.06.4c.07-.14.13-.27.19-.37a2.57,2.57,0,0,1,.51-.4.23.23,0,0,0,.1-.22.21.21,0,0,0-.1-.17,3.66,3.66,0,0,1-.6-.44c-.07-.08-.15-.2-.24-.33-.29-.43-.69-1-1.28-1a.36.36,0,0,0-.33.32,2.38,2.38,0,0,0-1.25-.61.54.54,0,0,0-.38.13.34.34,0,0,0-.09.23v.13a3.73,3.73,0,0,0-2-.28c-.41.16-.44.4-.43.5a.35.35,0,0,0,0,.07l.1.29C5.13,39.51,4,40,4,41.05v0c.12,1,1.32,1.35,1.78,1.42l0,.3a.17.17,0,0,0,0,.08c0,.1.07.34.5.42a3.6,3.6,0,0,0,2-.58l0,.11a.34.34,0,0,0,.13.22.49.49,0,0,0,.39.07,2.26,2.26,0,0,0,1.15-.8.36.36,0,0,0,.37.27c.6,0,.9-.67,1.13-1.14"/><path class="cls-1" d="M12.28,46.28A11.07,11.07,0,0,1,13.6,45l.05,0,.53-.11.52-.13a11.69,11.69,0,0,0-1.75,2v-.4l-.18,0a3.53,3.53,0,0,1-.49,0m-.9-.28a8.34,8.34,0,0,1,.82-.77l0,0,.14,0,.55-.1.32-.07a11.05,11.05,0,0,0-1.2,1.25,2.19,2.19,0,0,1-.67-.25M11,45.43v0c-.19-1,1.21-1.61,1.23-1.62l.17-.07-.3-.57v0s.05-.1.19-.18a3.84,3.84,0,0,1,2,0l.23.06v-.17a.15.15,0,0,1,0-.07v-.07s0,0,0-.07v-.21h0s0,0,0,0l.09,0a2.65,2.65,0,0,1,1.41.56l.34.23-.07-.4-.05-.23v-.05c0-.08,0-.08,0-.09.37-.1.76.31,1.07.64.12.12.23.24.33.32a3.46,3.46,0,0,0,.59.31h0l-.94.16-1.15.24-.65.14-.67.16-.66.16-.64.17-.6.17-.53.15a8.71,8.71,0,0,0-1,.31c0,.06.17,0,.55-.06-.22.19-.43.39-.64.61a1,1,0,0,1-.27-.45m7-1.35a1.5,1.5,0,0,0-.19.32c-.11.23-.16.49-.25.72s-.24.49-.5.54c0,0,0,0-.06-.08l0,0L16.74,45l.17-.16c.2-.21.41-.4.63-.59l.3-.25a1.47,1.47,0,0,1,.37-.24,1.38,1.38,0,0,0-.29.3m-2.53,2.36-.23-.54-.18.15c-.11.1-.3.25-.52.41a11.31,11.31,0,0,1,2-2.2l.07,0,.76-.22.55-.17a9.69,9.69,0,0,0-2.44,2.62m1.15-1.11a2.58,2.58,0,0,1-.88,1.05,10.25,10.25,0,0,1,.92-1.18ZM13.19,47A.57.57,0,0,1,13,47a11.07,11.07,0,0,1,2.12-2.38l0,0,.39-.1.56-.14a12.3,12.3,0,0,0-2,2.39,1.71,1.71,0,0,1-.85.3m-.58-.08V47c0,.1.13.32.57.34a3.66,3.66,0,0,0,1.85-.9l.05.11a.37.37,0,0,0,.15.19.46.46,0,0,0,.4,0,2.33,2.33,0,0,0,1-1,.35.35,0,0,0,.41.21c.58-.12.78-.81.92-1.3.05-.16.09-.3.13-.4a2.23,2.23,0,0,1,.44-.49.22.22,0,0,0,.07-.22.25.25,0,0,0-.14-.16,4.44,4.44,0,0,1-.65-.33,3.89,3.89,0,0,1-.3-.29c-.36-.38-.84-.89-1.41-.73a.36.36,0,0,0-.28.37A2.36,2.36,0,0,0,14.5,42a.49.49,0,0,0-.35.2.33.33,0,0,0-.05.24v.12a3.69,3.69,0,0,0-2,.06c-.38.22-.37.47-.35.56s0,.07,0,.07l.14.27c-.41.22-1.46.88-1.26,1.92v0c.3,1,1.52,1.11,2,1.11Z"/><path class="cls-1" d="M18.37,49.26a1.5,1.5,0,0,0,0,.37c0,.25.05.5.06.76a.79.79,0,0,1-.23.69s0,0-.1,0l0,0-.35-.39c0-.08.06-.15.08-.22.11-.27.22-.54.35-.79s.11-.24.17-.36a2.3,2.3,0,0,1,.23-.37,2.35,2.35,0,0,0-.14.4m-1.13,3a10.38,10.38,0,0,1,.37-1.46V51a2.63,2.63,0,0,1-.38,1.32M16.59,52l-.1.21a6.6,6.6,0,0,1-.32.58A11.73,11.73,0,0,1,17.1,50l0-.08c.23-.18.43-.35.61-.51l.44-.37A9.76,9.76,0,0,0,17,52.44Zm-1.35,1.82a.52.52,0,0,1-.21,0,10.9,10.9,0,0,1,1-3l0,0,.31-.25.46-.36a12,12,0,0,0-.89,3,1.89,1.89,0,0,1-.66.62m-.52-.58-.16.09a2.9,2.9,0,0,1-.45.18,9.5,9.5,0,0,1,.67-1.75l0,0,.44-.32.42-.33a11.75,11.75,0,0,0-.79,2.55Zm-1.55.38a9,9,0,0,1,.44-1l0,0,.13-.08.45-.32.26-.19a10.64,10.64,0,0,0-.58,1.62,1.94,1.94,0,0,1-.72,0m-.62-.34,0,0c-.58-.83.46-2,.47-2l.12-.13-.5-.4,0,0a.4.4,0,0,1,.1-.23,3.81,3.81,0,0,1,1.87-.81l.22,0h0v0l0,0,0-.05,0-.06,0-.07,0-.06,0-.07,0,0,0,0v0h0l0,0,.07-.06A2.74,2.74,0,0,1,16.12,49l.4.08-.23-.34-.13-.19,0,0c-.05-.06,0-.08,0-.09.3-.25.83,0,1.25.15l.43.16a3,3,0,0,0,.67.05h0l-.8.53-1,.69-.53.39-.55.41-.54.42-.52.41-.48.4-.42.35a7.14,7.14,0,0,0-.82.71s.16-.07.47-.28q-.18.39-.33.81a.87.87,0,0,1-.43-.29m6.06-4.89a3.83,3.83,0,0,1-.73,0l-.39-.14c-.48-.2-1.13-.48-1.59-.1a.38.38,0,0,0-.1.46,2.26,2.26,0,0,0-1.38.17.49.49,0,0,0-.24.32.32.32,0,0,0,.05.24l0,.11a3.67,3.67,0,0,0-1.85.89c-.26.35-.15.57-.09.65l.05,0,.25.19c-.3.37-1,1.4-.38,2.27l0,0c.68.8,1.84.4,2.28.21l.11.28,0,.07c.06.07.24.24.65.08a3.71,3.71,0,0,0,1.33-1.58l.09.09a.33.33,0,0,0,.22.11.47.47,0,0,0,.37-.16,2.31,2.31,0,0,0,.52-1.3.35.35,0,0,0,.46,0c.48-.34.39-1.05.32-1.56a3.88,3.88,0,0,1,0-.42,2.12,2.12,0,0,1,.2-.62.24.24,0,0,0,0-.23.23.23,0,0,0-.19-.09"/><path class="cls-1" d="M22.28,54.61a3.39,3.39,0,0,1-.37.33A9.57,9.57,0,0,1,22,53.07V53c.09-.15.2-.3.3-.45s.19-.3.29-.45a11.58,11.58,0,0,0,.11,2.66l-.27-.29Zm-.56.46a1.87,1.87,0,0,1-.66.29,10.23,10.23,0,0,1,.07-1.13v0l.08-.12.33-.45.18-.27a10.92,10.92,0,0,0,0,1.72m-.85.31a1.07,1.07,0,0,1-.51-.13l0,0c-.82-.59-.23-2-.22-2l.07-.17-.61-.2h0s0-.11,0-.26c.16-.51,1.13-1.17,1.49-1.38l.2-.11h0l0,0,0,0,0,0-.05,0L21,50.87l-.05,0-.05,0-.05,0,0,0,0,0h0a0,0,0,0,1,0,0,.41.41,0,0,1,.05-.09,2.79,2.79,0,0,1,1.4-.57l.41-.06-.33-.24-.19-.14,0,0c-.07,0-.05-.07-.05-.08.2-.34.77-.31,1.22-.29a3.68,3.68,0,0,0,.46,0A2.83,2.83,0,0,0,24.4,49h0c-.12.15-.32.42-.57.77l-.68,1c-.11.18-.24.36-.36.55l-.38.57c-.12.2-.25.39-.37.58s-.23.38-.35.56l-.32.53-.28.48a8,8,0,0,0-.53.94s.12-.11.35-.42a8.38,8.38,0,0,0,0,.88M24.48,49a2,2,0,0,0,0,.42,1.53,1.53,0,0,0,.08.37c.08.24.22.46.31.7a.79.79,0,0,1,0,.73s0,0-.1,0l-.05,0L24.28,51c0-.08,0-.16,0-.24,0-.28,0-.57.05-.86,0-.13,0-.26.05-.39a2.2,2.2,0,0,1,.09-.43m-.05,3.65a11.47,11.47,0,0,1-.14-1.5l.06.13a2.73,2.73,0,0,1,.08,1.37m-.69,0,0,.23c0,.14,0,.38-.11.65a11,11,0,0,1-.06-3v-.09c.15-.24.28-.48.4-.68s.21-.36.28-.5a9.76,9.76,0,0,0,0,3.57Zm-.66,2.16a.49.49,0,0,1-.19.11,11.53,11.53,0,0,1-.1-3.18v0l.21-.34.31-.5a11.81,11.81,0,0,0,.17,3.14,1.82,1.82,0,0,1-.41.8m-.42.39c.08.06.31.15.64-.14A3.7,3.7,0,0,0,24,53.17l.11,0a.34.34,0,0,0,.25,0,.49.49,0,0,0,.3-.27,2.38,2.38,0,0,0,.05-1.4.36.36,0,0,0,.44-.13c.34-.49,0-1.12-.23-1.58-.07-.14-.14-.28-.18-.38a2.37,2.37,0,0,1,0-.65.21.21,0,0,0-.1-.21.26.26,0,0,0-.21,0,3.68,3.68,0,0,1-.7.22h-.42c-.51,0-1.22-.07-1.52.44a.35.35,0,0,0,.06.46,2.41,2.41,0,0,0-1.25.63.49.49,0,0,0-.12.38.32.32,0,0,0,.13.21l.09.09c-.4.25-1.27.87-1.45,1.46-.12.42.06.59.14.64l.07,0,.28.09c-.15.45-.45,1.64.41,2.26l0,0c.91.53,1.87-.24,2.22-.56l.2.22.06.05"/><path class="cls-1" d="M14.06,38.78a11.77,11.77,0,0,1,1.47-.32l-.12.07a2.61,2.61,0,0,1-1.35.25m-.31-.68a5.83,5.83,0,0,1-.66,0A11.44,11.44,0,0,1,16,37.65h.09l.73.32.53.23a9.5,9.5,0,0,0-3.55.45l.16-.56Zm-2-.4a.54.54,0,0,1-.14-.18A11.66,11.66,0,0,1,14.77,37h0l.36.18.53.24A12.23,12.23,0,0,0,12.6,38a1.82,1.82,0,0,1-.84-.31m-.24-1.16a9.56,9.56,0,0,1,1.87-.17h.06l.48.25.48.23a11.33,11.33,0,0,0-2.63.43L12,37l-.15-.11a4.16,4.16,0,0,1-.37-.33M11,35.75a8.83,8.83,0,0,1,1.13-.06h0l.13.07.49.27.28.15a10.64,10.64,0,0,0-1.71.19,1.91,1.91,0,0,1-.36-.62M11,35v0c.49-.89,2-.47,2-.46l.17,0,.13-.63v0a.42.42,0,0,1,.26,0c.53.09,1.29,1,1.55,1.31l.13.19v0l0,0,0,0,0-.05,0,0,0-.06,0-.06,0-.06,0,0,0,0,0,0h0a0,0,0,0,1,0,0,.18.18,0,0,1,.1,0,2.72,2.72,0,0,1,.73,1.32l.11.4.2-.36.11-.21,0,0c0-.08.06-.07.08-.06.36.16.39.72.42,1.18,0,.17,0,.33,0,.46a3.08,3.08,0,0,0,.26.62h0l-.83-.48c-.3-.17-.66-.36-1-.55-.19-.1-.38-.21-.59-.3l-.61-.31-.62-.3-.6-.28-.56-.25-.51-.22a7.58,7.58,0,0,0-1-.42s.13.11.46.3l-.87.06A.87.87,0,0,1,11,35m6.23,3.41a1.48,1.48,0,0,0-.35.13c-.23.11-.43.27-.66.39a.81.81,0,0,1-.72.1s0,0,0-.11l0-.05.2-.49.24,0c.28,0,.57,0,.86,0h.39a1.68,1.68,0,0,1,.44,0,1.93,1.93,0,0,0-.42.05m-1.89.91c.53.28,1.11-.12,1.54-.41.14-.09.26-.17.36-.22a2.37,2.37,0,0,1,.64-.1.22.22,0,0,0,.2-.13.26.26,0,0,0,0-.21,4,4,0,0,1-.3-.67,4.07,4.07,0,0,1,0-.41c0-.52-.08-1.23-.62-1.46a.36.36,0,0,0-.45.11,2.32,2.32,0,0,0-.77-1.16.47.47,0,0,0-.4-.07.28.28,0,0,0-.19.15l-.08.1a3.61,3.61,0,0,0-1.61-1.27c-.44-.07-.59.13-.63.21a.14.14,0,0,0,0,.07l-.07.3c-.46-.09-1.68-.25-2.19.68l0,0c-.42,1,.46,1.83.82,2.13l-.19.23,0,.06c0,.09-.11.33.22.62a3.69,3.69,0,0,0,2,.49l0,.12a.29.29,0,0,0,0,.24.46.46,0,0,0,.3.27,2.37,2.37,0,0,0,1.39-.12.36.36,0,0,0,.19.42"/><path class="cls-1" d="M27.65,17.16c0-.15,0-.4.07-.66a10.91,10.91,0,0,1,.21,2.95v.09l-.37.7-.26.51a9.41,9.41,0,0,0-.2-3.57l.55.2Zm.54-2a.62.62,0,0,1,.18-.13,11.59,11.59,0,0,1,.26,3.18v0l-.19.35c-.1.17-.2.34-.29.51A12.19,12.19,0,0,0,27.82,16a1.7,1.7,0,0,1,.37-.81m.7.33.11-.14a2.88,2.88,0,0,1,.36-.35,10,10,0,0,1,0,1.88V17l-.28.46-.27.46a11.93,11.93,0,0,0-.23-2.65Zm1.29-.94a8.47,8.47,0,0,1,0,1.13v0a.83.83,0,0,1-.08.12l-.3.47-.17.28a11.25,11.25,0,0,0-.07-1.72,1.83,1.83,0,0,1,.64-.32m.53.41c-.05,0-.12.12-.33.44,0-.29,0-.58,0-.88a1,1,0,0,1,.51.11h0c.85.55.33,2,.32,2l-.06.17.61.17h0a.45.45,0,0,1,0,.26c-.12.52-1.06,1.22-1.41,1.45l-.2.12h0l0,0,0,0,.05,0,.05,0,.06.05.06.05.05,0,0,0,0,0,0,0h0a0,0,0,0,1,0,0,.36.36,0,0,1,0,.09,2.73,2.73,0,0,1-1.38.64l-.4.07.34.23.2.13,0,0c.07,0,.05.07.05.08-.19.35-.75.34-1.21.34a3.24,3.24,0,0,0-.46,0,2.55,2.55,0,0,0-.63.21h0c.11-.16.31-.44.54-.8s.4-.62.63-1l.34-.57.35-.59.33-.59c.12-.19.22-.39.33-.58l.29-.54.26-.49a7.26,7.26,0,0,0,.49-1m-3.57,5.63a2.14,2.14,0,0,1-.07.43,1.94,1.94,0,0,0,0-.42,2.42,2.42,0,0,0-.1-.36c-.1-.24-.25-.45-.35-.68a.79.79,0,0,1-.05-.73s0,0,.11,0l.05,0,.47.24v.23c0,.29,0,.58,0,.86l0,.4M27,17.41a11.85,11.85,0,0,1,.21,1.49l-.06-.12A2.5,2.5,0,0,1,27,17.41m.27-.54a.34.34,0,0,0-.25,0,.48.48,0,0,0-.28.28,2.31,2.31,0,0,0,0,1.4.37.37,0,0,0-.43.16c-.32.5,0,1.12.3,1.57a3.62,3.62,0,0,1,.2.37,2.85,2.85,0,0,1,.05.65.23.23,0,0,0,.11.2.23.23,0,0,0,.21,0,3.81,3.81,0,0,1,.69-.25h.42c.52,0,1.22,0,1.5-.52a.37.37,0,0,0-.08-.46,2.32,2.32,0,0,0,1.21-.68.47.47,0,0,0,.1-.39.35.35,0,0,0-.13-.21l-.1-.08c.39-.27,1.23-.92,1.38-1.52.1-.43-.08-.59-.17-.64l-.07,0-.29-.08c.13-.45.37-1.66-.52-2.24l0,0c-.93-.48-1.85.33-2.18.67l-.22-.21s0,0-.06-.05-.31-.13-.63.17a3.75,3.75,0,0,0-.63,2Z"/><path class="cls-1" d="M27.16,37.79h0a.34.34,0,0,1,0,.26c-.13.52-1.07,1.22-1.42,1.45l-.19.12h0l0,0,0,0,.05,0,.05.05.06,0,.05,0,.06.05,0,0,0,0,0,0h0s0,0,0,0l0,.08a2.73,2.73,0,0,1-1.38.64l-.4.08.34.23.2.13,0,0c.07,0,.06.06,0,.08-.18.34-.74.34-1.2.34h-.46a4.21,4.21,0,0,0-.64.21h0l.54-.8c.19-.29.4-.63.62-1,.11-.19.23-.38.35-.57l.34-.59.34-.59c.12-.2.22-.39.32-.58s.21-.37.3-.55l.26-.49a6,6,0,0,0,.48-1s-.11.12-.32.43a8.48,8.48,0,0,0,0-.87,1,1,0,0,1,.52.1h0c.85.55.32,2,.32,2l-.07.17Zm-4.64,3.59a2.13,2.13,0,0,1-.07.44,1.46,1.46,0,0,0,0-.42,1.36,1.36,0,0,0-.1-.36c-.09-.24-.24-.45-.34-.68a.79.79,0,0,1-.05-.73s0,0,.1,0l0,0,.48.23v.24c0,.29,0,.57,0,.86l0,.39m-.2-3.21a11.66,11.66,0,0,1,.22,1.49l-.07-.12a2.71,2.71,0,0,1-.15-1.37m.7,0v-.23a5.31,5.31,0,0,1,.07-.66,11,11,0,0,1,.21,3v.09c-.14.25-.26.49-.37.7s-.19.36-.26.51a9.6,9.6,0,0,0-.2-3.57ZM23.57,36a.41.41,0,0,1,.18-.12A11.11,11.11,0,0,1,24,39v0l-.2.34c-.1.17-.19.35-.28.51a12.12,12.12,0,0,0-.32-3.12,1.74,1.74,0,0,1,.37-.82m.7.34.11-.14a3.25,3.25,0,0,1,.35-.35,9.91,9.91,0,0,1,.05,1.87v.07c-.09.15-.19.3-.28.46l-.27.46A11.35,11.35,0,0,0,24,36Zm1.29-.94a10.39,10.39,0,0,1,0,1.12v0a.57.57,0,0,1-.08.13l-.3.47-.17.27a10.19,10.19,0,0,0-.08-1.72,1.86,1.86,0,0,1,.65-.31m.9-.2,0,0c-.94-.49-1.86.33-2.18.67L24,35.58a.15.15,0,0,0-.06,0c-.08,0-.32-.14-.63.17a3.64,3.64,0,0,0-.63,2l-.11,0a.34.34,0,0,0-.25,0,.48.48,0,0,0-.28.28,2.31,2.31,0,0,0,0,1.4.35.35,0,0,0-.43.16c-.32.5,0,1.12.3,1.57a3.49,3.49,0,0,1,.2.37,2.74,2.74,0,0,1,.05.64.22.22,0,0,0,.11.21.22.22,0,0,0,.21,0,3.3,3.3,0,0,1,.69-.24,2.62,2.62,0,0,1,.42,0c.51,0,1.22,0,1.5-.51a.36.36,0,0,0-.08-.46,2.27,2.27,0,0,0,1.21-.69.47.47,0,0,0,.1-.38.32.32,0,0,0-.13-.21l-.1-.08c.38-.27,1.23-.93,1.38-1.52.1-.43-.09-.59-.17-.64l-.07,0L27,37.39c.13-.46.37-1.67-.52-2.24"/><path class="cls-1" d="M33.32,26.3l-.2.1h0l0,0,0,0,0,.05.05.05,0,.05s0,0,.05.05l0,0,0,.05,0,0,0,0h0a0,0,0,0,1,0,0,.22.22,0,0,1-.05.08,2.66,2.66,0,0,1-1.43.5l-.41,0,.32.26.18.15,0,0c.07.05.06.07,0,.08-.22.33-.78.27-1.23.22l-.46,0a3.92,3.92,0,0,0-.66.15h0c.13-.14.35-.4.61-.74s.46-.58.72-.93c.13-.17.27-.34.4-.53s.27-.36.4-.55l.4-.56.37-.54.35-.52.3-.46a5.74,5.74,0,0,0,.58-.92s-.13.12-.37.41a8,8,0,0,0,.08-.87.94.94,0,0,1,.5.15h0c.8.64.14,2,.13,2l-.08.17.6.23,0,0a.41.41,0,0,1,0,.25c-.18.51-1.18,1.11-1.55,1.31m-3.53,2a1.94,1.94,0,0,0,0-.42,2.25,2.25,0,0,0-.06-.36c-.08-.25-.2-.47-.28-.71a.78.78,0,0,1,0-.73s0,0,.1,0l.05,0,.45.28a1.94,1.94,0,0,1,0,.24,8.2,8.2,0,0,1-.1.85l-.06.39a2,2,0,0,1-.12.42M30,24.63a9.82,9.82,0,0,1,.07,1.51L30,26a2.68,2.68,0,0,1,0-1.38m.17-.21.53.25,0-.22c0-.15.07-.39.13-.65a11.08,11.08,0,0,1-.07,3l0,.08-.44.67c-.11.18-.22.34-.3.48a9.72,9.72,0,0,0,.14-3.57m1.29-1.87a.57.57,0,0,1,.19-.11,11.59,11.59,0,0,1-.05,3.19v0c-.08.11-.15.22-.23.32l-.33.48a12.25,12.25,0,0,0,0-3.14,1.62,1.62,0,0,1,.45-.77m.41.09.25.31.13-.13a2.28,2.28,0,0,1,.38-.31,9.35,9.35,0,0,1-.14,1.87v.06l-.32.43-.32.44a11.81,11.81,0,0,0,0-2.67m1-.25a1.69,1.69,0,0,1,.67-.25,9.85,9.85,0,0,1-.12,1.12v0l-.1.12-.34.43-.2.26a10.61,10.61,0,0,0,.1-1.72m2.34,2.71c.14-.41,0-.59-.11-.65l-.06,0-.29-.11c.18-.44.53-1.61-.29-2.27l0,0c-.88-.57-1.87.15-2.23.46L32,22.22l-.06,0c-.08-.06-.3-.16-.65.11a3.68,3.68,0,0,0-.81,1.89l-.11-.05a.34.34,0,0,0-.25,0,.49.49,0,0,0-.31.25,2.38,2.38,0,0,0-.12,1.4.36.36,0,0,0-.44.11c-.36.47-.07,1.12.15,1.59.06.14.12.28.16.39a2.49,2.49,0,0,1,0,.65.23.23,0,0,0,.1.21.21.21,0,0,0,.2,0,3.39,3.39,0,0,1,.72-.18l.41,0c.52.05,1.22.12,1.55-.37a.38.38,0,0,0,0-.47,2.27,2.27,0,0,0,1.27-.56.47.47,0,0,0,.14-.38.34.34,0,0,0-.11-.21l-.09-.09c.41-.24,1.31-.81,1.52-1.39"/><path class="cls-1" d="M10.76,17.75a8.47,8.47,0,0,1,1.12,0h0l.13.08.48.28.28.16a11.71,11.71,0,0,0-1.72.14,1.81,1.81,0,0,1-.33-.63m0-.71,0,0c.51-.87,2-.4,2-.4l.17.06.15-.62,0,0a.46.46,0,0,1,.25,0c.53.1,1.26,1,1.5,1.36l.13.19v0l0,0,0,0,0-.05,0-.06,0-.06,0,0,0-.06,0,0,0,0,0,0h0s0,0,0,0l.09,0a2.72,2.72,0,0,1,.69,1.36l.1.39.21-.35.12-.2,0,0c0-.07.06-.06.08-.05.35.17.37.74.38,1.19a3,3,0,0,0,0,.46,2.76,2.76,0,0,0,.23.63h0c-.16-.1-.45-.29-.81-.5l-1-.59L15,19.11l-.6-.32-.6-.32-.6-.3-.55-.27-.5-.24a5.9,5.9,0,0,0-1-.45s.13.11.45.31l-.87,0A.93.93,0,0,1,10.8,17m6.12,3.62a1.65,1.65,0,0,0-.36.11c-.23.11-.44.26-.67.37a.77.77,0,0,1-.72.08s0,0,0-.11l0-.05.21-.48h.24a8.17,8.17,0,0,1,.86,0h.39a2.32,2.32,0,0,1,.44.06,1.46,1.46,0,0,0-.42,0m-3.22.22a10.3,10.3,0,0,1,1.48-.27l-.12.07a2.77,2.77,0,0,1-1.36.2m-.29-.7a6.31,6.31,0,0,1-.66,0,10.81,10.81,0,0,1,2.95-.32h.08l.72.35.52.24a9.35,9.35,0,0,0-3.56.33l.18-.55Zm-2-.47a.5.5,0,0,1-.13-.17,11.09,11.09,0,0,1,3.17-.37h0l.35.18.52.27a11.64,11.64,0,0,0-3.11.44,1.72,1.72,0,0,1-.83-.35m-.19-1.15a10.17,10.17,0,0,1,1.87-.12h.06l.48.26.47.25a11.74,11.74,0,0,0-2.65.34l.27-.29-.14-.12a2.57,2.57,0,0,1-.36-.33m0,.48-.2.22a.25.25,0,0,0-.05.07c0,.08-.12.32.2.62a3.66,3.66,0,0,0,2,.56l0,.11a.36.36,0,0,0,0,.25.47.47,0,0,0,.29.28,2.48,2.48,0,0,0,1.4-.07.36.36,0,0,0,.17.43c.51.29,1.12-.09,1.55-.36a2.52,2.52,0,0,1,.37-.21,2.29,2.29,0,0,1,.64-.08.23.23,0,0,0,.2-.12.22.22,0,0,0,0-.21,3.41,3.41,0,0,1-.27-.68c0-.11,0-.26,0-.42,0-.52,0-1.22-.57-1.48a.37.37,0,0,0-.46.1,2.24,2.24,0,0,0-.73-1.19.49.49,0,0,0-.39-.09.37.37,0,0,0-.2.15l-.07.1c-.29-.38-1-1.2-1.58-1.32-.43-.09-.58.1-.63.19a.17.17,0,0,0,0,.07l-.07.29c-.46-.11-1.67-.31-2.22.6l0,0c-.45.95.4,1.84.75,2.15"/><path class="cls-1" d="M24.22,25.87l-.89-.37c-.32-.13-.69-.27-1.1-.41l-.62-.23L21,24.64l-.64-.22-.64-.2L19.09,24l-.53-.15a7.45,7.45,0,0,0-1-.29s.15.09.5.24c-.28,0-.57.1-.86.17a.92.92,0,0,1,0-.52v0c.37-.94,1.89-.72,1.9-.72l.18,0,.05-.64s0,0,0,0a.38.38,0,0,1,.25-.05c.54,0,1.41.8,1.7,1.1l.16.16h0l0,0,0,0,0-.06,0-.06a.16.16,0,0,0,0-.07l0-.06,0-.06,0-.05,0,0v0h0a.16.16,0,0,1,.09,0c.39.16.79.93.9,1.22l.16.38.15-.38.09-.22,0,0c0-.08.05-.07.06-.07.38.11.49.67.58,1.11a3.42,3.42,0,0,0,.1.45,4.2,4.2,0,0,0,.33.58h0m-.45.2a1.29,1.29,0,0,0-.33.17c-.21.14-.39.33-.6.47a.78.78,0,0,1-.71.19s0,0,0-.1l0-.05.13-.51.23,0a8,8,0,0,1,.85-.16l.39-.05a2.13,2.13,0,0,1,.44,0,1.91,1.91,0,0,0-.41.11m-1.83.32a2.58,2.58,0,0,1-1.31.42A11,11,0,0,1,22,26.3Zm-1.57.32.09-.57-.22,0c-.15,0-.39,0-.66.06a11.14,11.14,0,0,1,2.85-.79h.09l.76.22.55.15a9.79,9.79,0,0,0-3.46.91m-1.29-.48a1.75,1.75,0,0,1-.87-.2.46.46,0,0,1-.16-.15A10.83,10.83,0,0,1,21.11,25h0l.38.13.56.17a12.41,12.41,0,0,0-3,.94m-1.25-1.31a9.3,9.3,0,0,1,1.82-.42h.07l.51.18.5.17a12,12,0,0,0-2.55.76l.22-.33-.17-.09a3.55,3.55,0,0,1-.4-.27m-.61-.72a7.85,7.85,0,0,1,1.1-.21h.05l.14.06.51.2.31.11a11.46,11.46,0,0,0-1.68.42,2,2,0,0,1-.43-.57m7,1c0-.1-.06-.25-.09-.4-.1-.51-.24-1.2-.81-1.37a.37.37,0,0,0-.43.17A2.39,2.39,0,0,0,22,22.52a.51.51,0,0,0-.4,0,.33.33,0,0,0-.18.17l-.06.11a3.58,3.58,0,0,0-1.77-1c-.43,0-.56.19-.59.29a.23.23,0,0,0,0,.07l0,.3c-.47,0-1.7,0-2.09,1v0c-.29,1,.69,1.75,1.09,2l-.17.25a.67.67,0,0,0,0,.07c0,.09-.07.33.29.58a3.68,3.68,0,0,0,2,.23l0,.12a.33.33,0,0,0,0,.25.51.51,0,0,0,.34.22,2.38,2.38,0,0,0,1.37-.3.38.38,0,0,0,.23.4c.56.21,1.09-.27,1.48-.61a3.3,3.3,0,0,1,.33-.27,2.13,2.13,0,0,1,.62-.17.26.26,0,0,0,.18-.16.24.24,0,0,0,0-.2,3.92,3.92,0,0,1-.38-.64"/><path class="cls-1" d="M39.75,7.68c0-.15,0-.22.08-.24h0l.65,0V7.28s-.05-1.55.93-1.81h0a.91.91,0,0,1,.52.06c-.11.28-.2.56-.28.83-.1-.36-.12-.53-.18-.52a10.28,10.28,0,0,0,.16,1.07c0,.17.06.36.1.55s.06.4.1.61.08.43.13.65.09.45.13.67l.15.67.15.64c.1.42.19.81.28,1.14s.21.74.26.93h0a4.07,4.07,0,0,0-.54-.4L42,12.22c-.44-.14-1-.32-1-.7,0,0,0,0,.07-.06h0l.23-.06.4-.11-.36-.2c-.27-.15-1-.63-1.11-1a.34.34,0,0,1,0-.1,0,0,0,0,1,0,0h0l0,0,.06,0,.06,0,.07,0,.07,0,.07,0,0,0,.05,0h0l-.15-.18a3.8,3.8,0,0,1-.89-1.82m2.91-1.56a9.41,9.41,0,0,0-.61,1.61c0-.11-.06-.21-.08-.31l-.14-.54s0-.1,0-.15v0a9.42,9.42,0,0,1,.34-1.07,1.91,1.91,0,0,1,.52.5m.12.19a2.59,2.59,0,0,1,.23.44l.07.17.35-.18a11.29,11.29,0,0,0-1,2.45l-.12-.53-.12-.53,0-.06a10.32,10.32,0,0,1,.62-1.76m.93.33a.63.63,0,0,1,.13.18,1.72,1.72,0,0,1,.1.89,12.5,12.5,0,0,0-1.29,2.86c0-.18-.07-.38-.11-.57s0-.26-.08-.39v0a11.32,11.32,0,0,1,1.24-2.94m.55,2.41A9.76,9.76,0,0,0,43,12.38c0-.17-.05-.36-.08-.57s-.08-.5-.13-.78l0-.09A10.86,10.86,0,0,1,43.88,8.2a5.74,5.74,0,0,1-.14.65l-.06.22Zm.07.26a2.58,2.58,0,0,1-.57,1.25l-.1.1a12.07,12.07,0,0,1,.67-1.35m-.08,1.51a.8.8,0,0,1-.28.68c-.17.19-.37.34-.54.54a1.69,1.69,0,0,0-.21.31,1.66,1.66,0,0,0-.15.39,2.24,2.24,0,0,1,.07-.44c0-.13.06-.25.1-.38s.16-.55.25-.82c0-.07,0-.15.08-.22l.52-.08h.06c.09,0,.09,0,.1,0M40.13,9.58a.37.37,0,0,0-.19.16.47.47,0,0,0,0,.39,2.31,2.31,0,0,0,.94,1,.35.35,0,0,0-.22.4c.1.59.77.81,1.26,1a2.17,2.17,0,0,1,.39.14,3.25,3.25,0,0,1,.58.45.23.23,0,0,0,.21,0,.25.25,0,0,0,.17-.16,2.33,2.33,0,0,1,.25-.6c.07-.08.19-.18.3-.29.39-.34.92-.82.78-1.39a.36.36,0,0,0-.36-.29,2.36,2.36,0,0,0,.45-1.32.48.48,0,0,0-.18-.36.32.32,0,0,0-.24-.06h-.12a3.69,3.69,0,0,0,0-2.06c-.21-.39-.45-.39-.55-.36a.1.1,0,0,0-.07,0l-.27.14C43,6,42.42,5,41.38,5.14h0c-1,.26-1.18,1.49-1.19,2h-.38c-.1,0-.33.12-.36.56a3.64,3.64,0,0,0,.83,1.88Z"/><path class="cls-1" d="M48.32,9.64a.4.4,0,0,1,.12-.23h0l.63.14,0-.19s.21-1.53,1.22-1.63h0a1,1,0,0,1,.51.15c-.15.26-.29.52-.41.77,0-.37,0-.54-.09-.54a7.2,7.2,0,0,0,0,1.08v.56c0,.2,0,.4,0,.62s0,.44,0,.66,0,.46,0,.68,0,.46,0,.69,0,.44,0,.66c0,.43.06.83.09,1.17s.08.76.11,1h0a2.69,2.69,0,0,0-.46-.48,3.55,3.55,0,0,0-.4-.23c-.41-.21-.91-.47-.91-.86,0,0,0,0,.08,0h0l.24,0,.4,0-.31-.26c-.24-.19-.88-.79-.93-1.2V12s0,0,0,0h.15l.07,0h.07l.07,0h.07l.06,0H49l-.11-.2a3.75,3.75,0,0,1-.59-1.94m3.12-1.07a10.94,10.94,0,0,0-.86,1.49l0-.32c0-.2,0-.38,0-.55s0-.11,0-.15l0,0A8.7,8.7,0,0,1,51,8a2,2,0,0,1,.42.58m.25.68,0,.18.37-.12a11.48,11.48,0,0,0-1.43,2.24l0-.53q0-.29,0-.54l0-.06a10,10,0,0,1,.91-1.64,3.52,3.52,0,0,1,.15.47m.7,0a.58.58,0,0,1,.11.19,1.89,1.89,0,0,1,0,.9A11.9,11.9,0,0,0,50.71,13c0-.19,0-.39,0-.59s0-.26,0-.39l0,0a11.19,11.19,0,0,1,1.69-2.7m.16,2.46a9.81,9.81,0,0,0-1.84,3.07c0-.16,0-.35,0-.57s0-.51,0-.79l0-.09a10.81,10.81,0,0,1,1.55-2.52c-.09.26-.18.49-.24.62l-.1.21Zm-.74,1.42-.12.07A11.54,11.54,0,0,1,52.57,12a2.64,2.64,0,0,1-.76,1.14m0,.95c-.19.16-.42.28-.62.45a1.6,1.6,0,0,0-.25.27,1.65,1.65,0,0,0-.22.36,2.07,2.07,0,0,1,.14-.42c.05-.12.1-.24.16-.36s.24-.52.38-.77c0-.06.08-.14.12-.21l.52,0h.06c.09,0,.09,0,.1,0a.83.83,0,0,1-.39.62m-3.47-2.51a.31.31,0,0,0-.22.12.48.48,0,0,0-.09.39,2.32,2.32,0,0,0,.76,1.17.36.36,0,0,0-.29.36c0,.6.63.92,1.09,1.16L50,15a3.59,3.59,0,0,1,.5.54.25.25,0,0,0,.19.09.26.26,0,0,0,.2-.13,2.25,2.25,0,0,1,.35-.55c.08-.07.21-.15.34-.24.44-.28,1-.66,1-1.25a.36.36,0,0,0-.31-.34,2.4,2.4,0,0,0,.66-1.23.45.45,0,0,0-.12-.38.34.34,0,0,0-.23-.1l-.12,0a3.68,3.68,0,0,0,.36-2c-.14-.41-.39-.45-.49-.44h-.07L52,9c-.13-.45-.57-1.6-1.62-1.6h0c-1.06.1-1.4,1.28-1.5,1.74l-.29-.06h-.08c-.1,0-.34.06-.44.49a3.56,3.56,0,0,0,.51,2Z"/><path class="cls-1" d="M65.54,25.44a.42.42,0,0,1,0,.21,1.81,1.81,0,0,1-.52.73,12.07,12.07,0,0,0-2.87,1.28l.3-.5c.06-.12.13-.23.2-.35h0a10.84,10.84,0,0,1,2.88-1.36M64.09,27.1l-.19.12.44.37a9.75,9.75,0,0,0-3.19,1.61l.31-.48.43-.67L62,28a11.05,11.05,0,0,1,2.67-1.29,5.57,5.57,0,0,1-.54.39M63,28.39h-.14a12,12,0,0,1,1.4-.55,2.61,2.61,0,0,1-1.26.55m.19.52a.82.82,0,0,1-.66.32c-.25,0-.51,0-.76,0a1.19,1.19,0,0,0-.36.09,1.93,1.93,0,0,0-.38.19,1.81,1.81,0,0,1,.34-.28l.33-.22c.24-.16.49-.3.74-.44l.21-.12.43.3.05,0c.08.05.07.07.06.09m-2.25.6h0a3.35,3.35,0,0,0-.13-.65,3.41,3.41,0,0,0-.22-.41c-.23-.39-.51-.88-.3-1.21,0,0,0,0,.09,0l0,0,.21.11.37.18-.14-.38a2.72,2.72,0,0,1-.13-1.51.47.47,0,0,1,.06-.09l0,0h.1l0,0,.07,0,.07,0,.07,0,.06,0,.06,0,0,0h0l0-.23a3.77,3.77,0,0,1,.55-1.95c.11-.11.18-.13.22-.13h0l.46.45.11-.14s1-1.18,1.91-.72h0a.9.9,0,0,1,.34.39c-.26.14-.52.29-.76.44.17-.34.27-.48.22-.51a9.47,9.47,0,0,0-.6.91l-.3.47-.32.52-.34.57-.35.59-.34.6c-.11.19-.21.39-.32.57l-.55,1c-.19.38-.34.69-.42.87m4.15-5.88a1.71,1.71,0,0,1,0,.71,11,11,0,0,0-1.53.79c.06-.09.11-.19.16-.28l.25-.49a.91.91,0,0,0,.07-.14l0,0a9.15,9.15,0,0,1,1-.57m.22,1.69a11.07,11.07,0,0,0-2.42,1.12l.26-.47c.09-.16.18-.31.26-.47l.06,0a9.41,9.41,0,0,1,1.64-.89A3.51,3.51,0,0,1,65,25l-.07.18Zm-.46-2.56,0,0c-.94-.48-1.87.33-2.2.67l-.22-.21-.06-.05c-.08,0-.32-.13-.63.18a3.54,3.54,0,0,0-.64,2l-.12,0a.37.37,0,0,0-.25,0,.51.51,0,0,0-.28.28,2.31,2.31,0,0,0,0,1.4.37.37,0,0,0-.44.15c-.31.5,0,1.11.3,1.56l.2.37a3.61,3.61,0,0,1,.13.72.25.25,0,0,0,.11.18.23.23,0,0,0,.24,0,2.77,2.77,0,0,1,.59-.28h.42c.52,0,1.23,0,1.51-.52a.37.37,0,0,0-.08-.45,2.48,2.48,0,0,0,1.22-.69.47.47,0,0,0,.1-.38.33.33,0,0,0-.14-.21l-.09-.08c.39-.27,1.24-.92,1.39-1.52.1-.42-.08-.58-.17-.63l-.07,0L65.32,25c.13-.45.38-1.66-.51-2.23"/><path class="cls-1" d="M66,30.73l.12-.39a2.82,2.82,0,0,1,.8-1.29l.1,0h0l0,0,0,0,0,0,0,.06,0,.06a.21.21,0,0,0,0,.06l0,.06,0,.05,0,0,0,0v0l.15-.18c.27-.32,1.08-1.17,1.61-1.23a.38.38,0,0,1,.26,0s0,0,0,0l.09.64.18,0s1.51-.34,2,.57v0a1,1,0,0,1,0,.52c-.3-.05-.59-.08-.87-.11.34-.17.5-.22.47-.27a8.51,8.51,0,0,0-1,.37l-.52.19-.57.23-.62.25-.63.26-.62.27-.61.27-1.06.5-.86.44h0a3,3,0,0,0,.28-.6,4.52,4.52,0,0,0,.07-.46c.06-.45.12-1,.49-1.15,0,0,0,0,.07.06l0,0,.1.21Zm5.24-.07a10.75,10.75,0,0,0-1.7-.28l.3-.14.5-.24.13-.06h0a8.7,8.7,0,0,1,1.12.12,1.64,1.64,0,0,1-.39.6m-.54.47-.16.1.24.31a11.43,11.43,0,0,0-2.6-.55l.49-.22.5-.22h.06a9.66,9.66,0,0,1,1.85.28,2.55,2.55,0,0,1-.38.3m.09.83a1.85,1.85,0,0,1-.86.28,11.68,11.68,0,0,0-3.06-.71l.54-.22.37-.15h0a11.12,11.12,0,0,1,3.12.64s0,.09-.14.16m-2,.3-.23,0,.13.57a9.71,9.71,0,0,0-3.52-.64l.54-.19.74-.28h.09a10.83,10.83,0,0,1,2.91.57,6.54,6.54,0,0,1-.66,0m-1.68.35-.12-.08a12.14,12.14,0,0,1,1.45.4,2.55,2.55,0,0,1-1.33-.32m-.16.53a.79.79,0,0,1-.72-.14c-.22-.13-.41-.3-.63-.42a2.17,2.17,0,0,0-.35-.15,2.7,2.7,0,0,0-.41-.07,2.13,2.13,0,0,1,.44,0l.39,0c.29,0,.57,0,.86.09l.23,0,.18.49V33c0,.08,0,.09,0,.1m-1.44-3.4c-.56.21-.64.91-.7,1.42,0,.16,0,.31-.06.42a4.85,4.85,0,0,1-.33.65.23.23,0,0,0,0,.21.25.25,0,0,0,.19.14,2,2,0,0,1,.64.13c.1.06.22.15.34.24.42.31,1,.74,1.52.49a.35.35,0,0,0,.21-.41,2.38,2.38,0,0,0,1.39.19.48.48,0,0,0,.31-.25.32.32,0,0,0,0-.25l0-.11a3.66,3.66,0,0,0,2-.39c.34-.27.29-.52.25-.61a.15.15,0,0,0,0-.06L71,31.31c.37-.28,1.29-1.1.93-2.08l0,0c-.46-1-1.69-.86-2.16-.78l0-.31s0,0,0-.07-.18-.29-.62-.24A3.62,3.62,0,0,0,67.37,29l-.07-.11a.32.32,0,0,0-.18-.16.53.53,0,0,0-.4.05,2.36,2.36,0,0,0-.83,1.13.35.35,0,0,0-.44-.14"/><path class="cls-1" d="M71.4,41.06a.87.87,0,0,1-.2.48c-.24-.18-.48-.35-.72-.5.38,0,.55,0,.55,0A6.26,6.26,0,0,0,70,40.88l-.55-.07-.61-.06-.66-.06-.68-.06-.69,0-.66,0c-.43,0-.83,0-1.17,0s-.77,0-1,0h0a3.77,3.77,0,0,0,.54-.4c.09-.1.17-.24.27-.37.25-.38.57-.85,1-.81,0,0,0,0,0,.09v.69L66,39.4a2.87,2.87,0,0,1,1.31-.78l.1,0h0v.21s0,0,0,.07v.31l.21-.09a3.83,3.83,0,0,1,2-.35A.39.39,0,0,1,70,39v0l-.21.61.18,0s1.5.38,1.48,1.39Zm-1,1a9.62,9.62,0,0,0-1.37-1h.32l.55,0h.15l0,0a10.13,10.13,0,0,1,.94.62,1.81,1.81,0,0,1-.63.36m-.7.17h-.18l.07.39a11.46,11.46,0,0,0-2-1.69l.53,0,.54,0,0,0a9.83,9.83,0,0,1,1.53,1.09c-.27.07-.48.09-.49.1m-.29.78a1.83,1.83,0,0,1-.89-.16,12.46,12.46,0,0,0-2.4-2l.58.06.4,0h0a11.35,11.35,0,0,1,2.48,2l-.2.08m-1.93-.66-.19-.12-.15.56a9.58,9.58,0,0,0-2.83-2.18l.57.08.79.09.07,0a10.88,10.88,0,0,1,2.32,1.84l-.58-.31m-1.65-.46-.07-.13a10.47,10.47,0,0,1,1.11,1,2.61,2.61,0,0,1-1-.89m-.33.25v.05c0,.1,0,.1-.05.09a.78.78,0,0,1-.58-.45c-.13-.21-.23-.45-.37-.67a1.27,1.27,0,0,0-.24-.28A2.1,2.1,0,0,0,64,40.6a2.09,2.09,0,0,1,.4.19l.34.2c.24.15.48.3.72.47l.19.14Zm4.65-2.76.09-.29s0,0,0-.07,0-.34-.44-.5a3.71,3.71,0,0,0-2,.28v-.13a.36.36,0,0,0-.1-.23.52.52,0,0,0-.37-.13,2.38,2.38,0,0,0-1.25.61.36.36,0,0,0-.33-.32c-.59-.07-1,.52-1.28,1-.09.13-.17.25-.24.33a3.66,3.66,0,0,1-.6.44.25.25,0,0,0-.11.18.26.26,0,0,0,.11.21,2.51,2.51,0,0,1,.51.4c.06.1.12.23.19.37.22.47.53,1.11,1.12,1.14a.38.38,0,0,0,.38-.27,2.28,2.28,0,0,0,1.14.8.51.51,0,0,0,.4-.07.35.35,0,0,0,.12-.22l0-.11a3.63,3.63,0,0,0,2,.58c.43-.08.49-.32.5-.42a.54.54,0,0,0,0-.08l-.05-.3c.46-.07,1.65-.37,1.78-1.42v0c0-1.06-1.11-1.54-1.55-1.69"/><path class="cls-1" d="M64.83,45.41v0a.91.91,0,0,1-.28.45c-.21-.22-.42-.42-.63-.61.37.06.54.12.54.06a7.46,7.46,0,0,0-1-.31l-.53-.15-.6-.17-.64-.17L61,44.37l-.66-.16-.65-.14-1.15-.24-1-.16h0a3.73,3.73,0,0,0,.59-.32,2.45,2.45,0,0,0,.33-.32c.32-.33.71-.74,1.08-.64,0,0,0,0,0,.09v.05l0,.23-.07.4.33-.23a2.69,2.69,0,0,1,1.42-.56l.09,0,0,0h0v.35a.2.2,0,0,0,0,.07V43l.22-.06a3.88,3.88,0,0,1,2,0c.13.08.18.14.19.18v0l-.3.57.17.07s1.42.63,1.23,1.62m-1.12.84A10.19,10.19,0,0,0,62.52,45l.32.07.54.1.15,0,0,0a8.42,8.42,0,0,1,.83.77,2.15,2.15,0,0,1-.68.25m-.71,0-.19,0v.4a12.14,12.14,0,0,0-1.75-2l.52.13.53.11,0,0a10.44,10.44,0,0,1,1.33,1.33,3.53,3.53,0,0,1-.49,0m-.43.72a1.78,1.78,0,0,1-.85-.3,11.64,11.64,0,0,0-2-2.39l.57.14.38.1,0,0A11.35,11.35,0,0,1,62.79,47a.58.58,0,0,1-.22.05m-1.79-1-.17-.15-.23.54a9.84,9.84,0,0,0-2.44-2.62l.54.17.77.22.07,0a11.31,11.31,0,0,1,2,2.2c-.22-.16-.41-.31-.53-.41m-1.55-.72,0-.13a11.54,11.54,0,0,1,.93,1.18,2.58,2.58,0,0,1-.88-1.05m-.36.2,0,0c0,.09-.05.08-.06.08-.26,0-.41-.31-.5-.54s-.15-.49-.25-.72a2.07,2.07,0,0,0-.19-.32,2.13,2.13,0,0,0-.29-.31,1.78,1.78,0,0,1,.36.25l.31.25c.21.19.42.38.63.59L59,45Zm5-2,.15-.27,0-.07c0-.09,0-.34-.34-.56a3.72,3.72,0,0,0-2.06-.06v-.12a.33.33,0,0,0-.05-.24.49.49,0,0,0-.35-.2,2.39,2.39,0,0,0-1.34.4.35.35,0,0,0-.27-.37c-.57-.16-1.06.35-1.41.73a3.89,3.89,0,0,1-.3.29,4.2,4.2,0,0,1-.66.33.26.26,0,0,0-.13.16.22.22,0,0,0,.07.22,1.88,1.88,0,0,1,.43.49,2.09,2.09,0,0,1,.13.4c.15.49.35,1.18.93,1.3a.35.35,0,0,0,.41-.21,2.36,2.36,0,0,0,1,1,.46.46,0,0,0,.4,0,.35.35,0,0,0,.16-.19l.05-.11a3.66,3.66,0,0,0,1.85.9c.44,0,.54-.24.56-.34a.23.23,0,0,0,0-.07v-.31c.47,0,1.69-.1,2-1.11v0c.2-1-.84-1.7-1.26-1.92"/><path class="cls-1" d="M63.24,53.3l0,0a.87.87,0,0,1-.43.29c-.1-.28-.22-.55-.33-.81.31.21.44.32.47.28a8.48,8.48,0,0,0-.82-.71c-.13-.11-.27-.23-.43-.35l-.48-.4-.52-.41-.54-.42-.54-.41L59.07,50c-.35-.26-.68-.49-1-.68s-.64-.43-.8-.54h0a3.09,3.09,0,0,0,.67-.05l.43-.16c.42-.18.94-.4,1.24-.15,0,0,0,0,0,.09l0,0-.13.19-.23.34.4-.08a2.7,2.7,0,0,1,1.51.07l.08.06,0,0h0v0l0,0,0,0,0,.07,0,.06,0,.07,0,.06,0,.05,0,0v0h0l.22,0a3.85,3.85,0,0,1,1.87.81c.09.12.1.2.09.23s0,0,0,0l-.51.4.13.13s1,1.15.47,2m-1.36.31A10.65,10.65,0,0,0,61.29,52l.27.19.45.32.13.08,0,0a11.21,11.21,0,0,1,.44,1,1.92,1.92,0,0,1-.72,0m-.68-.24L61,53.28l-.15.37a11.75,11.75,0,0,0-.79-2.55l.42.33.44.32,0,0a10.28,10.28,0,0,1,.67,1.75,3.34,3.34,0,0,1-.46-.18m-.67.49a1.89,1.89,0,0,1-.66-.62,12,12,0,0,0-.89-3l.46.36.31.25,0,0a11.24,11.24,0,0,1,1,3,.52.52,0,0,1-.21,0m-1.25-1.61-.1-.21-.43.4a9.56,9.56,0,0,0-1.17-3.38l.43.37.61.51,0,.08a10.91,10.91,0,0,1,.93,2.81,6,6,0,0,1-.31-.58M58.15,51v-.14a11.52,11.52,0,0,1,.37,1.46A2.53,2.53,0,0,1,58.15,51m-.41,0,0,0c-.05.08-.08.06-.09,0a.79.79,0,0,1-.23-.69c0-.26.06-.51.06-.76a1.5,1.5,0,0,0,0-.37,1.7,1.7,0,0,0-.13-.4,2.3,2.3,0,0,1,.23.37l.17.36a7,7,0,0,1,.34.79l.09.22Zm5.63,0s0,0,.05,0,.17-.3-.09-.65a3.63,3.63,0,0,0-1.85-.89l.06-.11a.32.32,0,0,0,.05-.24.49.49,0,0,0-.24-.32A2.28,2.28,0,0,0,60,48.61a.37.37,0,0,0-.09-.46c-.46-.38-1.11-.1-1.59.1l-.39.14a3.83,3.83,0,0,1-.73,0,.22.22,0,0,0-.19.09.24.24,0,0,0,0,.23,2.51,2.51,0,0,1,.2.62,3.88,3.88,0,0,1,0,.42c-.07.51-.16,1.22.32,1.57a.36.36,0,0,0,.46,0,2.31,2.31,0,0,0,.52,1.3.46.46,0,0,0,.37.16.33.33,0,0,0,.22-.11l.09-.09a3.76,3.76,0,0,0,1.32,1.58c.41.16.6,0,.66-.08a.17.17,0,0,0,0-.07l.12-.28c.43.19,1.59.59,2.27-.21l0,0c.6-.87-.09-1.9-.38-2.27Z"/><path class="cls-1" d="M56.21,52.83h0l-.61.2.07.17s.6,1.43-.22,2l0,0a1.07,1.07,0,0,1-.51.13,8.38,8.38,0,0,0,0-.88c.23.31.31.45.35.42a8,8,0,0,0-.53-.94c-.09-.15-.18-.31-.29-.48s-.2-.35-.32-.53-.22-.37-.35-.56l-.36-.58L53,51.26c-.12-.19-.25-.37-.37-.55l-.67-1c-.25-.35-.46-.62-.58-.77h0a2.91,2.91,0,0,0,.64.18,3.61,3.61,0,0,0,.46,0c.46,0,1,0,1.22.29,0,0,0,0,0,.08l0,0-.19.14-.33.24.4.06a2.82,2.82,0,0,1,1.41.57.41.41,0,0,1,.05.09s0,0,0,0h0l0,0,0,0,0,0-.05,0,0,0-.06.05,0,0-.05,0,0,0,0,0h0l.2.11c.36.21,1.33.87,1.48,1.38a.4.4,0,0,1,0,.26M54,55.07a9.87,9.87,0,0,0,0-1.72l.18.27.32.45.09.12v0a10.28,10.28,0,0,1,.06,1.13,2,2,0,0,1-.66-.29m-.18-.13a2.53,2.53,0,0,1-.37-.33l-.12-.13-.27.29a11.58,11.58,0,0,0,.11-2.66c.09.15.19.3.29.45l.3.45v.06a10.42,10.42,0,0,1,0,1.87m-1,0a.47.47,0,0,1-.18-.11,1.83,1.83,0,0,1-.42-.8,12.27,12.27,0,0,0,.18-3.14l.31.5.21.33v0a10.8,10.8,0,0,1-.1,3.18m-.82-2,0-.23-.53.22a9.53,9.53,0,0,0,0-3.57l.29.5c.11.2.25.44.4.68v.09a11,11,0,0,1-.07,3c0-.27-.08-.51-.1-.65m-1-1.71-.05,0c-.08,0-.1,0-.11,0a.84.84,0,0,1,0-.74c.1-.23.23-.45.32-.69a1.53,1.53,0,0,0,.08-.37,1.48,1.48,0,0,0,0-.42,2.23,2.23,0,0,1,.1.43c0,.13,0,.26,0,.39,0,.29,0,.58.06.86,0,.08,0,.16,0,.24Zm.31,1.48a2.52,2.52,0,0,1,.08-1.37l.06-.13a11.47,11.47,0,0,1-.14,1.5M55.07,51l.09-.09a.32.32,0,0,0,.13-.21.47.47,0,0,0-.13-.38,2.34,2.34,0,0,0-1.24-.63.36.36,0,0,0,.06-.46c-.3-.51-1-.47-1.52-.44H52a3.68,3.68,0,0,1-.7-.22.26.26,0,0,0-.21,0,.24.24,0,0,0-.11.21,2,2,0,0,1,0,.65,2.08,2.08,0,0,1-.18.38c-.23.46-.56,1.09-.22,1.58a.36.36,0,0,0,.44.13,2.38,2.38,0,0,0,.05,1.4.49.49,0,0,0,.3.27.34.34,0,0,0,.25,0l.11,0a3.62,3.62,0,0,0,.72,1.93c.33.29.56.2.64.14l.06-.05.2-.22c.34.32,1.3,1.09,2.21.56l0,0c.86-.62.56-1.81.41-2.26l.29-.09.07,0c.08,0,.26-.22.13-.64-.17-.59-1-1.21-1.44-1.46"/><path class="cls-1" d="M62.68,36.18,63,36l.49-.27.13-.07h0a8.59,8.59,0,0,1,1.12.06,1.88,1.88,0,0,1-.35.62,10.64,10.64,0,0,0-1.72-.19m1.19.69-.14.11.25.3a11.33,11.33,0,0,0-2.63-.43l.48-.23.49-.25h.06a9.39,9.39,0,0,1,1.86.17,2.33,2.33,0,0,1-.37.33m.14.83a1.87,1.87,0,0,1-.84.31,12.23,12.23,0,0,0-3.09-.55l.52-.24L61,37h0a11.6,11.6,0,0,1,3.14.48.47.47,0,0,1-.13.18m-2,.4h-.23l.16.56a9.52,9.52,0,0,0-3.55-.45l.53-.23.73-.32h.09a11.44,11.44,0,0,1,2.93.42l-.66,0m-1.66.43-.12-.07a12.6,12.6,0,0,1,1.47.32,2.6,2.6,0,0,1-1.35-.25m-.13.54a.83.83,0,0,1-.73-.1c-.22-.12-.42-.28-.65-.39a1.48,1.48,0,0,0-.35-.13,2,2,0,0,0-.42-.05,1.6,1.6,0,0,1,.44,0h.39c.29,0,.58,0,.86,0l.24,0,.19.49,0,.05c0,.09,0,.1,0,.11M58,38.31a3.81,3.81,0,0,0,.26-.62c0-.13,0-.29,0-.46,0-.46.07-1,.43-1.18,0,0,0,0,.07.06l0,0,.12.21.2.36.11-.4A2.72,2.72,0,0,1,60,35a.18.18,0,0,1,.09,0,0,0,0,0,1,0,0h0l0,0,0,0,0,0,0,.06a.21.21,0,0,1,0,.06l.05.06,0,0a.1.1,0,0,0,0,.05l0,0,0,0v0l.14-.19c.25-.33,1-1.22,1.55-1.31a.38.38,0,0,1,.25,0l0,0,.12.63.18,0s1.49-.43,2,.46v0a1,1,0,0,1,.07.52l-.88-.06c.33-.19.49-.25.47-.3a7.58,7.58,0,0,0-1,.42l-.51.22-.57.25c-.19.1-.39.19-.6.28l-.61.3-.62.31c-.2.09-.39.2-.59.3-.38.19-.73.38-1,.55l-.84.48h0m7-3.41,0,0c-.51-.93-1.74-.77-2.2-.68l-.06-.3,0-.07c-.05-.08-.2-.28-.63-.21a3.69,3.69,0,0,0-1.62,1.27l-.07-.1a.38.38,0,0,0-.2-.16.49.49,0,0,0-.39.08,2.32,2.32,0,0,0-.77,1.16.36.36,0,0,0-.45-.11c-.54.23-.59.94-.62,1.46a4.07,4.07,0,0,1,0,.41,5.14,5.14,0,0,1-.3.67.22.22,0,0,0,0,.21.21.21,0,0,0,.2.13,2.54,2.54,0,0,1,.64.1,3.16,3.16,0,0,1,.35.22c.43.29,1,.69,1.55.41a.35.35,0,0,0,.18-.42,2.4,2.4,0,0,0,1.4.12.48.48,0,0,0,.3-.27.33.33,0,0,0,0-.24l0-.12a3.69,3.69,0,0,0,2-.49c.32-.29.26-.53.21-.62a.15.15,0,0,0,0-.06l-.2-.23c.37-.3,1.24-1.16.83-2.13"/><path class="cls-1" d="M44.86,14.68h0a1,1,0,0,1,.51-.11c0,.3,0,.59,0,.88-.21-.32-.29-.47-.33-.44a7.26,7.26,0,0,0,.49,1l.26.49.29.54.32.58.34.59c.12.2.23.4.35.59s.23.39.34.57c.23.37.44.71.63,1s.42.64.53.8h0a2.47,2.47,0,0,0-.64-.21,3.17,3.17,0,0,0-.45,0c-.46,0-1,0-1.21-.34,0,0,0,0,0-.08l0,0,.2-.13.34-.23-.4-.07a2.69,2.69,0,0,1-1.38-.64.41.41,0,0,1,0-.09v0h0l0,0,0,0,0,0,.05,0,.06-.05,0-.05.06,0,0,0,0,0,0,0h0l-.19-.12c-.35-.23-1.29-.93-1.42-1.45A.41.41,0,0,1,44,17h0l.62-.17-.06-.17s-.53-1.46.32-2m.72-.09a1.88,1.88,0,0,1,.65.32,10.1,10.1,0,0,0-.07,1.72L46,16.35c-.1-.17-.2-.32-.3-.47l-.08-.12v0a10.51,10.51,0,0,1,0-1.13m.83.46a2.7,2.7,0,0,1,.35.34l.12.14.28-.28a11.93,11.93,0,0,0-.23,2.65c-.1-.15-.19-.3-.28-.46s-.18-.31-.28-.46v-.06a9.84,9.84,0,0,1,0-1.87m1,0a.62.62,0,0,1,.18.13A1.8,1.8,0,0,1,48,16a12.19,12.19,0,0,0-.32,3.13l-.29-.51c-.06-.12-.13-.23-.2-.35v0a10.86,10.86,0,0,1,.26-3.18m.72,2.09v.22l.54-.2a9.83,9.83,0,0,0-.2,3.57l-.25-.51-.37-.7v-.09a10.91,10.91,0,0,1,.21-2.95c0,.26.06.51.07.66m.7.25a2.59,2.59,0,0,1-.15,1.37l-.06.12a10.26,10.26,0,0,1,.21-1.49m.24,1.5,0,0c.08-.05.1,0,.11,0a.82.82,0,0,1,0,.73c-.1.23-.25.44-.35.68a1.61,1.61,0,0,0-.1.36,2,2,0,0,0,0,.42,1.61,1.61,0,0,1-.07-.43c0-.13,0-.27,0-.4,0-.28,0-.57,0-.86,0-.07,0-.16,0-.23Zm-4.89-2.28-.3.08-.06,0c-.09.05-.28.21-.17.64.15.6,1,1.25,1.37,1.53l-.09.07a.4.4,0,0,0-.14.21.55.55,0,0,0,.1.39,2.39,2.39,0,0,0,1.22.68.36.36,0,0,0-.08.46c.27.52,1,.52,1.5.52h.41a3.57,3.57,0,0,1,.7.25.21.21,0,0,0,.2,0,.22.22,0,0,0,.12-.2,2,2,0,0,1,0-.65,3.62,3.62,0,0,1,.2-.37c.26-.45.61-1.07.3-1.57a.37.37,0,0,0-.43-.16,2.47,2.47,0,0,0,0-1.4.51.51,0,0,0-.28-.28.34.34,0,0,0-.25,0l-.12,0a3.65,3.65,0,0,0-.62-2c-.32-.3-.55-.22-.64-.17l-.06.05L46.9,15c-.33-.34-1.25-1.15-2.18-.67l0,0c-.89.58-.64,1.79-.51,2.24"/><path class="cls-1" d="M53.44,41a1.89,1.89,0,0,0-.1.36,1.94,1.94,0,0,0,0,.42,2.13,2.13,0,0,1-.07-.44l0-.39c0-.29,0-.57,0-.86v-.24l.47-.23,0,0c.08,0,.1,0,.11,0a.79.79,0,0,1-.05.73c-.1.23-.25.44-.35.68m-.21.84a3.82,3.82,0,0,0-.63-.21h-.46c-.46,0-1,0-1.21-.34,0,0,0,0,0-.08l0,0,.2-.13.34-.23-.4-.08a2.73,2.73,0,0,1-1.38-.64.22.22,0,0,1-.05-.08v0h0l0,0,0,0s0,0,0,0l0-.05.06,0,.06,0,0-.05,0,0,0,0,0,0h0l-.2-.12c-.35-.23-1.29-.93-1.41-1.45a.45.45,0,0,1,0-.26h0l.62-.18-.06-.17s-.53-1.46.32-2h0a.94.94,0,0,1,.51-.1q0,.45,0,.87c-.21-.31-.28-.46-.33-.43a6.89,6.89,0,0,0,.49,1c.08.15.16.32.26.49l.29.55.32.58c.12.19.23.39.34.59l.35.59.34.57.63,1c.23.36.42.64.54.8h0m-3-6.53a1.81,1.81,0,0,1,.64.31,10.14,10.14,0,0,0-.07,1.72c-.06-.09-.12-.18-.17-.27l-.3-.47-.09-.13v0a8.33,8.33,0,0,1,0-1.12m.82.45a1.92,1.92,0,0,1,.35.35l.12.14.28-.28a11.88,11.88,0,0,0-.23,2.65l-.27-.46L51,37.74v-.07a9.87,9.87,0,0,1,0-1.87m1,0a.41.41,0,0,1,.18.12,1.74,1.74,0,0,1,.37.82,12.12,12.12,0,0,0-.32,3.12L52,39.38,51.77,39v0A11.14,11.14,0,0,1,52,35.83m.72,2.08v.23l.55-.2a9.4,9.4,0,0,0-.2,3.57L52.84,41c-.11-.22-.24-.45-.37-.7v-.09a11,11,0,0,1,.21-3c0,.27.06.51.07.66m.7.26a2.46,2.46,0,0,1-.15,1.36l-.06.13a11.6,11.6,0,0,1,.21-1.49M53.82,41c.26-.45.61-1.07.3-1.57a.36.36,0,0,0-.43-.16,2.39,2.39,0,0,0,0-1.4.48.48,0,0,0-.28-.28.34.34,0,0,0-.25,0l-.11,0a3.72,3.72,0,0,0-.63-2c-.32-.31-.55-.22-.64-.17s0,0,0,0l-.22.22c-.33-.34-1.25-1.16-2.18-.67l0,0c-.89.57-.65,1.78-.52,2.24l-.29.08-.07,0c-.09,0-.27.21-.17.64.15.59,1,1.25,1.38,1.52l-.1.08a.36.36,0,0,0-.14.21.48.48,0,0,0,.11.38,2.27,2.27,0,0,0,1.21.69.36.36,0,0,0-.08.46c.27.52,1,.52,1.5.51a2.62,2.62,0,0,1,.42,0,3.51,3.51,0,0,1,.69.24.22.22,0,0,0,.21,0,.24.24,0,0,0,.11-.21,2.74,2.74,0,0,1,0-.64,2.29,2.29,0,0,1,.2-.37"/><path class="cls-1" d="M46,27.49a1.51,1.51,0,0,0-.07.37,2.82,2.82,0,0,0,0,.41,2,2,0,0,1-.11-.42c0-.13,0-.26-.07-.39,0-.28-.07-.57-.09-.85a1.94,1.94,0,0,1,0-.24l.45-.27,0,0c.08-.06.1,0,.11,0a.84.84,0,0,1,0,.74c-.08.24-.21.46-.28.71m-.13.86a4.07,4.07,0,0,0-.65-.15l-.46,0c-.45.05-1,.11-1.23-.22,0,0,0,0,0-.08l0,0,.19-.15.32-.26-.41,0a2.56,2.56,0,0,1-1.43-.5l-.06-.08v0h0l0,0,0,0,.05,0,0,0,0-.05.05-.05,0-.05,0-.05,0,0,0,0h0l-.2-.1c-.37-.2-1.38-.8-1.55-1.31a.41.41,0,0,1,0-.25l0,0,.6-.23-.08-.17s-.67-1.39.12-2h0a.94.94,0,0,1,.5-.15q0,.45.09.87c-.25-.29-.33-.44-.37-.41a6.06,6.06,0,0,0,.57.92l.31.46.34.52c.13.17.25.36.38.54l.4.56c.13.19.27.37.4.55s.27.36.4.53c.25.35.5.66.71.93s.49.6.62.74h0m-3-6A11.92,11.92,0,0,0,43,24.11l-.19-.26-.35-.43-.09-.12v0a9.85,9.85,0,0,1-.12-1.12,1.75,1.75,0,0,1,.67.25m.58.43.13.13.25-.31a11.84,11.84,0,0,0,0,2.67l-.31-.44-.33-.43v-.06a11.1,11.1,0,0,1-.14-1.87,3.58,3.58,0,0,1,.39.31m.6-.38a.57.57,0,0,1,.19.11,1.8,1.8,0,0,1,.45.77,12.25,12.25,0,0,0,0,3.14L44.39,26a3.71,3.71,0,0,1-.23-.32v0a11.21,11.21,0,0,1,0-3.19m.78,1.36a5.63,5.63,0,0,1,.14.65l0,.22.52-.25A9.71,9.71,0,0,0,45.72,28l-.31-.48L45,26.84l0-.08a11.05,11.05,0,0,1-.08-3m.86.84a2.54,2.54,0,0,1,0,1.37l-.06.13a13,13,0,0,1,.07-1.5m.65,2.79c.22-.47.51-1.12.15-1.59a.37.37,0,0,0-.45-.11,2.38,2.38,0,0,0-.12-1.4.47.47,0,0,0-.31-.25.31.31,0,0,0-.24,0l-.11.05a3.77,3.77,0,0,0-.81-1.89c-.35-.27-.57-.17-.65-.11l-.06,0-.19.24c-.36-.31-1.35-1-2.24-.46l0,0c-.83.66-.47,1.83-.3,2.27l-.28.11-.06,0c-.08.06-.25.24-.11.65.21.58,1.11,1.15,1.52,1.39l-.09.08a.35.35,0,0,0-.11.22.49.49,0,0,0,.13.38,2.33,2.33,0,0,0,1.28.56.38.38,0,0,0,0,.47c.33.49,1,.42,1.54.37l.42,0a3.35,3.35,0,0,1,.71.18.23.23,0,0,0,.21,0,.22.22,0,0,0,.09-.21,2.34,2.34,0,0,1,0-.65,3.6,3.6,0,0,1,.16-.39"/><path class="cls-1" d="M58.6,19.9a3.13,3.13,0,0,0,0-.46c0-.45,0-1,.39-1.19,0,0,0,0,.07.05l0,0,.12.2.21.35.09-.39a2.89,2.89,0,0,1,.69-1.36l.09,0s0,0,0,0h0l0,0,0,0,0,0,0,.06,0,0,.05.06,0,.06,0,.05,0,0,0,0v0l.13-.19c.24-.34,1-1.26,1.51-1.36a.37.37,0,0,1,.25,0,0,0,0,0,1,0,0l.15.62.18-.06s1.47-.47,2,.4v0a.94.94,0,0,1,.09.51l-.88,0c.33-.2.48-.27.45-.31a6.08,6.08,0,0,0-1,.45l-.5.24-.56.27-.59.3-.6.32-.6.32-.58.33-1,.59c-.37.21-.65.4-.82.5h0a3.34,3.34,0,0,0,.23-.63m6.07-1.52A11.47,11.47,0,0,0,63,18.24l.28-.16.48-.28.12-.08h0a8.51,8.51,0,0,1,1.12,0,1.83,1.83,0,0,1-.34.63m-.5.51L64,19l.27.29A11.66,11.66,0,0,0,61.65,19l.47-.25.48-.26h.06a10.17,10.17,0,0,1,1.87.12,3.43,3.43,0,0,1-.36.33m.16.82a1.68,1.68,0,0,1-.83.35,11.53,11.53,0,0,0-3.11-.44c.17-.09.35-.17.52-.27l.36-.18h0a11,11,0,0,1,3.16.37.39.39,0,0,1-.13.17m-2,.47h-.22l.18.55a9.38,9.38,0,0,0-3.56-.33l.52-.24.71-.35h.09a10.85,10.85,0,0,1,3,.32,6.47,6.47,0,0,1-.67,0m-1.64.5-.12-.07a10.3,10.3,0,0,1,1.48.27,2.77,2.77,0,0,1-1.36-.2m-.11.54a.79.79,0,0,1-.73-.08c-.23-.11-.43-.27-.67-.37a1.42,1.42,0,0,0-.35-.11,1.46,1.46,0,0,0-.42,0,2.12,2.12,0,0,1,.44-.06h.39a8.23,8.23,0,0,1,.86,0h.24l.21.48,0,.05c0,.08,0,.1,0,.11m-2.4-.36a3,3,0,0,1,.65.07,3.19,3.19,0,0,1,.36.22c.44.27,1,.65,1.56.36a.36.36,0,0,0,.17-.43,2.39,2.39,0,0,0,1.4.06.46.46,0,0,0,.29-.27.3.3,0,0,0,0-.25l0-.11a3.66,3.66,0,0,0,2-.56c.32-.3.24-.54.19-.62a.14.14,0,0,0,0-.07L64.51,19c.36-.31,1.2-1.2.75-2.15l0,0c-.54-.91-1.76-.71-2.21-.6L63,16s0,0,0-.07-.2-.28-.63-.19c-.6.12-1.29.94-1.58,1.32l-.07-.1a.37.37,0,0,0-.21-.15.49.49,0,0,0-.39.09,2.37,2.37,0,0,0-.73,1.19.36.36,0,0,0-.45-.1c-.53.26-.56,1-.57,1.48,0,.16,0,.31,0,.42a4.21,4.21,0,0,1-.27.68.26.26,0,0,0,0,.21.24.24,0,0,0,.2.12"/><path class="cls-1" d="M58.11,24.77a11,11,0,0,0-1.67-.42l.3-.11.52-.2L57.4,24h0a7.71,7.71,0,0,1,1.11.21,1.89,1.89,0,0,1-.44.57m-.58.42-.16.09.22.33A12,12,0,0,0,55,24.85l.51-.17.51-.18h.06a9.23,9.23,0,0,1,1.83.42,2.53,2.53,0,0,1-.41.27m0,.84a1.78,1.78,0,0,1-.87.2,12.25,12.25,0,0,0-3-.94l.55-.17.38-.13h0a10.89,10.89,0,0,1,3.07.88.59.59,0,0,1-.16.15m-2,.14-.22,0,.08.57a9.68,9.68,0,0,0-3.46-.91l.56-.15.76-.22h.09a10.85,10.85,0,0,1,2.85.79c-.27,0-.51,0-.66-.06m-1.7.22-.11-.09a11.08,11.08,0,0,1,1.42.51,2.58,2.58,0,0,1-1.31-.42m-.2.51a.77.77,0,0,1-.7-.19c-.21-.14-.39-.33-.6-.47a1.48,1.48,0,0,0-.33-.17,1.91,1.91,0,0,0-.41-.11A2.16,2.16,0,0,1,52,26l.39.05a8.46,8.46,0,0,1,.85.16l.23,0,.13.51v.05c0,.09,0,.1,0,.1m-2.09-1a2.57,2.57,0,0,0,.33-.58,2.28,2.28,0,0,0,.11-.45c.09-.44.2-1,.57-1.11,0,0,0,0,.07.07l0,0,.08.22.16.38.15-.38c.12-.28.51-1.06.9-1.22a.19.19,0,0,1,.1,0h0l0,0,0,0,0,.05,0,.06,0,.07,0,.06,0,.06,0,.06,0,0,0,0v0l.16-.17c.3-.3,1.17-1.08,1.71-1.1a.38.38,0,0,1,.25.05s0,0,0,0l0,.64.18,0s1.54-.22,1.91.72v0a1,1,0,0,1,0,.52c-.29-.07-.58-.13-.86-.17.35-.15.51-.19.49-.24a8.06,8.06,0,0,0-1,.29l-.53.15-.6.18-.63.2-.65.22-.64.22-.63.22c-.4.15-.78.29-1.09.42l-.89.37h0m7.4-2.47,0,0c-.38-1-1.62-1-2.09-1l0-.3a.23.23,0,0,0,0-.07c0-.1-.16-.31-.6-.29a3.67,3.67,0,0,0-1.77,1l0-.11a.37.37,0,0,0-.18-.17.47.47,0,0,0-.4,0,2.39,2.39,0,0,0-.91,1.05.38.38,0,0,0-.43-.17c-.57.17-.71.86-.81,1.37,0,.15-.06.3-.09.4a4.36,4.36,0,0,1-.38.63.23.23,0,0,0,.15.36,2.53,2.53,0,0,1,.62.18,3.29,3.29,0,0,1,.32.27c.39.34.93.81,1.48.61a.37.37,0,0,0,.24-.4,2.36,2.36,0,0,0,1.37.3.49.49,0,0,0,.33-.23.36.36,0,0,0,0-.24l0-.12a3.64,3.64,0,0,0,2-.23c.37-.25.33-.49.3-.58a.14.14,0,0,0,0-.07l-.16-.25c.39-.26,1.38-1,1.09-2"/></svg>