<svg id="Capa_1" data-name="Capa 1" xmlns="http://www.w3.org/2000/svg" xmlns:xlink="http://www.w3.org/1999/xlink" viewBox="0 0 106 110"><defs><style>.cls-1{fill:none;}.cls-2{clip-path:url(#clip-path);}.cls-3{fill:#840e33;}.cls-4{fill:#b99359;}</style><clipPath id="clip-path"><rect class="cls-1" x="-125.11" y="-630.01" width="1280" height="355"/></clipPath></defs><title>icons</title><g class="cls-2"><polygon class="cls-3" points="-54.76 -569.01 59.06 -569.01 327.13 -178.69 327.13 122.88 -54.76 -438.7 -54.76 -569.01"/></g><circle class="cls-3" cx="53" cy="55" r="50"/><path class="cls-4" d="M82.88,65.71h-.76A1.74,1.74,0,0,1,80.36,64v-.55h.08V44l4.2-1.54V64A1.74,1.74,0,0,1,82.88,65.71Zm-1.35-1.43a.65.65,0,0,0,.59.34h.76a.65.65,0,0,0,.67-.66V44l-2,.74V64.28Z"/><path class="cls-4" d="M86.6,78.91H78.32v-.54c0-5.78,1.46-11.92,4.18-11.92a2.06,2.06,0,0,1,1.49.7c1.63,1.65,2.68,6.16,2.62,11.22Zm-7.19-1.08h6.12c0-5.22-1.19-8.78-2.31-9.91a1,1,0,0,0-.71-.38C81.24,67.53,79.5,71.43,79.41,77.83Z"/><path class="cls-4" d="M51,65.71c-13.4,0-21.4-3.57-21.4-9.57V46.82L51,54.13l21.4-7.39v9.41C72.42,62.14,64.42,65.71,51,65.71ZM30.71,48.33v7.81c0,5.31,7.59,8.49,20.31,8.49,9.82,0,20.32-2.23,20.32-8.49V48.26L51,55.28Z"/><path class="cls-4" d="M51,53.08,14.36,39.72,50.57,28.34l.15.05L87.86,39.55ZM17.74,39.8,51,51.92l33.4-12.26L50.57,29.48Z"/><path class="cls-3" d="M73.65,71.85V66.41c0-1.51-4.16-1.63-5.43-1.63h-.55V57.17c0-1.51-4.15-1.63-5.43-1.63s-5.44.12-5.44,1.63v2.19a14.57,14.57,0,0,0-4.34-.56c-1.28,0-5.44.12-5.44,1.63V71.85"/><path class="cls-4" d="M73.11,72.93H50.28A.52.52,0,0,0,50,73L41.3,78.45a.54.54,0,0,0,.29,1H64.41a.57.57,0,0,0,.29-.08l8.7-5.44a.53.53,0,0,0,.23-.6A.55.55,0,0,0,73.11,72.93Zm-8.85,5.44H43.48l7-4.35H71.22Z"/><path class="cls-4" d="M64.26,87.07H41.59v1.08H64.41a.57.57,0,0,0,.29-.08l8.7-5.43-.58-.93Z"/><path class="cls-4" d="M64.26,80.54H41.59v1.09H64.41a.57.57,0,0,0,.29-.08l8.7-5.44-.58-.92Z"/><path class="cls-4" d="M64.26,82.72H41.59V83.8H64.41a.49.49,0,0,0,.29-.08l8.7-5.43-.58-.93Z"/><path class="cls-4" d="M64.26,84.89H41.59V86H64.41a.57.57,0,0,0,.29-.08l8.7-5.44-.58-.92Z"/><path class="cls-4" d="M55,77.28h.85a1.87,1.87,0,0,0,1.09-.36l1.49-1.12a.8.8,0,0,1,.44-.15h.85a.73.73,0,0,1,.52,1.25l.76.76a1.68,1.68,0,0,0,.5-.93h1.84V75.65h-2a1.78,1.78,0,0,0-1.66-1.09h-.85a1.85,1.85,0,0,0-1.09.36L56.27,76a.69.69,0,0,1-.44.15H55a.7.7,0,0,1-.67-.45.72.72,0,0,1,.16-.79l-.77-.77a1.81,1.81,0,0,0-.5.93H51.37V76.2h2A1.79,1.79,0,0,0,55,77.28Z"/><path class="cls-4" d="M68.22,64.78h-.55V57.17c0-1.51-4.15-1.63-5.43-1.63s-5.44.12-5.44,1.63v2.19a14.57,14.57,0,0,0-4.34-.56c-1.28,0-5.44.12-5.44,1.63V71.85h1.09V70.21a14.92,14.92,0,0,0,4.35.55,14.53,14.53,0,0,0,4.34-.55v1.64h1.09V69.12a14.92,14.92,0,0,0,4.35.55V68.59a10.12,10.12,0,0,1-4.35-.66V67a14.63,14.63,0,0,0,4.35.56V66.42a10.19,10.19,0,0,1-4.35-.65v-1a14.63,14.63,0,0,0,4.35.56V64.25a10.19,10.19,0,0,1-4.35-.65v-1a14.63,14.63,0,0,0,4.35.56,14.67,14.67,0,0,0,4.35-.56v2.25c-1.68.12-3.81.49-3.81,1.57v5.43h1.09V69.68a14.92,14.92,0,0,0,4.35.55,14.62,14.62,0,0,0,4.35-.55v2.17h1.08V66.41C73.65,64.9,69.49,64.78,68.22,64.78ZM57.89,58.25a14.92,14.92,0,0,0,4.35.55,14.62,14.62,0,0,0,4.35-.55v1a10.12,10.12,0,0,1-4.35.66,10.12,10.12,0,0,1-4.35-.66Zm4.35-1.62a12.23,12.23,0,0,1,4.14.54,12.1,12.1,0,0,1-4.14.55,12.14,12.14,0,0,1-4.14-.55A12.23,12.23,0,0,1,62.24,56.63ZM56.8,62.5a10.09,10.09,0,0,1-4.34.65,10.15,10.15,0,0,1-4.35-.65v-1a14.92,14.92,0,0,0,4.35.55,14.53,14.53,0,0,0,4.34-.55Zm0,2.17a10,10,0,0,1-4.34.66,10.08,10.08,0,0,1-4.35-.66v-1a14.92,14.92,0,0,0,4.35.55,14.53,14.53,0,0,0,4.34-.55Zm0,2.18a10.09,10.09,0,0,1-4.34.65,10.15,10.15,0,0,1-4.35-.65v-1a14.63,14.63,0,0,0,4.35.56,14.57,14.57,0,0,0,4.34-.56Zm-4.34-7a12.56,12.56,0,0,1,4.14.54,12.19,12.19,0,0,1-4.14.55,12.14,12.14,0,0,1-4.14-.55A12.51,12.51,0,0,1,52.46,59.89ZM48.11,69V68a14.92,14.92,0,0,0,4.35.55A14.53,14.53,0,0,0,56.8,68v1a10.09,10.09,0,0,1-4.34.65A10.15,10.15,0,0,1,48.11,69Zm9.78-7.61v-1a14.92,14.92,0,0,0,4.35.55,14.62,14.62,0,0,0,4.35-.55v1a10.12,10.12,0,0,1-4.35.66A10.12,10.12,0,0,1,57.89,61.41Zm10.33,4.46a12.28,12.28,0,0,1,4.14.54,12.19,12.19,0,0,1-4.14.55,12.14,12.14,0,0,1-4.14-.55A12.23,12.23,0,0,1,68.22,65.87Zm-4.35,2.61v-1a17.18,17.18,0,0,0,8.7,0v1a10.19,10.19,0,0,1-4.35.65A10.19,10.19,0,0,1,63.87,68.48Z"/></svg>