<svg id="Capa_1" data-name="Capa 1" xmlns="http://www.w3.org/2000/svg" viewBox="0 0 14 14"><defs><style>.cls-1{fill:#b99359;}</style></defs><title>instagram</title><path class="cls-1" d="M.51,6.78c0-1.25,0-2.5,0-3.74A2.71,2.71,0,0,1,3.24.26c2.5,0,5,0,7.51,0A2.71,2.71,0,0,1,13.49,3q0,3.72,0,7.42a2.77,2.77,0,0,1-2.92,2.89H3.43A2.78,2.78,0,0,1,.5,10.43V6.78Zm11.86,0h0V3.1a1.61,1.61,0,0,0-1.71-1.72H3.3A1.6,1.6,0,0,0,1.63,3.05c0,2.46,0,4.91,0,7.37a1.66,1.66,0,0,0,1.81,1.79h7.15a1.64,1.64,0,0,0,1.79-1.77C12.38,9.22,12.37,8,12.37,6.78Z"/><path class="cls-1" d="M10.39,6.78A3.39,3.39,0,1,1,7,3.4,3.4,3.4,0,0,1,10.39,6.78ZM7,4.52A2.27,2.27,0,1,0,9.28,6.76,2.29,2.29,0,0,0,7,4.52Z"/><path class="cls-1" d="M10.66,4a.79.79,0,0,1-.81-.77.8.8,0,0,1,.79-.81.79.79,0,0,1,.79.79A.77.77,0,0,1,10.66,4Z"/></svg>