<?xml version="1.0" encoding="utf-8"?>
<!-- Generator: Adobe Illustrator 19.0.0, SVG Export Plug-In . SVG Version: 6.00 Build 0)  -->
<svg version="1.1" id="Layer_1" xmlns="http://www.w3.org/2000/svg" xmlns:xlink="http://www.w3.org/1999/xlink" x="0px" y="0px"
	 viewBox="0 0 59.8 59.8" style="enable-background:new 0 0 59.8 59.8;" xml:space="preserve">
<style type="text/css">
	.st0{fill:#FFFFFF;}
</style>
<g id="XMLID_401_">
	<g id="XMLID_758_">
		<path id="XMLID_759_" class="st0" d="M41.9,23.8h-1.4v6.6h0.9c2.1,0,4.2-0.8,4.2-3.4C45.7,24.6,43.9,23.8,41.9,23.8z"/>
	</g>
	<g id="XMLID_402_">
		<path id="XMLID_406_" class="st0" d="M29.9,0C13.4,0,0,13.4,0,29.9s13.4,29.9,29.9,29.9s29.9-13.4,29.9-29.9S46.4,0,29.9,0z
			 M30.4,33.2c0,7-3.4,10.3-11,10.3c-7.7,0-11.1-3.3-11.1-10.3V17.8h7.8v13.7c0,2.6,0.2,5.8,3.9,5.8s3.8-3.2,3.8-5.8V17.8h6.6V33.2
			L30.4,33.2z M43.1,35.8h-2.5V43h-7.8V17.8h10.9c7,0,9.5,5.1,9.5,8.8C53.2,32.9,49,35.8,43.1,35.8z"/>
	</g>
</g>
</svg>
