<?xml version="1.0" encoding="iso-8859-1"?>
<!-- Generator: Adobe Illustrator 19.0.0, SVG Export Plug-In . SVG Version: 6.00 Build 0)  -->
<svg version="1.1" id="Layer_1" xmlns="http://www.w3.org/2000/svg" xmlns:xlink="http://www.w3.org/1999/xlink" x="0px" y="0px"
	 viewBox="0 0 447.76 138.327" style="enable-background:new 0 0 447.76 138.327;" xml:space="preserve">
<g id="XMLID_5254_">
	<g id="XMLID_5420_">
		<path id="XMLID_6623_" style="fill:#FFFFFF;" d="M18.718,114.706c-0.357,0.242-0.45,0.729-0.208,1.086
			c0.151,0.222,0.399,0.34,0.649,0.34c0.151,0,0.303-0.042,0.438-0.136c0.357-0.239,0.45-0.727,0.208-1.083
			C19.562,114.557,19.075,114.463,18.718,114.706z"/>
		<path id="XMLID_6622_" style="fill:#FFFFFF;" d="M21.74,119.147c-0.355,0.241-0.449,0.727-0.205,1.084
			c0.151,0.222,0.396,0.341,0.647,0.341c0.151,0,0.305-0.044,0.44-0.136c0.357-0.241,0.45-0.727,0.206-1.083
			C22.584,118.995,22.1,118.903,21.74,119.147z"/>
		<path id="XMLID_6621_" style="fill:#FFFFFF;" d="M3.6,92.508c-0.358,0.241-0.451,0.727-0.206,1.084
			c0.15,0.222,0.397,0.341,0.647,0.341c0.152,0,0.304-0.044,0.438-0.134c0.358-0.241,0.45-0.729,0.208-1.084
			C4.445,92.359,3.957,92.265,3.6,92.508z"/>
		<path id="XMLID_6620_" style="fill:#FFFFFF;" d="M24.765,123.585c-0.358,0.243-0.45,0.727-0.208,1.086
			c0.151,0.221,0.397,0.341,0.647,0.341c0.153,0,0.304-0.045,0.439-0.136c0.358-0.243,0.452-0.727,0.209-1.085
			C25.609,123.436,25.122,123.341,24.765,123.585z"/>
		<path id="XMLID_6619_" style="fill:#FFFFFF;" d="M15.695,110.268c-0.358,0.241-0.451,0.727-0.208,1.084
			c0.151,0.222,0.397,0.341,0.647,0.341c0.152,0,0.307-0.044,0.441-0.136c0.357-0.241,0.448-0.729,0.206-1.084
			C16.539,110.117,16.052,110.024,15.695,110.268z"/>
		<path id="XMLID_6618_" style="fill:#FFFFFF;" d="M9.648,101.387c-0.358,0.242-0.451,0.729-0.209,1.084
			c0.152,0.222,0.398,0.341,0.647,0.341c0.153,0,0.307-0.042,0.44-0.134c0.358-0.243,0.452-0.729,0.208-1.084
			C10.492,101.238,10.005,101.145,9.648,101.387z"/>
		<path id="XMLID_6617_" style="fill:#FFFFFF;" d="M12.671,105.828c-0.358,0.241-0.45,0.729-0.208,1.084
			c0.151,0.222,0.399,0.341,0.649,0.341c0.15,0,0.303-0.042,0.439-0.134c0.357-0.241,0.449-0.729,0.207-1.084
			C13.515,105.678,13.029,105.586,12.671,105.828z"/>
		<path id="XMLID_6616_" style="fill:#FFFFFF;" d="M6.622,96.949c-0.354,0.241-0.448,0.727-0.204,1.084
			c0.15,0.222,0.397,0.34,0.647,0.34c0.15,0,0.304-0.042,0.438-0.133c0.357-0.243,0.452-0.729,0.209-1.086
			C7.467,96.798,6.982,96.705,6.622,96.949z"/>
		<path id="XMLID_6615_" style="fill:#FFFFFF;" d="M32.133,124.67c0.151,0.221,0.397,0.341,0.647,0.341
			c0.151,0,0.304-0.043,0.439-0.135c0.357-0.242,0.451-0.727,0.207-1.083c-0.243-0.359-0.729-0.452-1.087-0.208
			C31.982,123.828,31.889,124.313,32.133,124.67z"/>
		<path id="XMLID_6614_" style="fill:#FFFFFF;" d="M29.109,120.232c0.151,0.222,0.398,0.34,0.649,0.34
			c0.149,0,0.304-0.042,0.438-0.135c0.358-0.242,0.451-0.725,0.208-1.083c-0.242-0.357-0.73-0.452-1.086-0.208
			C28.959,119.388,28.865,119.874,29.109,120.232z"/>
		<path id="XMLID_6613_" style="fill:#FFFFFF;" d="M6.215,83.835c-0.244-0.354-0.73-0.448-1.088-0.204
			c-0.357,0.242-0.449,0.725-0.207,1.083c0.152,0.221,0.398,0.343,0.647,0.343c0.152,0,0.304-0.044,0.44-0.135
			C6.365,84.677,6.458,84.194,6.215,83.835z"/>
		<path id="XMLID_6612_" style="fill:#FFFFFF;" d="M17.014,102.473c0.151,0.221,0.398,0.34,0.647,0.34
			c0.152,0,0.305-0.042,0.44-0.132c0.357-0.245,0.451-0.729,0.208-1.086c-0.244-0.356-0.73-0.45-1.088-0.208
			C16.865,101.63,16.771,102.115,17.014,102.473z"/>
		<path id="XMLID_6611_" style="fill:#FFFFFF;" d="M10.968,93.592c0.151,0.223,0.397,0.341,0.647,0.341
			c0.152,0,0.305-0.042,0.441-0.133c0.355-0.242,0.448-0.729,0.204-1.084c-0.242-0.357-0.728-0.45-1.084-0.206
			C10.818,92.75,10.724,93.236,10.968,93.592z"/>
		<path id="XMLID_6610_" style="fill:#FFFFFF;" d="M7.944,89.153c0.151,0.221,0.397,0.341,0.647,0.341
			c0.151,0,0.304-0.044,0.439-0.135c0.357-0.242,0.451-0.727,0.209-1.084c-0.245-0.356-0.73-0.448-1.089-0.208
			C7.794,88.311,7.7,88.796,7.944,89.153z"/>
		<path id="XMLID_6609_" style="fill:#FFFFFF;" d="M13.991,98.032c0.15,0.223,0.397,0.341,0.649,0.341
			c0.15,0,0.303-0.043,0.438-0.133c0.357-0.242,0.45-0.729,0.208-1.084c-0.243-0.357-0.73-0.452-1.087-0.208
			C13.842,97.19,13.749,97.676,13.991,98.032z"/>
		<path id="XMLID_6608_" style="fill:#FFFFFF;" d="M35.157,129.111c0.151,0.222,0.397,0.341,0.647,0.341
			c0.152,0,0.305-0.044,0.44-0.135c0.357-0.242,0.45-0.729,0.208-1.086c-0.244-0.356-0.729-0.45-1.087-0.206
			C35.006,128.268,34.914,128.752,35.157,129.111z"/>
		<path id="XMLID_6607_" style="fill:#FFFFFF;" d="M23.063,111.351c0.15,0.223,0.395,0.341,0.647,0.341
			c0.152,0,0.305-0.042,0.44-0.135c0.357-0.24,0.45-0.729,0.208-1.083c-0.244-0.357-0.729-0.45-1.088-0.208
			C22.912,110.509,22.818,110.996,23.063,111.351z"/>
		<path id="XMLID_6606_" style="fill:#FFFFFF;" d="M20.039,106.911c0.151,0.223,0.397,0.341,0.647,0.341
			c0.151,0,0.304-0.042,0.439-0.135c0.358-0.24,0.451-0.727,0.207-1.083c-0.243-0.357-0.729-0.45-1.087-0.208
			C19.888,106.069,19.796,106.555,20.039,106.911z"/>
		<path id="XMLID_6605_" style="fill:#FFFFFF;" d="M26.084,115.792c0.153,0.222,0.399,0.341,0.649,0.341
			c0.151,0,0.304-0.044,0.44-0.135c0.356-0.242,0.45-0.729,0.206-1.084c-0.242-0.357-0.729-0.452-1.085-0.206
			C25.934,114.949,25.842,115.434,26.084,115.792z"/>
		<path id="XMLID_6604_" style="fill:#FFFFFF;" d="M7.096,76.176c0.15,0,0.304-0.044,0.439-0.133
			c0.357-0.245,0.451-0.729,0.208-1.087c-0.244-0.356-0.729-0.448-1.088-0.207c-0.357,0.244-0.45,0.728-0.206,1.086
			C6.598,76.056,6.843,76.176,7.096,76.176z"/>
		<path id="XMLID_6603_" style="fill:#FFFFFF;" d="M25.236,102.814c0.152,0,0.304-0.044,0.44-0.134
			c0.357-0.244,0.449-0.729,0.207-1.085c-0.243-0.356-0.729-0.45-1.085-0.207c-0.36,0.243-0.452,0.728-0.208,1.084
			C24.741,102.696,24.987,102.814,25.236,102.814z"/>
		<path id="XMLID_6602_" style="fill:#FFFFFF;" d="M4.072,71.737c0.151,0,0.304-0.045,0.44-0.134
			c0.357-0.244,0.448-0.729,0.208-1.084c-0.242-0.358-0.73-0.451-1.089-0.208c-0.357,0.242-0.448,0.727-0.207,1.084
			C3.576,71.618,3.822,71.737,4.072,71.737z"/>
		<path id="XMLID_6601_" style="fill:#FFFFFF;" d="M10.119,80.616c0.151,0,0.305-0.044,0.438-0.134
			c0.358-0.244,0.452-0.729,0.208-1.086c-0.242-0.355-0.73-0.447-1.085-0.206c-0.359,0.241-0.452,0.728-0.208,1.084
			C9.622,80.496,9.868,80.616,10.119,80.616z"/>
		<path id="XMLID_6600_" style="fill:#FFFFFF;" d="M43.38,129.452c0.151,0,0.304-0.044,0.438-0.136
			c0.357-0.242,0.451-0.728,0.208-1.084c-0.244-0.357-0.73-0.45-1.088-0.208c-0.357,0.244-0.45,0.729-0.207,1.085
			C42.881,129.332,43.128,129.452,43.38,129.452z"/>
		<path id="XMLID_6599_" style="fill:#FFFFFF;" d="M28.262,107.252c0.149,0,0.303-0.042,0.438-0.135
			c0.356-0.241,0.45-0.726,0.206-1.084c-0.24-0.355-0.729-0.449-1.087-0.207c-0.356,0.243-0.45,0.729-0.206,1.085
			C27.764,107.134,28.012,107.252,28.262,107.252z"/>
		<path id="XMLID_6598_" style="fill:#FFFFFF;" d="M46.402,133.892c0.151,0,0.305-0.045,0.438-0.136
			c0.358-0.243,0.453-0.729,0.208-1.085c-0.243-0.356-0.73-0.45-1.085-0.206c-0.359,0.243-0.452,0.727-0.208,1.084
			C45.907,133.771,46.152,133.892,46.402,133.892z"/>
		<path id="XMLID_6597_" style="fill:#FFFFFF;" d="M13.144,85.056c0.149,0,0.304-0.044,0.438-0.136
			c0.358-0.242,0.451-0.729,0.208-1.084c-0.244-0.357-0.729-0.447-1.086-0.206c-0.358,0.241-0.452,0.727-0.208,1.083
			C12.645,84.936,12.894,85.056,13.144,85.056z"/>
		<path id="XMLID_6596_" style="fill:#FFFFFF;" d="M40.355,125.012c0.151,0,0.303-0.044,0.44-0.135
			c0.356-0.243,0.448-0.728,0.206-1.084c-0.242-0.357-0.729-0.45-1.085-0.208c-0.359,0.244-0.452,0.729-0.208,1.085
			C39.859,124.892,40.105,125.012,40.355,125.012z"/>
		<path id="XMLID_6595_" style="fill:#FFFFFF;" d="M19.19,93.933c0.153,0,0.303-0.042,0.439-0.134
			c0.358-0.242,0.451-0.727,0.208-1.084c-0.244-0.355-0.73-0.449-1.086-0.206c-0.358,0.242-0.451,0.728-0.208,1.084
			C18.694,93.815,18.94,93.933,19.19,93.933z"/>
		<path id="XMLID_6594_" style="fill:#FFFFFF;" d="M22.215,98.373c0.15,0,0.304-0.042,0.438-0.134
			c0.357-0.242,0.45-0.729,0.208-1.084c-0.244-0.357-0.73-0.449-1.088-0.207c-0.357,0.242-0.451,0.728-0.209,1.084
			C21.716,98.255,21.963,98.373,22.215,98.373z"/>
		<path id="XMLID_6593_" style="fill:#FFFFFF;" d="M34.308,116.133c0.153,0,0.305-0.044,0.44-0.136
			c0.357-0.24,0.45-0.729,0.208-1.083c-0.245-0.358-0.73-0.452-1.088-0.207c-0.357,0.242-0.449,0.728-0.207,1.084
			C33.811,116.015,34.057,116.133,34.308,116.133z"/>
		<path id="XMLID_6592_" style="fill:#FFFFFF;" d="M31.285,111.693c0.151,0,0.304-0.042,0.439-0.135
			c0.357-0.241,0.451-0.729,0.206-1.084c-0.242-0.357-0.729-0.451-1.086-0.207c-0.357,0.242-0.45,0.729-0.206,1.084
			C30.789,111.575,31.034,111.693,31.285,111.693z"/>
		<path id="XMLID_6591_" style="fill:#FFFFFF;" d="M37.33,120.573c0.153,0,0.306-0.045,0.44-0.136
			c0.357-0.243,0.451-0.727,0.208-1.084c-0.244-0.357-0.729-0.452-1.088-0.208c-0.357,0.243-0.451,0.729-0.208,1.085
			C36.836,120.453,37.079,120.573,37.33,120.573z"/>
		<path id="XMLID_6590_" style="fill:#FFFFFF;" d="M16.166,89.496c0.151,0,0.304-0.045,0.44-0.136
			c0.357-0.244,0.45-0.729,0.206-1.085c-0.242-0.356-0.729-0.45-1.087-0.207c-0.356,0.243-0.45,0.728-0.208,1.084
			C15.67,89.375,15.916,89.496,16.166,89.496z"/>
		<path id="XMLID_6589_" style="fill:#FFFFFF;" d="M61.111,132.463c-0.357,0.244-0.451,0.729-0.207,1.088
			c0.151,0.22,0.397,0.34,0.647,0.34c0.151,0,0.305-0.043,0.44-0.133c0.357-0.244,0.45-0.727,0.208-1.086
			C61.955,132.315,61.468,132.221,61.111,132.463z"/>
		<path id="XMLID_6588_" style="fill:#FFFFFF;" d="M58.087,128.025c-0.357,0.244-0.449,0.729-0.206,1.086
			c0.151,0.222,0.397,0.341,0.647,0.341c0.151,0,0.304-0.044,0.439-0.135c0.358-0.242,0.451-0.729,0.206-1.084
			C58.931,127.875,58.444,127.781,58.087,128.025z"/>
		<path id="XMLID_6587_" style="fill:#FFFFFF;" d="M68.685,132.465c-0.356,0.242-0.45,0.727-0.206,1.086
			c0.151,0.22,0.398,0.341,0.647,0.341c0.151,0,0.304-0.045,0.44-0.135c0.356-0.244,0.45-0.728,0.206-1.086
			C69.53,132.315,69.043,132.221,68.685,132.465z"/>
		<path id="XMLID_6586_" style="fill:#FFFFFF;" d="M57.679,114.915c-0.244-0.359-0.73-0.452-1.089-0.208
			c-0.356,0.242-0.448,0.727-0.206,1.084c0.151,0.223,0.398,0.341,0.647,0.341c0.152,0,0.304-0.044,0.44-0.135
			C57.829,115.757,57.921,115.269,57.679,114.915z"/>
		<path id="XMLID_6585_" style="fill:#FFFFFF;" d="M60.702,119.354c-0.244-0.357-0.729-0.452-1.088-0.208
			c-0.357,0.244-0.45,0.727-0.206,1.086c0.151,0.222,0.397,0.34,0.647,0.34c0.151,0,0.304-0.042,0.439-0.133
			C60.851,120.194,60.945,119.71,60.702,119.354z"/>
		<path id="XMLID_6584_" style="fill:#FFFFFF;" d="M62.639,123.586c-0.359,0.242-0.452,0.727-0.208,1.084
			c0.152,0.223,0.397,0.341,0.647,0.341c0.151,0,0.305-0.044,0.44-0.135c0.357-0.242,0.45-0.727,0.206-1.083
			C63.482,123.435,62.996,123.342,62.639,123.586z"/>
		<path id="XMLID_6583_" style="fill:#FFFFFF;" d="M65.663,128.025c-0.358,0.244-0.452,0.729-0.208,1.086
			c0.15,0.222,0.397,0.341,0.647,0.341c0.151,0,0.305-0.044,0.44-0.135c0.358-0.242,0.451-0.729,0.208-1.084
			C66.507,127.875,66.02,127.783,65.663,128.025z"/>
		<path id="XMLID_6582_" style="fill:#FFFFFF;" d="M58.56,107.254c0.15,0,0.304-0.044,0.438-0.135
			c0.358-0.241,0.45-0.729,0.208-1.084c-0.243-0.357-0.73-0.45-1.086-0.207c-0.358,0.242-0.451,0.727-0.209,1.084
			C58.063,107.135,58.308,107.254,58.56,107.254z"/>
		<path id="XMLID_6581_" style="fill:#FFFFFF;" d="M70.212,123.585c-0.356,0.244-0.449,0.727-0.207,1.086
			c0.152,0.22,0.397,0.341,0.647,0.341c0.153,0,0.305-0.045,0.441-0.135c0.357-0.244,0.45-0.728,0.206-1.086
			C71.056,123.436,70.571,123.342,70.212,123.585z"/>
		<path id="XMLID_6580_" style="fill:#FFFFFF;" d="M68.276,119.354c-0.242-0.359-0.729-0.451-1.086-0.208
			c-0.357,0.242-0.45,0.729-0.208,1.084c0.151,0.223,0.399,0.342,0.649,0.342c0.15,0,0.303-0.043,0.437-0.136
			C68.426,120.195,68.519,119.709,68.276,119.354z"/>
		<path id="XMLID_6579_" style="fill:#FFFFFF;" d="M73.237,128.024c-0.358,0.244-0.451,0.729-0.208,1.088
			c0.151,0.22,0.397,0.34,0.647,0.34c0.154,0,0.305-0.044,0.44-0.136c0.358-0.242,0.451-0.727,0.209-1.084
			C74.081,127.876,73.594,127.783,73.237,128.024z"/>
		<path id="XMLID_6578_" style="fill:#FFFFFF;" d="M26.179,49.196c0.152,0.223,0.399,0.344,0.649,0.344
			c0.151,0,0.304-0.045,0.438-0.136c0.357-0.242,0.45-0.729,0.208-1.084c-0.245-0.357-0.73-0.451-1.087-0.207
			C26.029,48.355,25.937,48.84,26.179,49.196z"/>
		<path id="XMLID_6577_" style="fill:#FFFFFF;" d="M44.527,74.751c-0.356,0.241-0.448,0.727-0.206,1.084
			c0.151,0.221,0.398,0.341,0.649,0.341c0.15,0,0.303-0.044,0.438-0.134c0.357-0.243,0.452-0.729,0.208-1.086
			C45.372,74.599,44.887,74.509,44.527,74.751z"/>
		<path id="XMLID_6576_" style="fill:#FFFFFF;" d="M60.086,98.374c0.152,0,0.307-0.044,0.44-0.134
			c0.358-0.243,0.452-0.729,0.208-1.086c-0.244-0.356-0.73-0.449-1.086-0.205c-0.357,0.241-0.451,0.727-0.209,1.084
			C59.59,98.254,59.836,98.374,60.086,98.374z"/>
		<path id="XMLID_6575_" style="fill:#FFFFFF;" d="M29.851,53.979c0.151,0,0.304-0.044,0.438-0.134
			c0.358-0.244,0.452-0.729,0.208-1.086c-0.244-0.356-0.729-0.449-1.088-0.207c-0.355,0.245-0.449,0.729-0.206,1.085
			C29.354,53.858,29.6,53.979,29.851,53.979z"/>
		<path id="XMLID_6574_" style="fill:#FFFFFF;" d="M32.874,58.419c0.153,0,0.304-0.044,0.44-0.136
			c0.357-0.242,0.452-0.729,0.208-1.084c-0.242-0.357-0.73-0.449-1.087-0.207c-0.357,0.241-0.45,0.729-0.208,1.084
			C32.378,58.298,32.624,58.419,32.874,58.419z"/>
		<path id="XMLID_6573_" style="fill:#FFFFFF;" d="M50.575,83.63c-0.357,0.241-0.451,0.727-0.207,1.084
			c0.152,0.221,0.397,0.341,0.647,0.341c0.151,0,0.304-0.044,0.44-0.136c0.357-0.241,0.449-0.727,0.207-1.084
			C51.42,83.481,50.934,83.388,50.575,83.63z"/>
		<path id="XMLID_6572_" style="fill:#FFFFFF;" d="M47.552,79.191c-0.358,0.239-0.451,0.725-0.209,1.084
			c0.152,0.221,0.398,0.342,0.648,0.342c0.152,0,0.304-0.045,0.439-0.136c0.358-0.243,0.451-0.727,0.208-1.086
			C48.397,79.041,47.908,78.947,47.552,79.191z"/>
		<path id="XMLID_6571_" style="fill:#FFFFFF;" d="M63.11,102.813c0.153,0,0.304-0.042,0.439-0.134
			c0.358-0.243,0.451-0.729,0.209-1.084c-0.243-0.357-0.73-0.449-1.087-0.207c-0.358,0.241-0.45,0.729-0.208,1.084
			C62.614,102.694,62.859,102.813,63.11,102.813z"/>
		<path id="XMLID_6570_" style="fill:#FFFFFF;" d="M77.789,123.585c-0.358,0.243-0.451,0.727-0.208,1.086
			c0.151,0.222,0.399,0.341,0.648,0.341c0.152,0,0.304-0.045,0.438-0.136c0.358-0.241,0.45-0.727,0.208-1.084
			C78.631,123.435,78.145,123.341,77.789,123.585z"/>
		<path id="XMLID_6569_" style="fill:#FFFFFF;" d="M38.273,66.956c0.152,0.221,0.397,0.342,0.647,0.342
			c0.151,0,0.305-0.044,0.44-0.134c0.356-0.244,0.451-0.729,0.205-1.086c-0.243-0.356-0.727-0.449-1.085-0.205
			C38.123,66.113,38.03,66.599,38.273,66.956z"/>
		<path id="XMLID_6568_" style="fill:#FFFFFF;" d="M56.623,92.51c-0.357,0.239-0.45,0.727-0.208,1.083
			c0.151,0.222,0.399,0.341,0.649,0.341c0.151,0,0.303-0.044,0.438-0.134c0.357-0.241,0.45-0.729,0.208-1.084
			C57.467,92.358,56.979,92.265,56.623,92.51z"/>
		<path id="XMLID_6567_" style="fill:#FFFFFF;" d="M35.249,62.516c0.151,0.222,0.398,0.343,0.649,0.343
			c0.151,0,0.304-0.044,0.44-0.136c0.357-0.242,0.449-0.729,0.206-1.084c-0.242-0.359-0.73-0.449-1.086-0.207
			C35.1,61.673,35.006,62.16,35.249,62.516z"/>
		<path id="XMLID_6566_" style="fill:#FFFFFF;" d="M41.505,70.311c-0.358,0.241-0.451,0.727-0.208,1.085
			c0.151,0.222,0.399,0.34,0.648,0.34c0.151,0,0.304-0.044,0.438-0.134c0.358-0.242,0.45-0.727,0.208-1.084
			C42.349,70.16,41.862,70.068,41.505,70.311z"/>
		<path id="XMLID_6565_" style="fill:#FFFFFF;" d="M53.6,88.068c-0.358,0.241-0.451,0.729-0.208,1.084
			c0.151,0.222,0.397,0.343,0.647,0.343c0.152,0,0.305-0.044,0.441-0.136c0.355-0.241,0.448-0.729,0.205-1.084
			C54.444,87.918,53.957,87.828,53.6,88.068z"/>
		<path id="XMLID_6564_" style="fill:#FFFFFF;" d="M74.764,119.147c-0.358,0.241-0.452,0.727-0.208,1.084
			c0.151,0.222,0.397,0.341,0.647,0.341c0.151,0,0.304-0.042,0.44-0.136c0.357-0.241,0.451-0.727,0.205-1.083
			C75.607,118.995,75.121,118.903,74.764,119.147z"/>
		<path id="XMLID_6563_" style="fill:#FFFFFF;" d="M53.189,74.956c-0.242-0.357-0.728-0.447-1.086-0.205
			c-0.358,0.241-0.451,0.727-0.208,1.084c0.151,0.221,0.397,0.341,0.648,0.341c0.151,0,0.304-0.044,0.44-0.134
			C53.34,75.799,53.433,75.314,53.189,74.956z"/>
		<path id="XMLID_6562_" style="fill:#FFFFFF;" d="M45.848,66.956c0.151,0.221,0.397,0.344,0.647,0.344
			c0.153,0,0.306-0.045,0.44-0.136c0.357-0.244,0.451-0.729,0.206-1.086c-0.242-0.356-0.729-0.449-1.086-0.205
			C45.699,66.113,45.605,66.599,45.848,66.956z"/>
		<path id="XMLID_6561_" style="fill:#FFFFFF;" d="M40.449,58.419c0.152,0,0.305-0.044,0.438-0.136
			c0.358-0.242,0.452-0.729,0.209-1.084c-0.243-0.357-0.73-0.449-1.087-0.207c-0.358,0.241-0.451,0.729-0.208,1.084
			C39.952,58.298,40.199,58.419,40.449,58.419z"/>
		<path id="XMLID_6560_" style="fill:#FFFFFF;" d="M37.426,53.979c0.15,0,0.305-0.044,0.439-0.134
			c0.357-0.244,0.451-0.729,0.207-1.086c-0.244-0.356-0.73-0.449-1.086-0.207c-0.357,0.245-0.451,0.729-0.207,1.085
			C36.929,53.858,37.174,53.979,37.426,53.979z"/>
		<path id="XMLID_6559_" style="fill:#FFFFFF;" d="M42.826,62.516c0.15,0.222,0.398,0.343,0.647,0.343
			c0.151,0,0.303-0.044,0.438-0.136c0.359-0.242,0.45-0.729,0.208-1.084c-0.242-0.359-0.729-0.449-1.087-0.207
			C42.674,61.673,42.582,62.16,42.826,62.516z"/>
		<path id="XMLID_6558_" style="fill:#FFFFFF;" d="M56.213,79.395c-0.242-0.354-0.73-0.447-1.087-0.204
			c-0.357,0.241-0.45,0.725-0.208,1.084c0.151,0.221,0.399,0.342,0.649,0.342c0.151,0,0.303-0.045,0.438-0.134
			C56.363,80.238,56.455,79.754,56.213,79.395z"/>
		<path id="XMLID_6557_" style="fill:#FFFFFF;" d="M50.166,70.517c-0.243-0.357-0.729-0.449-1.087-0.207
			c-0.357,0.241-0.45,0.727-0.208,1.085c0.153,0.222,0.399,0.34,0.649,0.34c0.151,0,0.304-0.044,0.438-0.134
			C50.316,71.359,50.408,70.875,50.166,70.517z"/>
		<path id="XMLID_6556_" style="fill:#FFFFFF;" d="M85.362,123.585c-0.357,0.243-0.45,0.727-0.208,1.086
			c0.152,0.222,0.399,0.341,0.649,0.341c0.151,0,0.304-0.045,0.438-0.136c0.357-0.24,0.45-0.727,0.208-1.084
			C86.206,123.435,85.719,123.341,85.362,123.585z"/>
		<path id="XMLID_6555_" style="fill:#FFFFFF;" d="M67.66,98.374c0.151,0,0.304-0.044,0.441-0.134
			c0.356-0.243,0.45-0.729,0.206-1.086c-0.242-0.356-0.729-0.449-1.087-0.207c-0.356,0.243-0.452,0.729-0.208,1.086
			C67.164,98.254,67.41,98.374,67.66,98.374z"/>
		<path id="XMLID_6554_" style="fill:#FFFFFF;" d="M82.339,119.147c-0.357,0.241-0.451,0.729-0.208,1.084
			c0.151,0.222,0.397,0.341,0.647,0.341c0.151,0,0.304-0.044,0.44-0.136c0.357-0.241,0.451-0.727,0.206-1.083
			C83.183,118.995,82.697,118.903,82.339,119.147z"/>
		<path id="XMLID_6553_" style="fill:#FFFFFF;" d="M58.591,85.055c0.151,0,0.305-0.044,0.438-0.136
			c0.358-0.241,0.452-0.727,0.208-1.084c-0.242-0.354-0.729-0.447-1.088-0.205c-0.355,0.241-0.449,0.727-0.205,1.084
			C58.094,84.935,58.341,85.055,58.591,85.055z"/>
		<path id="XMLID_6552_" style="fill:#FFFFFF;" d="M64.638,93.934c0.152,0,0.304-0.044,0.44-0.134
			c0.357-0.241,0.449-0.729,0.206-1.084c-0.242-0.357-0.728-0.451-1.086-0.205c-0.358,0.239-0.451,0.727-0.208,1.083
			C64.141,93.815,64.388,93.934,64.638,93.934z"/>
		<path id="XMLID_6551_" style="fill:#FFFFFF;" d="M61.613,89.496c0.153,0,0.306-0.044,0.44-0.136
			c0.357-0.241,0.451-0.729,0.207-1.084c-0.243-0.356-0.729-0.447-1.087-0.207c-0.357,0.241-0.45,0.729-0.208,1.084
			C61.118,89.375,61.362,89.496,61.613,89.496z"/>
		<path id="XMLID_6550_" style="fill:#FFFFFF;" d="M34.403,49.54c0.151,0,0.303-0.045,0.437-0.136
			c0.358-0.242,0.451-0.729,0.208-1.084c-0.242-0.357-0.729-0.451-1.086-0.207c-0.358,0.243-0.45,0.727-0.208,1.084
			C33.905,49.419,34.152,49.54,34.403,49.54z"/>
		<path id="XMLID_6549_" style="fill:#FFFFFF;" d="M53.422,66.956c0.151,0.221,0.399,0.342,0.649,0.342
			c0.151,0,0.304-0.044,0.44-0.134c0.357-0.244,0.45-0.729,0.206-1.086c-0.242-0.356-0.729-0.449-1.087-0.205
			C53.274,66.113,53.18,66.599,53.422,66.956z"/>
		<path id="XMLID_6548_" style="fill:#FFFFFF;" d="M56.654,70.311c-0.357,0.241-0.449,0.727-0.207,1.085
			c0.152,0.222,0.398,0.34,0.647,0.34c0.153,0,0.304-0.044,0.44-0.134c0.358-0.242,0.451-0.727,0.208-1.084
			C57.498,70.16,57.011,70.068,56.654,70.311z"/>
		<path id="XMLID_6547_" style="fill:#FFFFFF;" d="M89.913,119.147c-0.356,0.241-0.448,0.727-0.208,1.084
			c0.153,0.222,0.398,0.341,0.647,0.341c0.153,0,0.306-0.044,0.441-0.136c0.357-0.241,0.45-0.727,0.206-1.083
			C90.758,118.995,90.271,118.903,89.913,119.147z"/>
		<path id="XMLID_6546_" style="fill:#FFFFFF;" d="M50.4,62.516c0.15,0.222,0.397,0.343,0.647,0.343c0.151,0,0.305-0.044,0.44-0.136
			c0.358-0.242,0.45-0.729,0.206-1.084c-0.242-0.359-0.729-0.449-1.084-0.207C50.25,61.673,50.156,62.16,50.4,62.516z"/>
		<path id="XMLID_6545_" style="fill:#FFFFFF;" d="M41.976,49.54c0.151,0,0.303-0.045,0.44-0.136
			c0.357-0.242,0.448-0.729,0.208-1.084c-0.244-0.357-0.73-0.451-1.089-0.207c-0.357,0.243-0.448,0.727-0.208,1.084
			C41.48,49.419,41.726,49.54,41.976,49.54z"/>
		<path id="XMLID_6544_" style="fill:#FFFFFF;" d="M48.024,58.419c0.151,0,0.304-0.044,0.438-0.136
			c0.357-0.242,0.452-0.729,0.208-1.084c-0.243-0.357-0.73-0.449-1.087-0.207c-0.357,0.241-0.45,0.729-0.206,1.084
			C47.527,58.298,47.773,58.419,48.024,58.419z"/>
		<path id="XMLID_6543_" style="fill:#FFFFFF;" d="M45,53.979c0.151,0,0.305-0.044,0.44-0.134c0.357-0.244,0.451-0.729,0.208-1.086
			c-0.244-0.356-0.73-0.449-1.088-0.207c-0.357,0.245-0.451,0.729-0.207,1.085C44.503,53.858,44.748,53.979,45,53.979z"/>
		<path id="XMLID_6542_" style="fill:#FFFFFF;" d="M75.234,98.374c0.154,0,0.307-0.044,0.441-0.134
			c0.357-0.243,0.45-0.729,0.208-1.086c-0.244-0.356-0.729-0.449-1.088-0.205c-0.357,0.241-0.451,0.727-0.208,1.084
			C74.741,98.254,74.984,98.374,75.234,98.374z"/>
		<path id="XMLID_6541_" style="fill:#FFFFFF;" d="M72.213,93.934c0.153,0,0.304-0.044,0.439-0.134
			c0.358-0.241,0.451-0.729,0.209-1.084c-0.245-0.357-0.73-0.451-1.089-0.205c-0.357,0.239-0.449,0.727-0.206,1.083
			C71.716,93.815,71.962,93.934,72.213,93.934z"/>
		<path id="XMLID_6540_" style="fill:#FFFFFF;" d="M62.702,79.191c-0.359,0.241-0.452,0.725-0.209,1.084
			c0.153,0.221,0.399,0.342,0.648,0.342c0.152,0,0.304-0.045,0.44-0.136c0.357-0.243,0.449-0.729,0.206-1.086
			C63.547,79.041,63.057,78.947,62.702,79.191z"/>
		<path id="XMLID_6539_" style="fill:#FFFFFF;" d="M66.165,85.055c0.15,0,0.304-0.044,0.44-0.136
			c0.356-0.241,0.45-0.725,0.207-1.084c-0.242-0.354-0.729-0.447-1.088-0.205c-0.356,0.241-0.45,0.727-0.206,1.084
			C65.668,84.935,65.915,85.055,66.165,85.055z"/>
		<path id="XMLID_6538_" style="fill:#FFFFFF;" d="M69.188,89.496c0.151,0,0.305-0.044,0.44-0.136
			c0.357-0.241,0.452-0.729,0.206-1.084c-0.242-0.357-0.729-0.447-1.086-0.207c-0.357,0.241-0.451,0.729-0.207,1.084
			C68.693,89.375,68.939,89.496,69.188,89.496z"/>
		<path id="XMLID_6537_" style="fill:#FFFFFF;" d="M59.677,74.751c-0.357,0.241-0.45,0.727-0.208,1.084
			c0.152,0.221,0.397,0.341,0.649,0.341c0.151,0,0.304-0.044,0.439-0.134c0.357-0.243,0.451-0.729,0.209-1.086
			C60.521,74.599,60.035,74.509,59.677,74.751z"/>
		<path id="XMLID_6536_" style="fill:#FFFFFF;" d="M94.465,114.706c-0.358,0.243-0.452,0.729-0.208,1.086
			c0.151,0.221,0.397,0.34,0.647,0.34c0.151,0,0.304-0.042,0.439-0.136c0.358-0.239,0.451-0.727,0.209-1.083
			C95.309,114.556,94.822,114.463,94.465,114.706z"/>
		<path id="XMLID_6535_" style="fill:#FFFFFF;" d="M61.205,65.872c-0.357,0.241-0.452,0.727-0.207,1.084
			c0.15,0.221,0.397,0.342,0.647,0.342c0.152,0,0.305-0.044,0.44-0.134c0.357-0.244,0.45-0.729,0.206-1.086
			C62.048,65.721,61.563,65.628,61.205,65.872z"/>
		<path id="XMLID_6534_" style="fill:#FFFFFF;" d="M73.739,85.055c0.152,0,0.305-0.044,0.44-0.136
			c0.357-0.241,0.45-0.727,0.208-1.084c-0.242-0.354-0.729-0.447-1.088-0.205c-0.357,0.241-0.451,0.727-0.206,1.084
			C73.244,84.935,73.489,85.055,73.739,85.055z"/>
		<path id="XMLID_6533_" style="fill:#FFFFFF;" d="M55.597,58.419c0.152,0,0.305-0.044,0.44-0.136
			c0.358-0.242,0.451-0.729,0.208-1.084c-0.244-0.357-0.73-0.449-1.088-0.207c-0.358,0.241-0.449,0.729-0.207,1.084
			C55.102,58.298,55.348,58.419,55.597,58.419z"/>
		<path id="XMLID_6532_" style="fill:#FFFFFF;" d="M64.229,70.311c-0.357,0.241-0.45,0.727-0.208,1.085
			c0.151,0.222,0.399,0.34,0.649,0.34c0.15,0,0.303-0.044,0.438-0.134c0.357-0.242,0.45-0.727,0.206-1.084
			C65.072,70.16,64.586,70.068,64.229,70.311z"/>
		<path id="XMLID_6531_" style="fill:#FFFFFF;" d="M70.716,80.617c0.153,0,0.304-0.045,0.439-0.136
			c0.358-0.243,0.451-0.727,0.209-1.086c-0.245-0.354-0.73-0.447-1.089-0.204c-0.357,0.241-0.449,0.725-0.206,1.083
			C70.22,80.496,70.465,80.617,70.716,80.617z"/>
		<path id="XMLID_6530_" style="fill:#FFFFFF;" d="M52.574,53.979c0.151,0,0.304-0.044,0.44-0.134
			c0.357-0.244,0.45-0.729,0.208-1.086c-0.244-0.356-0.73-0.449-1.089-0.207c-0.356,0.243-0.448,0.729-0.206,1.085
			C52.078,53.858,52.324,53.979,52.574,53.979z"/>
		<path id="XMLID_6529_" style="fill:#FFFFFF;" d="M67.251,74.751c-0.357,0.241-0.449,0.727-0.207,1.084
			c0.152,0.221,0.398,0.341,0.649,0.341c0.15,0,0.304-0.044,0.438-0.134c0.357-0.243,0.451-0.729,0.208-1.086
			C68.096,74.599,67.609,74.509,67.251,74.751z"/>
		<path id="XMLID_6528_" style="fill:#FFFFFF;" d="M49.55,49.54c0.152,0,0.305-0.045,0.438-0.136c0.36-0.242,0.452-0.729,0.21-1.084
			c-0.244-0.357-0.729-0.451-1.086-0.207c-0.358,0.243-0.451,0.727-0.208,1.084C49.055,49.419,49.3,49.54,49.55,49.54z"/>
		<path id="XMLID_6527_" style="fill:#FFFFFF;" d="M58.182,61.432c-0.358,0.241-0.452,0.729-0.208,1.084
			c0.151,0.222,0.397,0.343,0.647,0.343c0.15,0,0.304-0.044,0.439-0.136c0.358-0.242,0.451-0.729,0.209-1.084
			C59.026,61.281,58.539,61.19,58.182,61.432z"/>
		<path id="XMLID_6526_" style="fill:#FFFFFF;" d="M76.763,89.496c0.151,0,0.304-0.044,0.44-0.136
			c0.355-0.241,0.449-0.729,0.205-1.084c-0.241-0.357-0.729-0.449-1.085-0.207c-0.357,0.241-0.452,0.729-0.208,1.084
			C76.267,89.375,76.513,89.496,76.763,89.496z"/>
		<path id="XMLID_6525_" style="fill:#FFFFFF;" d="M99.016,110.268c-0.358,0.241-0.45,0.727-0.208,1.084
			c0.151,0.221,0.397,0.341,0.647,0.341c0.153,0,0.306-0.044,0.439-0.136c0.358-0.241,0.452-0.729,0.208-1.084
			C99.86,110.117,99.372,110.024,99.016,110.268z"/>
		<path id="XMLID_6524_" style="fill:#FFFFFF;" d="M57.125,49.54c0.151,0,0.304-0.045,0.439-0.136
			c0.358-0.242,0.451-0.729,0.209-1.084c-0.243-0.357-0.73-0.451-1.087-0.207c-0.358,0.243-0.451,0.727-0.208,1.084
			C56.629,49.419,56.876,49.54,57.125,49.54z"/>
		<path id="XMLID_6523_" style="fill:#FFFFFF;" d="M90.384,98.374c0.151,0,0.305-0.044,0.441-0.134
			c0.357-0.243,0.45-0.729,0.206-1.086c-0.244-0.356-0.729-0.449-1.086-0.205c-0.358,0.241-0.451,0.727-0.209,1.084
			C89.889,98.254,90.134,98.374,90.384,98.374z"/>
		<path id="XMLID_6522_" style="fill:#FFFFFF;" d="M95.991,105.828c-0.357,0.241-0.449,0.729-0.205,1.084
			c0.151,0.222,0.396,0.341,0.647,0.341c0.151,0,0.304-0.042,0.438-0.136c0.357-0.239,0.452-0.727,0.208-1.083
			C96.835,105.677,96.348,105.586,95.991,105.828z"/>
		<path id="XMLID_6521_" style="fill:#FFFFFF;" d="M74.827,74.751c-0.357,0.241-0.452,0.727-0.208,1.084
			c0.151,0.221,0.397,0.341,0.649,0.341c0.15,0,0.304-0.044,0.438-0.134c0.357-0.243,0.452-0.729,0.207-1.084
			C75.669,74.599,75.184,74.509,74.827,74.751z"/>
		<path id="XMLID_6520_" style="fill:#FFFFFF;" d="M78.291,80.617c0.151,0,0.304-0.045,0.438-0.134
			c0.358-0.245,0.451-0.729,0.208-1.088c-0.244-0.354-0.73-0.447-1.086-0.204c-0.358,0.239-0.451,0.725-0.209,1.083
			C77.794,80.496,78.041,80.617,78.291,80.617z"/>
		<path id="XMLID_6519_" style="fill:#FFFFFF;" d="M68.78,65.872c-0.358,0.241-0.451,0.727-0.208,1.084
			c0.151,0.221,0.397,0.342,0.647,0.342c0.151,0,0.304-0.044,0.44-0.134c0.357-0.244,0.449-0.729,0.207-1.086
			C69.624,65.721,69.138,65.628,68.78,65.872z"/>
		<path id="XMLID_6518_" style="fill:#FFFFFF;" d="M71.803,70.311c-0.357,0.241-0.45,0.727-0.207,1.085
			c0.151,0.222,0.399,0.34,0.648,0.34c0.151,0,0.304-0.044,0.438-0.134c0.357-0.243,0.45-0.727,0.208-1.084
			C72.648,70.16,72.159,70.068,71.803,70.311z"/>
		<path id="XMLID_6517_" style="fill:#FFFFFF;" d="M65.757,61.432c-0.358,0.241-0.451,0.729-0.209,1.084
			c0.152,0.222,0.398,0.343,0.647,0.343c0.151,0,0.305-0.044,0.44-0.136c0.36-0.242,0.451-0.729,0.208-1.084
			C66.601,61.279,66.112,61.19,65.757,61.432z"/>
		<path id="XMLID_6516_" style="fill:#FFFFFF;" d="M73.33,61.43c-0.357,0.244-0.45,0.729-0.206,1.086
			c0.151,0.222,0.396,0.342,0.647,0.342c0.151,0,0.304-0.044,0.438-0.134c0.357-0.244,0.45-0.729,0.208-1.086
			C74.174,61.282,73.687,61.189,73.33,61.43z"/>
		<path id="XMLID_6515_" style="fill:#FFFFFF;" d="M88.89,85.056c0.15,0,0.304-0.044,0.439-0.134
			c0.357-0.244,0.449-0.729,0.206-1.086c-0.244-0.357-0.729-0.447-1.086-0.206c-0.358,0.24-0.45,0.727-0.208,1.083
			C88.392,84.936,88.638,85.056,88.89,85.056z"/>
		<path id="XMLID_6514_" style="fill:#FFFFFF;" d="M91.913,89.496c0.151,0,0.304-0.045,0.438-0.136
			c0.358-0.244,0.45-0.729,0.208-1.086c-0.243-0.356-0.73-0.449-1.086-0.206c-0.358,0.242-0.451,0.727-0.209,1.084
			C91.416,89.376,91.663,89.496,91.913,89.496z"/>
		<path id="XMLID_6513_" style="fill:#FFFFFF;" d="M94.936,93.933c0.151,0,0.304-0.042,0.438-0.134
			c0.358-0.242,0.451-0.727,0.209-1.084c-0.243-0.356-0.73-0.449-1.089-0.206c-0.357,0.242-0.449,0.727-0.204,1.084
			C94.44,93.814,94.687,93.933,94.936,93.933z"/>
		<path id="XMLID_6512_" style="fill:#FFFFFF;" d="M97.959,98.373c0.153,0,0.304-0.042,0.441-0.134
			c0.356-0.242,0.45-0.729,0.206-1.084c-0.242-0.357-0.729-0.449-1.087-0.208c-0.356,0.242-0.45,0.729-0.208,1.084
			C97.463,98.255,97.709,98.373,97.959,98.373z"/>
		<path id="XMLID_6511_" style="fill:#FFFFFF;" d="M76.354,65.87c-0.358,0.242-0.45,0.729-0.208,1.084
			c0.151,0.223,0.397,0.342,0.647,0.342c0.153,0,0.306-0.043,0.439-0.134c0.358-0.242,0.452-0.729,0.208-1.084
			C77.198,65.721,76.711,65.629,76.354,65.87z"/>
		<path id="XMLID_6510_" style="fill:#FFFFFF;" d="M70.307,56.991c-0.358,0.242-0.451,0.727-0.208,1.084
			c0.151,0.223,0.399,0.344,0.648,0.344c0.152,0,0.304-0.045,0.438-0.136c0.358-0.242,0.451-0.729,0.209-1.084
			C71.151,56.842,70.664,56.749,70.307,56.991z"/>
		<path id="XMLID_6509_" style="fill:#FFFFFF;" d="M99.487,89.496c0.151,0,0.305-0.045,0.44-0.136
			c0.357-0.244,0.45-0.729,0.206-1.085c-0.242-0.356-0.729-0.448-1.084-0.206c-0.36,0.242-0.452,0.727-0.209,1.084
			C98.99,89.375,99.237,89.496,99.487,89.496z"/>
		<path id="XMLID_6508_" style="fill:#FFFFFF;" d="M105.094,96.949c-0.357,0.241-0.451,0.728-0.208,1.083
			c0.153,0.224,0.399,0.342,0.648,0.342c0.152,0,0.305-0.042,0.44-0.134c0.357-0.242,0.45-0.729,0.206-1.084
			C105.938,96.798,105.451,96.706,105.094,96.949z"/>
		<path id="XMLID_6507_" style="fill:#FFFFFF;" d="M93.44,80.616c0.152,0,0.304-0.044,0.44-0.136
			c0.357-0.242,0.448-0.727,0.206-1.084c-0.242-0.356-0.729-0.448-1.086-0.207c-0.358,0.241-0.449,0.728-0.208,1.084
			C92.945,80.496,93.19,80.616,93.44,80.616z"/>
		<path id="XMLID_6506_" style="fill:#FFFFFF;" d="M96.464,85.056c0.15,0,0.304-0.044,0.439-0.136
			c0.357-0.242,0.451-0.727,0.208-1.084c-0.244-0.355-0.729-0.447-1.088-0.206c-0.357,0.242-0.45,0.728-0.206,1.083
			C95.966,84.936,96.213,85.056,96.464,85.056z"/>
		<path id="XMLID_6505_" style="fill:#FFFFFF;" d="M63.643,36.084c0.357-0.242,0.451-0.729,0.206-1.083
			c-0.242-0.358-0.729-0.449-1.086-0.208c-0.358,0.242-0.451,0.729-0.209,1.083c0.154,0.225,0.399,0.344,0.649,0.344
			C63.355,36.22,63.509,36.176,63.643,36.084z"/>
		<path id="XMLID_6504_" style="fill:#FFFFFF;" d="M78.968,57.198c-0.243-0.356-0.729-0.449-1.087-0.206
			c-0.358,0.242-0.45,0.728-0.208,1.084c0.153,0.222,0.399,0.344,0.649,0.344c0.151,0,0.303-0.045,0.439-0.136
			C79.118,58.04,79.212,57.555,78.968,57.198z"/>
		<path id="XMLID_6503_" style="fill:#FFFFFF;" d="M102.071,92.508c-0.358,0.242-0.452,0.728-0.208,1.084
			c0.15,0.222,0.397,0.34,0.648,0.34c0.151,0,0.304-0.042,0.438-0.134c0.358-0.242,0.451-0.727,0.207-1.084
			C102.914,92.36,102.426,92.266,102.071,92.508z"/>
		<path id="XMLID_6502_" style="fill:#FFFFFF;" d="M57.156,27.341c0.152,0,0.304-0.045,0.44-0.136
			c0.357-0.242,0.448-0.729,0.208-1.084c-0.244-0.356-0.731-0.449-1.088-0.206c-0.358,0.242-0.449,0.727-0.206,1.083
			C56.661,27.222,56.907,27.341,57.156,27.341z"/>
		<path id="XMLID_6501_" style="fill:#FFFFFF;" d="M89.975,74.75c-0.357,0.243-0.45,0.727-0.208,1.085
			c0.151,0.221,0.397,0.34,0.647,0.34c0.153,0,0.306-0.044,0.44-0.133c0.357-0.245,0.451-0.729,0.209-1.087
			C90.819,74.6,90.334,74.508,89.975,74.75z"/>
		<path id="XMLID_6500_" style="fill:#FFFFFF;" d="M86.954,70.311c-0.358,0.242-0.451,0.729-0.209,1.084
			c0.152,0.223,0.398,0.342,0.647,0.342c0.151,0,0.305-0.045,0.438-0.134c0.36-0.242,0.452-0.729,0.208-1.084
			C87.796,70.16,87.31,70.068,86.954,70.311z"/>
		<path id="XMLID_6499_" style="fill:#FFFFFF;" d="M58.036,18.12c0.151,0.222,0.397,0.341,0.647,0.341
			c0.151,0,0.304-0.045,0.439-0.134c0.358-0.243,0.451-0.729,0.208-1.084c-0.242-0.357-0.729-0.451-1.086-0.207
			C57.886,17.277,57.794,17.763,58.036,18.12z"/>
		<path id="XMLID_6498_" style="fill:#FFFFFF;" d="M91.504,65.87c-0.357,0.243-0.452,0.729-0.208,1.086
			c0.151,0.221,0.398,0.341,0.647,0.341c0.151,0,0.304-0.044,0.441-0.134c0.354-0.243,0.448-0.729,0.206-1.086
			C92.347,65.721,91.862,65.628,91.504,65.87z"/>
		<path id="XMLID_6497_" style="fill:#FFFFFF;" d="M104.685,83.835c-0.242-0.354-0.73-0.447-1.087-0.205
			c-0.357,0.241-0.45,0.727-0.208,1.084c0.151,0.221,0.398,0.341,0.647,0.341c0.151,0,0.304-0.044,0.44-0.136
			C104.836,84.678,104.927,84.192,104.685,83.835z"/>
		<path id="XMLID_6496_" style="fill:#FFFFFF;" d="M94.528,70.311c-0.358,0.241-0.451,0.729-0.208,1.084
			c0.151,0.222,0.397,0.341,0.647,0.341c0.151,0,0.304-0.044,0.439-0.134c0.358-0.241,0.451-0.729,0.206-1.084
			C95.372,70.159,94.883,70.068,94.528,70.311z"/>
		<path id="XMLID_6495_" style="fill:#FFFFFF;" d="M106.622,88.068c-0.358,0.242-0.451,0.729-0.208,1.084
			c0.151,0.223,0.397,0.343,0.647,0.343c0.151,0,0.304-0.044,0.44-0.136c0.357-0.241,0.449-0.729,0.206-1.084
			C107.464,87.919,106.98,87.828,106.622,88.068z"/>
		<path id="XMLID_6494_" style="fill:#FFFFFF;" d="M101.661,79.395c-0.244-0.354-0.729-0.447-1.086-0.204
			c-0.358,0.241-0.451,0.725-0.208,1.084c0.151,0.22,0.397,0.341,0.647,0.341c0.152,0,0.307-0.045,0.44-0.136
			C101.811,80.238,101.905,79.754,101.661,79.395z"/>
		<path id="XMLID_6493_" style="fill:#FFFFFF;" d="M88.48,61.432c-0.358,0.241-0.451,0.729-0.208,1.084
			c0.151,0.222,0.397,0.343,0.647,0.343c0.154,0,0.305-0.045,0.44-0.136c0.358-0.241,0.451-0.729,0.208-1.084
			C89.324,61.28,88.837,61.188,88.48,61.432z"/>
		<path id="XMLID_6492_" style="fill:#FFFFFF;" d="M97.551,74.751c-0.357,0.241-0.452,0.727-0.206,1.084
			c0.149,0.222,0.395,0.341,0.647,0.341c0.15,0,0.304-0.044,0.438-0.134c0.357-0.243,0.45-0.729,0.208-1.086
			C98.394,74.599,97.907,74.509,97.551,74.751z"/>
		<path id="XMLID_6491_" style="fill:#FFFFFF;" d="M60.213,9.581c0.15,0,0.303-0.042,0.437-0.133
			c0.358-0.244,0.451-0.729,0.208-1.086c-0.244-0.356-0.729-0.449-1.086-0.207c-0.358,0.243-0.452,0.729-0.207,1.085
			C59.714,9.462,59.961,9.581,60.213,9.581z"/>
		<path id="XMLID_6490_" style="fill:#FFFFFF;" d="M57.187,5.143c0.152,0,0.304-0.044,0.44-0.135
			c0.357-0.242,0.45-0.729,0.208-1.084c-0.242-0.357-0.73-0.45-1.087-0.208C56.39,3.958,56.298,4.444,56.54,4.8
			C56.691,5.024,56.938,5.143,57.187,5.143z"/>
		<path id="XMLID_6489_" style="fill:#FFFFFF;" d="M102.541,71.736c0.152,0,0.305-0.042,0.44-0.134
			c0.358-0.242,0.451-0.727,0.208-1.084c-0.242-0.357-0.729-0.449-1.086-0.207c-0.358,0.243-0.452,0.727-0.208,1.085
			C102.046,71.617,102.291,71.736,102.541,71.736z"/>
		<path id="XMLID_6488_" style="fill:#FFFFFF;" d="M93.031,56.991c-0.357,0.241-0.45,0.729-0.208,1.084
			c0.151,0.222,0.399,0.343,0.649,0.343c0.151,0,0.303-0.044,0.438-0.136c0.357-0.242,0.45-0.729,0.208-1.084
			C93.876,56.841,93.388,56.749,93.031,56.991z"/>
		<path id="XMLID_6487_" style="fill:#FFFFFF;" d="M96.053,61.432c-0.355,0.241-0.449,0.729-0.205,1.084
			c0.151,0.222,0.396,0.343,0.647,0.343c0.151,0,0.305-0.044,0.438-0.136c0.358-0.242,0.452-0.729,0.208-1.084
			C96.897,61.281,96.411,61.19,96.053,61.432z"/>
		<path id="XMLID_6486_" style="fill:#FFFFFF;" d="M105.565,76.176c0.151,0,0.304-0.044,0.441-0.134
			c0.354-0.243,0.448-0.729,0.204-1.086c-0.24-0.357-0.727-0.447-1.085-0.205c-0.357,0.241-0.452,0.727-0.208,1.084
			C105.069,76.056,105.315,76.176,105.565,76.176z"/>
		<path id="XMLID_6485_" style="fill:#FFFFFF;" d="M99.518,67.298c0.153,0,0.306-0.044,0.44-0.134
			c0.357-0.243,0.452-0.729,0.208-1.086c-0.243-0.356-0.73-0.449-1.088-0.205c-0.357,0.241-0.449,0.727-0.207,1.084
			C99.023,67.177,99.267,67.298,99.518,67.298z"/>
		<path id="XMLID_6484_" style="fill:#FFFFFF;" d="M64.761,5.143c0.154,0,0.305-0.044,0.44-0.135
			c0.358-0.242,0.451-0.729,0.208-1.084c-0.242-0.357-0.728-0.45-1.086-0.208c-0.358,0.242-0.451,0.728-0.208,1.084
			C64.268,5.024,64.511,5.143,64.761,5.143z"/>
		<path id="XMLID_6480_" style="fill:#FFFFFF;" d="M67.787,9.583c0.15,0,0.303-0.044,0.44-0.134c0.356-0.244,0.45-0.729,0.206-1.086
			c-0.242-0.356-0.729-0.449-1.087-0.207c-0.357,0.243-0.452,0.729-0.206,1.085C67.289,9.462,67.535,9.583,67.787,9.583z"/>
		<path id="XMLID_6479_" style="fill:#FFFFFF;" d="M73.187,18.119c0.151,0.223,0.397,0.342,0.647,0.342
			c0.15,0,0.304-0.044,0.438-0.134c0.359-0.244,0.452-0.729,0.208-1.084c-0.243-0.357-0.73-0.45-1.087-0.208
			C73.035,17.277,72.943,17.764,73.187,18.119z"/>
		<path id="XMLID_6474_" style="fill:#FFFFFF;" d="M106.653,65.872c-0.358,0.241-0.451,0.727-0.208,1.084
			c0.151,0.221,0.399,0.342,0.648,0.342c0.151,0,0.305-0.044,0.438-0.134c0.358-0.243,0.452-0.729,0.208-1.086
			C107.497,65.721,107.009,65.628,106.653,65.872z"/>
		<path id="XMLID_6473_" style="fill:#FFFFFF;" d="M70.81,14.021c0.151,0,0.305-0.044,0.438-0.134
			c0.358-0.244,0.452-0.729,0.208-1.084c-0.242-0.357-0.729-0.449-1.086-0.207c-0.358,0.241-0.451,0.728-0.208,1.084
			C70.313,13.902,70.56,14.021,70.81,14.021z"/>
		<path id="XMLID_6472_" style="fill:#FFFFFF;" d="M80.761,18.119c0.15,0.223,0.397,0.342,0.647,0.342
			c0.15,0,0.304-0.044,0.439-0.134c0.358-0.244,0.449-0.729,0.206-1.084c-0.24-0.357-0.728-0.45-1.084-0.208
			C80.611,17.277,80.517,17.764,80.761,18.119z"/>
		<path id="XMLID_6471_" style="fill:#FFFFFF;" d="M78.385,14.021c0.152,0,0.304-0.044,0.44-0.134
			c0.356-0.242,0.45-0.729,0.206-1.084c-0.242-0.357-0.729-0.449-1.087-0.207c-0.357,0.241-0.45,0.728-0.207,1.084
			C77.889,13.902,78.135,14.021,78.385,14.021z"/>
		<path id="XMLID_6467_" style="fill:#FFFFFF;" d="M75.361,9.583c0.152,0,0.305-0.044,0.44-0.134
			c0.357-0.244,0.451-0.729,0.209-1.086c-0.245-0.356-0.73-0.449-1.089-0.207c-0.357,0.243-0.451,0.729-0.206,1.085
			C74.864,9.462,75.111,9.581,75.361,9.583z"/>
		<path id="XMLID_6465_" style="fill:#FFFFFF;" d="M72.337,5.143c0.151,0,0.305-0.044,0.438-0.135
			c0.36-0.242,0.452-0.729,0.208-1.084c-0.242-0.357-0.729-0.45-1.086-0.208C71.54,3.958,71.448,4.444,71.69,4.8
			C71.842,5.024,72.087,5.143,72.337,5.143z"/>
		<path id="XMLID_6463_" style="fill:#FFFFFF;" d="M100.637,34.794c-0.357,0.242-0.45,0.728-0.208,1.084
			c0.151,0.222,0.397,0.343,0.647,0.343c0.153,0,0.304-0.045,0.44-0.136c0.357-0.243,0.45-0.729,0.207-1.084
			C101.48,34.643,100.994,34.55,100.637,34.794z"/>
		<path id="XMLID_6462_" style="fill:#FFFFFF;" d="M85.958,14.021c0.152,0,0.306-0.044,0.438-0.134
			c0.359-0.242,0.453-0.729,0.21-1.084c-0.244-0.357-0.729-0.449-1.088-0.207c-0.357,0.241-0.449,0.728-0.206,1.084
			C85.463,13.902,85.709,14.021,85.958,14.021z"/>
		<path id="XMLID_6461_" style="fill:#FFFFFF;" d="M106.684,43.672c-0.358,0.243-0.451,0.729-0.21,1.084
			c0.153,0.224,0.399,0.343,0.649,0.343c0.151,0,0.304-0.044,0.44-0.136c0.357-0.242,0.449-0.729,0.207-1.084
			C107.527,43.522,107.043,43.43,106.684,43.672z"/>
		<path id="XMLID_6460_" style="fill:#FFFFFF;" d="M88.335,18.119c0.151,0.223,0.397,0.342,0.647,0.342
			c0.151,0,0.304-0.044,0.44-0.134c0.357-0.242,0.45-0.729,0.207-1.084c-0.242-0.357-0.729-0.45-1.086-0.208
			C88.185,17.277,88.091,17.764,88.335,18.119z"/>
		<path id="XMLID_6459_" style="fill:#FFFFFF;" d="M79.913,5.143c0.15,0,0.304-0.044,0.438-0.135
			c0.358-0.242,0.451-0.729,0.208-1.084c-0.242-0.357-0.73-0.45-1.086-0.208c-0.358,0.242-0.451,0.728-0.209,1.084
			C79.416,5.024,79.661,5.143,79.913,5.143z"/>
		<path id="XMLID_6457_" style="fill:#FFFFFF;" d="M82.936,9.581c0.151,0,0.304-0.042,0.438-0.133
			c0.357-0.244,0.451-0.729,0.209-1.086c-0.245-0.356-0.73-0.449-1.089-0.207c-0.357,0.243-0.45,0.729-0.204,1.085
			C82.438,9.462,82.685,9.581,82.936,9.581z"/>
		<path id="XMLID_6455_" style="fill:#FFFFFF;" d="M93.535,14.021c0.15,0,0.304-0.042,0.437-0.134
			c0.358-0.242,0.452-0.729,0.207-1.084c-0.241-0.357-0.729-0.449-1.085-0.207c-0.358,0.241-0.45,0.728-0.208,1.084
			C93.037,13.902,93.284,14.021,93.535,14.021z"/>
		<path id="XMLID_6454_" style="fill:#FFFFFF;" d="M87.486,5.143c0.153,0,0.304-0.044,0.44-0.135
			c0.357-0.242,0.45-0.729,0.208-1.084c-0.243-0.357-0.73-0.451-1.087-0.208c-0.357,0.242-0.45,0.728-0.208,1.084
			C86.99,5.024,87.235,5.143,87.486,5.143z"/>
		<path id="XMLID_6453_" style="fill:#FFFFFF;" d="M90.511,9.583c0.151,0,0.304-0.044,0.44-0.134
			c0.355-0.244,0.449-0.729,0.206-1.086c-0.242-0.356-0.729-0.448-1.088-0.207c-0.357,0.243-0.451,0.729-0.207,1.085
			C90.014,9.462,90.259,9.583,90.511,9.583z"/>
		<path id="XMLID_6452_" style="fill:#FFFFFF;" d="M95.061,5.143c0.151,0,0.304-0.044,0.438-0.135
			c0.359-0.242,0.45-0.729,0.208-1.084c-0.242-0.357-0.73-0.45-1.087-0.208c-0.357,0.242-0.448,0.728-0.206,1.084
			C94.565,5.024,94.812,5.143,95.061,5.143z"/>
		<path id="XMLID_6451_" style="fill:#FFFFFF;" d="M104.72,18.461c0.15,0,0.303-0.044,0.438-0.134
			c0.359-0.244,0.45-0.729,0.208-1.084c-0.242-0.357-0.73-0.45-1.087-0.208c-0.357,0.242-0.452,0.729-0.206,1.084
			C104.222,18.343,104.47,18.461,104.72,18.461z"/>
		<path id="XMLID_6448_" style="fill:#FFFFFF;" d="M106.507,22.56c0.152,0.222,0.399,0.342,0.649,0.342
			c0.151,0,0.304-0.045,0.44-0.134c0.356-0.245,0.45-0.729,0.206-1.086c-0.242-0.356-0.729-0.449-1.087-0.206
			C106.359,21.717,106.265,22.203,106.507,22.56z"/>
		<path id="XMLID_6447_" style="fill:#FFFFFF;" d="M98.085,9.583c0.151,0,0.303-0.044,0.439-0.134
			c0.357-0.244,0.451-0.729,0.208-1.086c-0.245-0.356-0.729-0.449-1.088-0.207c-0.357,0.243-0.45,0.729-0.206,1.085
			C97.588,9.462,97.835,9.583,98.085,9.583z"/>
		<path id="XMLID_6446_" style="fill:#FFFFFF;" d="M102.636,5.143c0.151,0,0.304-0.044,0.437-0.135
			c0.36-0.242,0.452-0.729,0.209-1.084c-0.243-0.357-0.73-0.45-1.085-0.208c-0.36,0.242-0.451,0.728-0.208,1.084
			C102.14,5.024,102.385,5.143,102.636,5.143z"/>
		<path id="XMLID_6445_" style="fill:#FFFFFF;" d="M105.661,9.581c0.151,0,0.304-0.042,0.438-0.133
			c0.357-0.244,0.45-0.729,0.208-1.086c-0.244-0.356-0.73-0.449-1.088-0.207c-0.357,0.243-0.451,0.729-0.206,1.085
			C105.162,9.462,105.409,9.581,105.661,9.581z"/>
		<path id="XMLID_5812_" style="fill:#FFFFFF;" d="M0.001,0.001L0.001,0.001L0,45.35h0.001v11.537v0.001v26.087v0.02
			c0,30.559,24.823,55.331,55.446,55.331c30.622,0,55.445-24.772,55.445-55.331V0L0.001,0.001L0.001,0.001z M55.446,1.952h53.49
			v81.043c0,7.207-1.413,14.198-4.201,20.778c-1.341,3.163-3,6.213-4.932,9.067c-1.914,2.826-4.114,5.485-6.532,7.902
			c-2.421,2.413-5.086,4.608-7.918,6.517c-2.86,1.929-5.916,3.583-9.085,4.923c-6.593,2.782-13.598,4.192-20.82,4.192v-37.54
			L18.939,45.35h36.507V1.952z M51.38,128.855l-1.837-2.697h3.949v2.697H51.38z M53.492,129.832v2.124l-1.446-2.124H53.492z
			 M48.879,125.183l-1.838-2.698h6.451v2.698H48.879z M46.377,121.508l-1.838-2.697h8.953v2.697H46.377z M43.875,117.836
			l-1.839-2.699h11.456v2.699H43.875z M41.373,114.162l-1.837-2.698h13.956v2.698H41.373z M38.87,110.487l-1.837-2.697h16.459v2.697
			H38.87z M36.368,106.813l-1.836-2.696h18.96v2.696H36.368z M33.866,103.14l-1.837-2.697h21.462v2.697H33.866z M31.365,99.466
			l-1.837-2.696h22.143l1.821,2.667v0.029H31.365z M26.594,60.033l1.74,2.549L6.341,62.725l-1.834-2.692H26.594z M3.844,59.058
			L2.007,56.36h22.08l1.841,2.697H3.844z M28.996,63.553l1.947,2.852H8.847l-1.844-2.708L28.996,63.553z M31.61,67.381l1.842,2.697
			H11.35l-1.837-2.697H31.61z M34.118,71.055l1.84,2.696H13.851l-1.836-2.696H34.118z M36.625,74.729l1.842,2.697H16.353
			l-1.837-2.697H36.625z M39.133,78.403l1.84,2.696H18.855l-1.836-2.696H39.133z M41.64,82.075l1.842,2.699H21.358l-1.838-2.699
			H41.64z M44.149,85.749l1.84,2.698H23.86l-1.837-2.698H44.149z M46.655,89.422l1.842,2.699H26.362l-1.839-2.699H46.655z
			 M49.164,93.096l1.841,2.697H28.863l-1.838-2.697H49.164z M50.301,1.953h3.189v41.444h-3.189V1.953z M46.62,1.953h2.703v41.444
			H46.62V1.953z M42.939,1.953h2.703v41.444h-2.703V1.953z M39.259,1.953h2.702v41.444h-2.702V1.953z M35.577,1.953h2.703v41.444
			h-2.703V1.953z M31.897,1.953h2.701v41.444h-2.701V1.953z M28.214,1.953h2.703v41.444h-2.703V1.953z M24.533,1.953h2.703v41.444
			h-2.703V1.953z M20.851,1.953h2.705v41.444h-2.705V1.953z M17.171,1.953h2.703v41.444h-2.703V1.953z M13.489,1.953h2.704v41.444
			h-2.704V1.953z M9.808,1.953h2.702v41.444H9.808V1.953z M6.128,1.953H8.83v41.444H6.128V1.953z M1.957,1.953h3.192v41.444H1.957
			V1.953z M1.957,45.353h14.616l1.833,2.685H1.957V45.353z M1.957,49.014h17.115l1.84,2.696H1.957V49.014z M1.957,52.686h19.622
			l1.842,2.699H1.957V52.686z M1.957,82.975V59.759l52.135,76.549c-6.739-0.167-13.286-1.519-19.465-4.126
			c-3.169-1.34-6.225-2.994-9.085-4.923c-2.832-1.909-5.495-4.103-7.917-6.517c-2.422-2.417-4.62-5.076-6.534-7.902
			c-1.93-2.854-3.59-5.904-4.93-9.067C3.373,97.195,1.958,90.205,1.957,83V82.975z"/>
		<path id="XMLID_5534_" style="fill:#FFFFFF;" d="M61.481,27.842c0.285,0.004,0.367,0.021,0.594,0.197c0,0-1.137,0.207-1.623,1.056
			c0.391,0.036,0.589,0.131,0.589,0.131s-2.243,0.594-2.324,2.819c-0.016-0.046,0.838-0.718,1.598-0.288
			c0.629,0.339,1.063,0.409,1.545,0.275c0,0-0.076,0.348-0.389,0.583c0.866,0.465,1.94,0.044,1.94,0.044
			c-0.097,0.267-0.16,0.326-0.399,0.477c0.703,0.309,2.025-0.145,2.305-0.618c-0.025,0.524-0.264,0.651-0.438,0.812
			c1.438-0.248,4.155-1.707,3.823-4.158c0.851,2.289,1.939,4.492,3.258,6.577l0.008,0.012c1.986,3.043,5.167,5.154,8.723,5.788
			l0.013,0.002c0.175,0.032,0.347,0.07,0.521,0.111c-0.535,0.347-1.038,0.748-1.505,1.196c-1.47-0.57-3.045-0.869-4.649-0.869
			c-1.067,0-2.104,0.131-3.095,0.375l-0.168-0.646c0.189-0.156,0.304-0.398,0.291-0.663c-0.027-0.44-0.405-0.778-0.848-0.753
			c-0.442,0.026-0.781,0.403-0.757,0.845c0.022,0.375,0.302,0.676,0.657,0.742l0.174,0.657c-1.368,0.416-2.637,1.056-3.768,1.875
			c0.059-0.069,0.115-0.142,0.168-0.22c1.663-2.362-0.602-4.877-1.985-5.628c0.112,0.21,0.297,0.409,0.148,0.914
			c-0.109-0.54-1.205-1.406-1.968-1.346c0.175,0.224,0.214,0.299,0.219,0.583c0,0-0.876-0.752-1.842-0.597
			c0.218,0.326,0.266,0.54,0.266,0.54s-1.869-1.373-3.657-0.04c0.028-0.042,1.087,0.201,1.226,1.06
			c0.129,0.703,0.346,1.084,0.753,1.374c0,0-0.316,0.159-0.697,0.062c0.18,0.966,1.181,1.537,1.181,1.537
			c-0.268,0.091-0.354,0.081-0.623-0.009c0.2,0.74,1.385,1.48,1.928,1.403c-0.424,0.309-0.674,0.203-0.91,0.168
			c0.936,0.822,3.14,1.811,4.826,0.972c-1.135,1.004-2.093,2.207-2.811,3.553l-0.558-0.247c-0.005-0.245-0.122-0.487-0.34-0.638
			c-0.361-0.254-0.863-0.17-1.118,0.192c-0.257,0.36-0.169,0.86,0.192,1.117c0.31,0.216,0.718,0.186,0.991-0.053l0.53,0.235
			c-0.307,0.655-0.557,1.342-0.747,2.053c-0.032,0-0.062,0-0.091,0.002c-2.889,0.14-3.489,3.468-3.232,5.018
			c0.097-0.216,0.141-0.485,0.632-0.678c-0.36,0.418-0.371,1.814,0.144,2.377c0.07-0.275,0.104-0.352,0.328-0.53
			c0,0-0.06,1.149,0.657,1.817c0.127-0.371,0.263-0.543,0.263-0.543s0.065,2.317,2.214,2.907c-0.049,0.005-0.506-0.98,0.087-1.616
			c0.475-0.535,0.643-0.941,0.624-1.438c0,0,0.321,0.153,0.478,0.511c0.652-0.735,0.489-1.874,0.489-1.874
			c0.236,0.155,0.279,0.23,0.374,0.497c0.461-0.614,0.322-2-0.074-2.379c0.505,0.143,0.575,0.405,0.691,0.611
			c0.076-1.244-0.498-3.595-2.208-4.404c0.169-0.606,0.385-1.193,0.647-1.755l0.613,0.275c0.004,0.245,0.12,0.486,0.337,0.639
			c0.36,0.257,0.862,0.171,1.12-0.188c0.256-0.362,0.171-0.86-0.19-1.117c-0.31-0.22-0.718-0.188-0.991,0.049l-0.582-0.263
			c0.865-1.591,2.109-2.955,3.607-3.973c-1.647,1.774-0.354,4.514,0.645,5.557c-0.045-0.234-0.161-0.477,0.131-0.914
			c-0.057,0.548,0.734,1.698,1.482,1.868c-0.101-0.266-0.117-0.348-0.034-0.621c0,0,0.611,0.977,1.584,1.119
			c-0.109-0.378,0.034-0.7,0.034-0.7c0.308,0.393,0.7,0.594,1.408,0.697c0.864,0.104,1.15,1.151,1.111,1.179
			c1.26-1.833-0.186-3.644-0.186-3.644s0.216,0.04,0.55,0.245c0.115-0.972-0.672-1.813-0.672-1.813
			c0.286-0.008,0.364,0.028,0.594,0.194c0.029-0.764-0.882-1.822-1.426-1.909c0.501-0.167,0.707,0.009,0.921,0.111
			c-0.646-1.083-2.451-2.682-4.327-2.372c1.405-0.618,2.958-0.96,4.588-0.96c1.251,0,2.48,0.203,3.643,0.593
			c-1.072,1.435-1.656,3.175-1.656,4.988c0,1.976,0.704,3.893,1.981,5.398c0.047,0.069,0.149,0.202,0.31,0.376
			c0.363,0.429,0.585,0.984,0.594,1.587l-0.472,38.75v0.001c-0.021,0.717-0.155,1.995-0.97,2.788c-2.09,2.46-8.461,5.072-9.967,5.39
			c-1.46,0.316-4.648,1.545-5.933,5.235c0,0,2.401-2.601,5.696-2.582c0,0,2.054,0.078,3.317-1.302
			c-0.252,1.052-3.049,2.865-4.867,3.503c-1.416,0.447-4.091,1.846-4.657,5.415c0,0,0.899-2.075,2.824-2.973
			c-0.479,1.846-0.452,4.888,1.288,7.656c-0.304-2.056-0.388-3.714,0.333-5.33c0.493-1.04,1.237-1.828,0.929-3.103
			c1.607-0.736,2.351-1.12,2.511-1.225c0.04,1.62-0.225,4.361,2.431,7.312c0,0-2.097-7.654,2.311-9.829
			c1.061-0.527,3.081-1.463,4.302-3.373c0,0,0.094,1.304,0.281,2.108c0.184,0.791,0.074,1.334-0.624,2.966
			c-0.924,2.086-0.227,4.993,0.438,6.322c0.636,1.332,0.346,2.387,0.013,3.098c1.05-1.451,1.327-2.78,1.249-4.52
			c-0.014-1.832,0.462-2.875,1.508-4.404c0.648-1.018,0.857-1.526,0.67-3.632c-0.142-1.159,0.111-2.075,1.132-2.075
			c0.539,0,1.271,0.354,0.788,2.39c-0.124,0.725-0.068,2.359,0.895,3.532c1.076,1.315,1.959,3.614,1.501,6.146
			c-0.08,0.494-0.093,0.593-0.093,0.593s1.662-2.036,1.449-6.37c0,0-0.014-1.616-1.031-2.671c0,0-0.753-0.842-0.301-1.879
			c0.451-1.037,1.708-1.047,2.302-0.326c0.263,0.329,0.52,0.718,0.37,1.746c-0.103,0.924,0.05,1.749,0.649,2.522
			c0.361,0.448,0.655,1.002,0.397,2.391c-0.097,0.588-0.16,0.799-0.16,0.799s1.882-2.364,1.179-4.928c0,0-0.344-1.234,0.008-2.223
			c0.253-0.713,0.976-0.91,1.584-0.712c0.452,0.151,2.507,0.994,4.49,0.651c1.984-0.342,2.722-2.23,2.702-3.18
			c-0.993,0.474-2.273,0.889-4.127,0.157c-0.854-0.27-1.284-0.545-3.374-0.634c-1.939-0.086-4.419-1.21-5.26-2.413
			c-0.841-1.221-1.097-1.696-1.167-3.443c-0.002-0.045-0.005-0.089-0.009-0.133L86.01,56.329c0.008-0.602,0.231-1.158,0.594-1.587
			c0.161-0.174,0.262-0.305,0.31-0.375c1.279-1.507,1.981-3.423,1.981-5.398c0-1.812-0.583-3.553-1.657-4.988
			c1.165-0.39,2.395-0.593,3.643-0.593c1.632,0,3.183,0.341,4.589,0.96c-1.875-0.31-3.681,1.289-4.328,2.372
			c0.216-0.103,0.424-0.278,0.923-0.111c-0.544,0.087-1.456,1.145-1.427,1.909c0.233-0.166,0.308-0.202,0.594-0.194
			c0,0-0.789,0.841-0.672,1.813c0.335-0.204,0.552-0.245,0.552-0.245s-1.449,1.811-0.186,3.644c-0.042-0.028,0.244-1.075,1.11-1.179
			c0.708-0.103,1.099-0.304,1.405-0.697c0,0,0.145,0.322,0.036,0.7c0.973-0.142,1.584-1.119,1.584-1.119
			c0.081,0.273,0.066,0.355-0.034,0.621c0.747-0.17,1.539-1.32,1.482-1.868c0.291,0.437,0.175,0.68,0.132,0.914
			c0.999-1.043,2.291-3.783,0.642-5.557c1.501,1.019,2.744,2.383,3.61,3.975l-0.583,0.261c-0.274-0.237-0.683-0.269-0.991-0.049
			c-0.361,0.257-0.444,0.755-0.187,1.117c0.256,0.359,0.757,0.445,1.119,0.188c0.214-0.153,0.33-0.393,0.334-0.639l0.613-0.275
			c0.262,0.562,0.48,1.149,0.647,1.755c-1.71,0.809-2.283,3.16-2.207,4.404c0.117-0.205,0.186-0.468,0.691-0.611
			c-0.396,0.379-0.535,1.765-0.075,2.379c0.096-0.267,0.138-0.342,0.377-0.497c0,0-0.164,1.139,0.487,1.874
			c0.158-0.358,0.479-0.511,0.479-0.511c-0.021,0.498,0.15,0.903,0.623,1.438c0.594,0.636,0.136,1.621,0.086,1.616
			c2.151-0.59,2.213-2.907,2.213-2.907s0.139,0.172,0.264,0.543c0.716-0.668,0.659-1.817,0.659-1.817
			c0.222,0.178,0.257,0.256,0.328,0.53c0.515-0.564,0.504-1.959,0.145-2.377c0.489,0.193,0.533,0.462,0.631,0.678
			c0.257-1.551-0.344-4.878-3.231-5.018c-0.032-0.002-0.061-0.002-0.091-0.002c-0.191-0.712-0.441-1.398-0.747-2.053l0.529-0.235
			c0.273,0.239,0.682,0.269,0.99,0.053c0.363-0.257,0.448-0.757,0.193-1.117c-0.257-0.363-0.756-0.446-1.119-0.192
			c-0.216,0.151-0.334,0.393-0.34,0.638l-0.557,0.247c-0.719-1.345-1.675-2.549-2.813-3.553c1.687,0.839,3.892-0.151,4.826-0.972
			c-0.234,0.034-0.482,0.14-0.909-0.168c0.546,0.078,1.728-0.663,1.928-1.403c-0.268,0.091-0.352,0.1-0.623,0.009
			c0,0,1.002-0.571,1.182-1.537c-0.38,0.097-0.697-0.062-0.697-0.062c0.405-0.29,0.622-0.671,0.753-1.374
			c0.139-0.859,1.199-1.102,1.226-1.06c-1.787-1.332-3.659,0.04-3.659,0.04s0.052-0.215,0.268-0.54
			c-0.967-0.155-1.841,0.597-1.841,0.597c0.003-0.284,0.044-0.359,0.217-0.583c-0.761-0.06-1.858,0.806-1.969,1.346
			c-0.145-0.505,0.038-0.705,0.151-0.914c-1.385,0.751-3.647,3.266-1.986,5.628c0.055,0.078,0.111,0.151,0.169,0.221
			c-1.131-0.82-2.401-1.46-3.766-1.876l0.17-0.657c0.357-0.066,0.635-0.367,0.656-0.742c0.026-0.442-0.312-0.819-0.754-0.845
			c-0.445-0.026-0.823,0.313-0.846,0.753c-0.016,0.265,0.098,0.507,0.289,0.663l-0.168,0.646c-0.994-0.245-2.03-0.375-3.098-0.375
			c-1.603,0-3.178,0.299-4.646,0.869c-0.468-0.448-0.971-0.849-1.504-1.196c0.171-0.041,0.344-0.08,0.521-0.111l0.009-0.002
			C88.82,40.91,92,38.801,93.984,35.76l0.01-0.014c1.316-2.083,2.406-4.288,3.257-6.577c-0.334,2.453,2.383,3.912,3.824,4.16
			c-0.175-0.161-0.416-0.287-0.44-0.812c0.278,0.473,1.601,0.927,2.303,0.618c-0.238-0.151-0.3-0.21-0.399-0.477
			c0,0,1.076,0.421,1.941-0.044c-0.314-0.235-0.389-0.583-0.389-0.583c0.481,0.134,0.914,0.064,1.546-0.275
			c0.757-0.43,1.61,0.242,1.595,0.288c-0.08-2.224-2.325-2.819-2.325-2.819s0.2-0.095,0.591-0.131
			c-0.487-0.849-1.621-1.056-1.621-1.056c0.224-0.176,0.309-0.192,0.594-0.197c-0.434-0.632-1.797-0.941-2.284-0.687
			c0.3-0.43,0.572-0.413,0.805-0.458c-1.297-0.54-4.132-0.741-5.295,1.195c0.471-1.43,0.851-2.889,1.134-4.372l0.644,0.113
			c0.066,0.237,0.238,0.443,0.485,0.537c0.414,0.161,0.878-0.044,1.038-0.458c0.161-0.411-0.044-0.875-0.458-1.036
			c-0.352-0.136-0.742-0.007-0.948,0.29l-0.641-0.11c0.109-0.623,0.198-1.247,0.271-1.877c1.966-0.183,3.252-2.37,3.54-3.624
			c-0.169,0.165-0.31,0.398-0.836,0.393c0.487-0.253,1.014-1.545,0.746-2.261c-0.166,0.228-0.227,0.287-0.501,0.37
			c0,0,0.482-1.048,0.065-1.934c-0.254,0.296-0.605,0.354-0.605,0.354c0.161-0.471,0.115-0.91-0.191-1.556
			c-0.387-0.779,0.33-1.592,0.377-1.573c-2.23-0.044-2.947,2.159-2.947,2.159s-0.086-0.203-0.1-0.594
			c-0.876,0.438-1.146,1.556-1.146,1.556c-0.164-0.233-0.175-0.318-0.166-0.6c-0.653,0.396-1.038,1.736-0.812,2.237
			c-0.414-0.323-0.381-0.593-0.412-0.829c-0.681,1.403-1.047,4.713,1.601,5.7c-0.071,0.614-0.16,1.226-0.263,1.833l-0.578-0.112
			c-0.087-0.351-0.405-0.611-0.782-0.607c-0.446,0.003-0.802,0.363-0.799,0.806c0.003,0.442,0.364,0.799,0.806,0.796
			c0.266-0.002,0.5-0.133,0.646-0.331l0.587,0.114c-0.281,1.446-0.653,2.872-1.117,4.268c0.307-2.319-2.171-3.872-3.566-4.203
			c0.164,0.174,0.394,0.319,0.383,0.845c-0.246-0.492-1.53-1.044-2.251-0.789c0.228,0.17,0.286,0.233,0.363,0.507
			c0,0-1.042-0.499-1.934-0.098c0.295,0.259,0.399,0.454,0.399,0.454s-2.164-0.837-3.541,0.913c0.015-0.048,1.102-0.091,1.461,0.704
			c0.31,0.643,0.619,0.955,1.086,1.131c0,0-0.265,0.233-0.658,0.241c0.427,0.883,1.543,1.175,1.543,1.175
			c-0.236,0.157-0.319,0.168-0.604,0.153c0.387,0.661,1.725,1.07,2.228,0.852c-0.328,0.411-0.599,0.373-0.833,0.399
			c1.28,0.63,4.231,1.041,5.461-0.977c-0.807,2.137-1.83,4.197-3.063,6.147c-0.495,0.756-1.072,1.448-1.716,2.065l-0.475-0.568
			c0.155-0.328,0.072-0.729-0.222-0.966c-0.346-0.276-0.851-0.222-1.129,0.123c-0.279,0.343-0.222,0.847,0.121,1.125
			c0.209,0.167,0.471,0.212,0.708,0.15l0.494,0.59c-1.584,1.353-3.51,2.281-5.581,2.651l-0.009,0.001
			c-0.7,0.125-1.374,0.32-2.02,0.579c-0.646-0.259-1.321-0.454-2.018-0.579l-0.013-0.001c-2.071-0.37-3.999-1.298-5.581-2.651
			l0.493-0.59c0.238,0.062,0.502,0.017,0.708-0.15c0.346-0.278,0.4-0.782,0.122-1.125c-0.279-0.345-0.782-0.399-1.127-0.123
			c-0.294,0.237-0.377,0.638-0.222,0.966l-0.476,0.568c-0.645-0.617-1.22-1.308-1.714-2.062l-0.002-0.005
			c-1.233-1.948-2.258-4.009-3.064-6.147c1.229,2.019,4.181,1.61,5.462,0.978c-0.236-0.027-0.503,0.011-0.833-0.399
			c0.505,0.218,1.84-0.191,2.226-0.852c-0.281,0.015-0.367,0.004-0.601-0.153c0,0,1.116-0.292,1.541-1.175
			c-0.393-0.008-0.659-0.241-0.659-0.241c0.47-0.176,0.777-0.488,1.087-1.131c0.359-0.794,1.446-0.752,1.462-0.704
			c-1.377-1.75-3.542-0.913-3.542-0.913s0.104-0.195,0.399-0.454c-0.893-0.4-1.934,0.098-1.934,0.098
			c0.08-0.275,0.138-0.337,0.363-0.507c-0.718-0.256-2.004,0.297-2.249,0.789c-0.011-0.526,0.219-0.671,0.381-0.845
			c-1.394,0.331-3.874,1.885-3.565,4.205c-0.463-1.397-0.836-2.822-1.114-4.27l0.586-0.114c0.145,0.198,0.378,0.329,0.643,0.331
			c0.444,0.003,0.805-0.354,0.807-0.796c0.003-0.443-0.354-0.803-0.797-0.806c-0.378-0.003-0.695,0.256-0.783,0.607l-0.578,0.112
			c-0.104-0.607-0.191-1.219-0.263-1.833c2.647-0.987,2.281-4.297,1.601-5.7c-0.032,0.236,0.002,0.505-0.413,0.829
			c0.226-0.501-0.159-1.841-0.812-2.237c0.01,0.282-0.002,0.368-0.164,0.6c0,0-0.27-1.119-1.148-1.556
			c-0.014,0.392-0.098,0.594-0.098,0.594s-0.718-2.203-2.947-2.159c0.045-0.019,0.765,0.794,0.375,1.573
			c-0.304,0.646-0.351,1.084-0.192,1.556c0,0-0.351-0.058-0.603-0.354c-0.417,0.886,0.062,1.934,0.062,1.934
			c-0.27-0.083-0.334-0.142-0.5-0.37c-0.269,0.717,0.259,2.008,0.747,2.261c-0.525,0.004-0.668-0.228-0.838-0.393
			c0.289,1.255,1.573,3.441,3.54,3.624c0.075,0.63,0.164,1.255,0.27,1.877l-0.64,0.11c-0.206-0.297-0.595-0.426-0.948-0.29
			c-0.411,0.161-0.618,0.625-0.458,1.036c0.161,0.413,0.627,0.618,1.038,0.458c0.249-0.094,0.421-0.3,0.485-0.537l0.644-0.113
			c0.286,1.483,0.666,2.942,1.135,4.372c-1.163-1.936-3.997-1.734-5.297-1.195c0.235,0.045,0.505,0.028,0.809,0.458
			C63.276,26.902,61.913,27.21,61.481,27.842z M78.71,50.814c-0.164-0.596-0.25-1.217-0.25-1.845c0-1.632,0.568-3.19,1.603-4.437
			c0.645,0.312,1.26,0.685,1.839,1.117C80.427,47.097,79.334,48.872,78.71,50.814z M82.976,52.327c-1.232,0-2.233-0.99-2.233-2.213
			c0-0.386,0.101-0.749,0.277-1.064c0.529-0.912,1.185-1.751,1.956-2.489c0.766,0.735,1.42,1.569,1.945,2.472
			c0.181,0.32,0.285,0.688,0.285,1.08C85.206,51.337,84.209,52.327,82.976,52.327z M87.49,48.97c0,0.628-0.085,1.249-0.251,1.845
			c-0.622-1.942-1.715-3.717-3.191-5.165c0.579-0.432,1.195-0.805,1.839-1.117C86.924,45.78,87.49,47.338,87.49,48.97z
			 M84.845,43.491c-0.655,0.349-1.279,0.754-1.869,1.216c-0.589-0.462-1.216-0.867-1.871-1.216c0.576-0.484,1.201-0.888,1.871-1.208
			C83.644,42.603,84.272,43.007,84.845,43.491z"/>
		<path id="XMLID_5512_" style="fill:#FFFFFF;" d="M141.179,17.25c0,6.712,3.458,10.861,10.688,10.861
			c6.338,0,10.499-3.878,10.499-10.861V1.926l3.499-0.389V0.568h-8.941v0.969l3.576,0.389v14.935c0,5.821-2.409,9.311-7.658,9.311
			c-4.667,0-6.999-3.104-6.999-9.311V1.926l2.915-0.389V0.568h-10.497v0.969l2.918,0.389V17.25z"/>
		<polygon id="XMLID_5510_" style="fill:#FFFFFF;" points="176.943,26.754 173.443,26.365 173.443,4.64 188.022,27.724 
			190.821,27.724 190.821,1.926 194.242,1.537 194.242,0.568 185.496,0.568 185.496,1.537 188.994,1.926 188.994,20.159 
			176.749,0.568 168.196,0.568 168.196,1.537 171.577,1.926 171.577,26.365 168.196,26.754 168.196,27.724 176.943,27.724 		"/>
		<polygon id="XMLID_5509_" style="fill:#FFFFFF;" points="207.069,26.754 204.154,26.365 204.154,1.926 207.069,1.537 
			207.069,0.568 196.573,0.568 196.573,1.537 199.491,1.926 199.491,26.365 196.573,26.754 196.573,27.724 207.069,27.724 		"/>
		<polygon id="XMLID_5508_" style="fill:#FFFFFF;" points="220.677,27.918 223.282,27.918 232.182,1.926 235.45,1.537 235.45,0.568 
			226.507,0.568 226.507,1.537 230.277,1.926 223.513,22.487 223.435,22.487 216.01,1.926 219.315,1.537 219.315,0.568 
			208.625,0.568 208.625,1.537 210.957,1.926 		"/>
		<polygon id="XMLID_5507_" style="fill:#FFFFFF;" points="257.607,21.321 256.441,21.321 255.274,26.172 244.583,26.172 
			244.583,14.844 251.582,14.844 251.893,18.8 253.059,18.8 253.059,9.296 251.893,9.296 251.582,13.292 244.583,13.292 
			244.583,2.119 254.885,2.119 255.858,6.968 257.023,6.968 256.828,0.568 237.001,0.568 237.001,1.538 239.919,1.926 
			239.919,26.365 237.001,26.754 237.001,27.724 257.217,27.724 		"/>
		<path id="XMLID_5502_" style="fill:#FFFFFF;" d="M267.908,15.891h2.215l7.309,11.834h6.997v-0.971l-1.749-0.388l-7.697-11.018
			c4.704-1.279,6.142-4.421,6.142-7.486c0-4.268-3.11-7.294-8.942-7.294h-11.857v0.969l2.915,0.389v24.439l-2.915,0.388v0.971
			h10.496v-0.971l-2.914-0.388V15.891z M267.908,2.119h3.11c4.08,0,5.247,3.025,5.247,6.129c0,3.414-1.167,6.091-6.025,6.091h-2.331
			V2.119z"/>
		<path id="XMLID_5500_" style="fill:#FFFFFF;" d="M294.653,26.365c-2.526,0-4.666-1.086-6.026-2.521l-0.7-5.12h-1.166l0.078,7.448
			c2.254,1.166,5.404,1.941,8.203,1.941c5.209,0,9.213-2.91,9.213-8.148c0-4.656-4.12-7.178-8.01-8.729
			c-2.798-1.126-4.663-2.716-4.663-5.237c0-2.909,2.137-4.073,4.431-4.073c2.449,0,4.082,0.931,5.171,2.249l0.738,4.656h1.167
			l-0.196-6.905c-2.137-1.164-4.935-1.746-7.307-1.746c-5.326,0-8.825,2.949-8.825,7.333c0,4.344,3.382,6.517,7.309,8.186
			c2.915,1.24,5.52,2.868,5.52,5.819C299.589,24.504,297.606,26.365,294.653,26.365z"/>
		<polygon id="XMLID_5498_" style="fill:#FFFFFF;" points="317.666,26.754 314.75,26.365 314.75,1.926 317.666,1.537 317.666,0.568 
			307.17,0.568 307.17,1.537 310.085,1.926 310.085,26.365 307.17,26.754 307.17,27.724 317.666,27.724 		"/>
		<path id="XMLID_5492_" style="fill:#FFFFFF;" d="M346.237,14.146c0-8.536-5.636-13.578-13.994-13.578h-11.858v0.969l2.916,0.389
			v24.439l-2.916,0.388v0.971h11.858C340.602,27.724,346.237,22.137,346.237,14.146z M332.244,26.172h-4.275V2.119h3.886
			c6.532,0,9.33,4.849,9.33,12.027C341.185,20.276,338.541,26.172,332.244,26.172z"/>
		<path id="XMLID_5486_" style="fill:#FFFFFF;" d="M353.739,18.529h8.71l2.721,7.837l-3.187,0.388v0.97h10.884v-0.97l-2.333-0.388
			l-9.718-25.993h-2.645l-8.981,25.993l-3.148,0.388v0.97h8.941v-0.97l-3.732-0.388L353.739,18.529z M357.938,5.804h0.079
			l3.849,11.173h-7.581L357.938,5.804z"/>
		<path id="XMLID_5480_" style="fill:#FFFFFF;" d="M400.274,14.146c0-8.536-5.638-13.578-13.996-13.578h-11.857v0.969l2.915,0.389
			v24.439l-2.915,0.388v0.971h11.857C394.637,27.724,400.274,22.137,400.274,14.146z M382.002,2.119h3.887
			c6.531,0,9.331,4.849,9.331,12.027c0,6.13-2.644,12.026-8.942,12.026h-4.276V2.119z"/>
		<path id="XMLID_5474_" style="fill:#FFFFFF;" d="M146.053,57.807h2.72c8.164,0,10.886-4.46,10.886-8.34
			c0-4.268-3.11-7.37-8.943-7.37H138.47v0.97l2.915,0.387v24.441l-2.915,0.387v0.971h10.496v-0.971l-2.914-0.387V57.807z
			 M146.053,43.648h3.497c4.082,0,5.25,3.105,5.25,6.206c0,3.416-1.557,6.403-6.416,6.403h-2.331V43.648z"/>
		<path id="XMLID_5468_" style="fill:#FFFFFF;" d="M170.731,41.904h-2.643l-8.981,25.993l-3.147,0.387v0.971h8.94v-0.971
			l-3.732-0.387l2.487-7.838h8.709l2.72,7.838l-3.187,0.387v0.971h10.886v-0.971l-2.333-0.387L170.731,41.904z M164.2,58.505
			l3.653-11.173h0.079l3.848,11.173H164.2z"/>
		<polygon id="XMLID_5466_" style="fill:#FFFFFF;" points="210.188,42.097 201.441,42.097 201.441,43.067 204.94,43.454 
			204.94,61.689 192.694,42.097 184.14,42.097 184.14,43.067 187.524,43.454 187.524,67.895 184.14,68.282 184.14,69.253 
			192.889,69.253 192.889,68.282 189.39,67.895 189.39,46.17 203.969,69.253 206.768,69.253 206.768,43.454 210.188,43.067 		"/>
		<path id="XMLID_5460_" style="fill:#FFFFFF;" d="M223.978,41.904h-2.646l-8.98,25.993l-3.147,0.387v0.971h8.94v-0.971l-3.73-0.387
			l2.486-7.838h8.709l2.722,7.838l-3.188,0.387v0.971h10.884v-0.971l-2.33-0.387L223.978,41.904z M217.446,58.505l3.655-11.173
			h0.078l3.848,11.173H217.446z"/>
		<polygon id="XMLID_5458_" style="fill:#FFFFFF;" points="253.91,63.046 246.33,42.096 237.388,42.096 237.388,43.067 
			240.887,43.453 240.887,67.895 237.388,68.282 237.388,69.253 246.136,69.253 246.136,68.282 242.635,67.895 242.635,46.17 
			251.188,69.448 253.521,69.448 261.298,47.526 261.298,67.895 258.381,68.282 258.381,69.253 268.878,69.253 268.878,68.282 
			265.96,67.895 265.96,43.453 268.878,43.067 268.878,42.096 261.298,42.096 		"/>
		<polygon id="XMLID_5451_" style="fill:#FFFFFF;" points="289.674,67.702 278.983,67.702 278.983,56.372 285.981,56.372 
			286.292,60.329 287.459,60.329 287.459,50.824 286.292,50.824 285.981,54.822 278.983,54.822 278.983,43.648 289.285,43.648 
			290.257,48.497 291.423,48.497 291.229,42.097 271.402,42.097 271.402,43.068 274.317,43.454 274.317,67.895 271.402,68.283 
			271.402,69.253 291.617,69.253 292.007,62.851 290.84,62.851 		"/>
		<path id="XMLID_5444_" style="fill:#FFFFFF;" d="M309.188,56.876c4.705-1.279,6.142-4.421,6.142-7.486
			c0-4.268-3.11-7.293-8.94-7.293h-11.858v0.97l2.915,0.387v24.441l-2.915,0.387v0.971h10.497v-0.971l-2.915-0.387V57.421h2.215
			l7.31,11.833h6.996v-0.971l-1.747-0.387L309.188,56.876z M302.114,55.869V43.648h3.11c4.081,0,5.247,3.025,5.247,6.13
			c0,3.413-1.166,6.091-6.025,6.091H302.114z"/>
		<polygon id="XMLID_5442_" style="fill:#FFFFFF;" points="320.382,43.067 323.299,43.454 323.299,67.895 320.382,68.283 
			320.382,69.253 330.88,69.253 330.88,68.283 327.964,67.895 327.964,43.454 330.88,43.067 330.88,42.097 320.382,42.097 		"/>
		<path id="XMLID_5440_" style="fill:#FFFFFF;" d="M346.43,43.376c3.227,0,5.443,1.397,6.687,2.676l0.7,4.58h1.166l-0.195-6.597
			c-1.554-0.968-4.859-2.328-8.747-2.328c-7.736,0-13.217,5.82-13.217,13.967c0,8.147,5.481,13.967,13.217,13.967
			c3.888,0,7.193-1.36,8.747-2.329l0.195-6.595h-1.166l-0.7,4.616c-1.243,1.281-3.46,2.677-6.687,2.677
			c-5.248,0-8.551-4.965-8.551-12.337C337.879,48.304,341.181,43.376,346.43,43.376z"/>
		<path id="XMLID_5436_" style="fill:#FFFFFF;" d="M370.921,41.904h-2.645l-8.981,25.993l-3.147,0.387v0.971h8.94v-0.971
			l-3.73-0.387l2.486-7.838h8.71l2.722,7.838l-3.188,0.387v0.971h10.885v-0.971l-2.333-0.387L370.921,41.904z M364.389,58.505
			l3.653-11.173h0.078l3.849,11.173H364.389z"/>
		<polygon id="XMLID_5434_" style="fill:#FFFFFF;" points="410.378,42.097 401.632,42.097 401.632,43.067 405.129,43.454 
			405.129,61.689 392.885,42.097 384.331,42.097 384.331,43.067 387.714,43.454 387.714,67.895 384.331,68.282 384.331,69.253 
			393.079,69.253 393.079,68.282 389.58,67.895 389.58,46.17 404.158,69.253 406.957,69.253 406.957,43.454 410.378,43.067 		"/>
		<path id="XMLID_5430_" style="fill:#FFFFFF;" d="M425.144,41.904H422.5l-8.981,25.993l-3.148,0.387v0.971h8.94v-0.971
			l-3.731-0.387l2.487-7.838h8.71l2.72,7.838l-3.187,0.387v0.971h10.886v-0.971l-2.333-0.387L425.144,41.904z M418.613,58.505
			l3.653-11.173h0.079l3.849,11.173H418.613z"/>
		<path id="XMLID_5426_" style="fill:#FFFFFF;" d="M443.421,50.382l-1.108-1.425c1.036-0.251,1.555-0.856,1.555-1.515
			c0-1.157-0.842-1.602-2.428-1.602h-2.911v0.25c0.644,0.123,0.803,0.248,0.803,0.837v3.49c0,0.588-0.159,0.73-0.803,0.855v0.231
			h2.857v-0.231c-0.626-0.125-0.786-0.267-0.786-0.855v-1.338h0.41l1.071,1.695c0.197,0.301,0.394,0.532,0.715,0.729h1.715v-0.231
			C444.117,51.096,443.761,50.81,443.421,50.382z M440.904,48.672h-0.304v-2.439h0.534c0.876,0,1.429,0.48,1.429,1.21
			C442.564,48.423,441.833,48.672,440.904,48.672z"/>
		<path id="XMLID_5422_" style="fill:#FFFFFF;" d="M441.332,42.098c-3.552,0-6.427,2.869-6.427,6.414
			c0,3.545,2.875,6.413,6.427,6.413c3.553,0,6.428-2.868,6.428-6.413C447.76,44.967,444.885,42.098,441.332,42.098z M441.332,54.284
			c-3.195,0-5.784-2.583-5.784-5.772c0-3.187,2.589-5.771,5.784-5.771c3.196,0,5.785,2.584,5.785,5.771
			C447.117,51.701,444.528,54.284,441.332,54.284z"/>
	</g>
	<g id="XMLID_5376_">
		<g id="XMLID_5377_">
			<path id="XMLID_5418_" style="fill:#FFFFFF;" d="M142.502,105.942c0,3.755,1.998,6.428,4.745,6.428
				c1.365,0,2.413-0.556,3.164-1.327v-3.717l-1.78-0.199v-0.395h4.748v0.395l-1.385,0.199v4.151
				c-0.79,0.594-2.769,1.584-4.748,1.584c-3.717,0-6.525-2.965-6.525-7.119c0-4.154,2.808-7.122,6.525-7.122
				c1.979,0,3.559,0.694,4.353,1.189l0.1,3.264h-0.495l-0.357-2.313c-0.633-0.713-1.822-1.446-3.601-1.446
				C144.5,99.514,142.502,102.183,142.502,105.942z"/>
			<path id="XMLID_5415_" style="fill:#FFFFFF;" d="M165.658,99.613l-1.78-0.199v-0.395h4.35v0.395l-1.78,0.199v7.912
				c0,3.559-2.017,5.535-5.24,5.535c-3.482,0-5.044-2.117-5.044-5.535v-7.912l-1.78-0.199v-0.395h5.14v0.395l-1.78,0.199v7.713
				c0,3.164,1.189,4.944,3.858,4.944c2.67,0,4.054-1.78,4.054-4.944V99.613z"/>
			<path id="XMLID_5410_" style="fill:#FFFFFF;" d="M179.635,112.27l1.285,0.196v0.398h-5.143v-0.398l1.979-0.196l-1.523-4.154
				h-4.944l-1.285,4.154l1.818,0.196v0.398h-4.35v-0.398l1.642-0.196l4.587-13.348h0.989L179.635,112.27z M173.683,100.998
				l-2.156,6.425h4.449l-2.255-6.425H173.683z"/>
			<path id="XMLID_5406_" style="fill:#FFFFFF;" d="M181.923,112.865v-0.398l1.78-0.196V99.613l-1.78-0.199v-0.395h5.934
				c4.253,0,6.923,2.57,6.923,6.923c0,4.073-2.67,6.923-6.923,6.923H181.923z M187.856,112.171c3.601,0,5.143-3.103,5.143-6.229
				c0-3.659-1.622-6.229-5.339-6.229h-2.374v12.458H187.856z"/>
			<path id="XMLID_5401_" style="fill:#FFFFFF;" d="M207.176,112.27l1.285,0.196v0.398h-5.143v-0.398l1.979-0.196l-1.523-4.154
				h-4.944l-1.285,4.154l1.818,0.196v0.398h-4.35v-0.398l1.642-0.196l4.587-13.348h0.989L207.176,112.27z M201.224,100.998
				l-2.156,6.425h4.449l-2.255-6.425H201.224z"/>
			<path id="XMLID_5398_" style="fill:#FFFFFF;" d="M218.664,112.171l0.594-2.474h0.495l-0.199,3.168h-10.087v-0.398l1.78-0.196
				V99.613l-1.78-0.199v-0.395h5.143v0.395l-1.78,0.199v12.558H218.664z"/>
			<path id="XMLID_5393_" style="fill:#FFFFFF;" d="M232.52,112.27l1.285,0.196v0.398h-5.143v-0.398l1.979-0.196l-1.523-4.154
				h-4.944l-1.285,4.154l1.818,0.196v0.398h-4.35v-0.398l1.642-0.196l4.587-13.348h0.989L232.52,112.27z M226.567,100.998
				l-2.156,6.425h4.449l-2.255-6.425H226.567z"/>
			<path id="XMLID_5390_" style="fill:#FFFFFF;" d="M238.174,112.27c0,3.164-1.741,5.259-2.75,5.934h-0.395
				c0.594-0.79,1.561-2.374,1.561-5.339V99.613l-1.78-0.199v-0.395h5.143v0.395l-1.78,0.199V112.27z"/>
			<path id="XMLID_5386_" style="fill:#FFFFFF;" d="M251.528,112.27l1.285,0.196v0.398h-5.143v-0.398l1.979-0.196l-1.523-4.154
				h-4.944l-1.285,4.154l1.818,0.196v0.398h-4.35v-0.398l1.642-0.196l4.587-13.348h0.989L251.528,112.27z M245.576,100.998
				l-2.156,6.425h4.449l-2.255-6.425H245.576z"/>
			<path id="XMLID_5382_" style="fill:#FFFFFF;" d="M257.179,106.732v5.538l1.78,0.196v0.398h-5.143v-0.398l1.78-0.196V99.613
				l-1.78-0.199v-0.395h5.738c2.965,0,4.546,1.484,4.546,3.659c0,1.642-0.79,3.264-3.46,3.858l4.154,5.734l1.089,0.196v0.398h-2.968
				l-4.154-6.133H257.179z M258.76,106.041c2.968,0,3.659-1.426,3.659-3.168c0-1.581-0.691-3.161-3.264-3.161h-1.976v6.329H258.76z"
				/>
			<path id="XMLID_5378_" style="fill:#FFFFFF;" d="M278.655,112.27l1.285,0.196v0.398h-5.143v-0.398l1.979-0.196l-1.523-4.154
				h-4.944l-1.285,4.154l1.818,0.196v0.398h-4.35v-0.398l1.642-0.196l4.587-13.348h0.989L278.655,112.27z M272.702,100.998
				l-2.156,6.425h4.449l-2.255-6.425H272.702z"/>
		</g>
	</g>
</g>
</svg>
