<?xml version="1.0" encoding="iso-8859-1"?>
<!-- Generator: Adobe Illustrator 19.0.0, SVG Export Plug-In . SVG Version: 6.00 Build 0)  -->
<svg version="1.1" id="Capa_1" xmlns="http://www.w3.org/2000/svg" xmlns:xlink="http://www.w3.org/1999/xlink" x="0px" y="0px"
	 viewBox="-49 195.016 512 403.968" style="enable-background:new -49 195.016 512 403.968;" xml:space="preserve">
<g>
	<path style="fill:#FFFFFF;" d="M453.001,387.001h-28.038c-5.522,0-9.999,4.477-9.999,9.999s4.478,9.999,9.999,9.999h28.038
		c5.522,0,9.999-4.477,9.999-9.999S458.523,387.001,453.001,387.001z"/>
	<path style="fill:#FFFFFF;" d="M424.973,359.211c1.696,0,3.416-0.432,4.99-1.341l18.359-10.6c4.783-2.761,6.422-8.876,3.66-13.659
		c-2.762-4.783-8.875-6.421-13.659-3.66l-18.359,10.599c-4.783,2.761-6.422,8.876-3.66,13.659
		C418.156,357.418,421.516,359.211,424.973,359.211z"/>
	<path style="fill:#FFFFFF;" d="M448.321,446.73l-18.359-10.6c-4.784-2.762-10.897-1.123-13.659,3.66
		c-2.762,4.783-1.123,10.898,3.66,13.659l18.359,10.6c1.575,0.909,3.294,1.341,4.99,1.341c3.456,0,6.816-1.793,8.669-5.001
		C454.743,455.606,453.105,449.491,448.321,446.73z"/>
	<path style="fill:#FFFFFF;" d="M334.47,195.016c-3.391,0-6.621,0.783-9.702,2.341l-367.64,154.415
		C-46.585,353.33-49,356.963-49,360.99v71.994c0,4.026,2.415,7.659,6.127,9.219l53.931,22.656c0.032,0.014,0.065,0.027,0.097,0.041
		l25.839,10.853v62.735c0,15.714,12.784,28.498,28.498,28.498h90.993c15.714,0,28.498-12.784,28.498-28.498v-0.567l139.8,58.728
		c3.077,1.553,6.302,2.334,9.688,2.334c17.624,0,30.988-20.933,40.857-63.997c8.473-36.972,13.139-85.976,13.139-137.987
		s-4.666-101.015-13.139-137.987C365.458,215.949,352.094,195.016,334.47,195.016z M300.473,397c0-12.512,0.276-24.832,0.813-36.828
		c17.68,3.011,31.185,18.431,31.185,36.955c0,18.521-13.5,33.937-31.174,36.953C300.752,422.005,300.473,409.6,300.473,397z
		 M-29.002,367.635l331.62-139.285c-3.28,8.548-6.277,18.756-9.005,30.663c-0.31,1.35-0.612,2.722-0.912,4.104L179.325,305.79
		c-5.169,1.945-7.781,7.712-5.837,12.88c1.509,4.009,5.316,6.479,9.36,6.479c1.17,0,2.36-0.208,3.521-0.644l102.052-38.411
		c-5.165,32.412-7.946,70.76-7.946,110.905c0,52.011,4.666,101.015,13.139,137.987c2.729,11.906,5.727,22.112,9.005,30.661
		L24.994,449.022v-52.181c0-5.523-4.478-9.999-9.999-9.999s-9.999,4.477-9.999,9.999v43.78l-33.997-14.282V367.635z
		 M164.983,538.489c0,4.687-3.813,8.499-8.499,8.499H65.491c-4.687,0-8.499-3.813-8.499-8.499v-54.334l107.992,45.366V538.489z
		 M355.833,530.521c-9.13,39.841-19.328,48.465-21.363,48.465c-0.083,0-0.183-0.02-0.292-0.05c-0.162-0.079-0.32-0.164-0.488-0.235
		l-0.238-0.1c-3.356-2.023-12.266-12.827-20.345-48.081c-4.974-21.704-8.58-47.838-10.638-76.402c28.173-3.687,50-27.83,50-56.991
		c0-29.168-21.837-53.315-50.018-56.994c2.054-28.663,5.668-54.886,10.656-76.654c8.074-35.233,16.98-46.046,20.34-48.077
		l0.883-0.371c0.049-0.007,0.099-0.017,0.141-0.017c2.035,0,12.233,8.624,21.363,48.465c8.146,35.55,12.634,82.969,12.634,133.521
		S363.981,494.97,355.833,530.521z"/>
	<path style="fill:#FFFFFF;" d="M140.914,340.934c1.165,0,2.35-0.206,3.505-0.638l0.229-0.086c5.172-1.937,7.794-7.699,5.858-12.871
		c-1.938-5.171-7.697-7.793-12.871-5.858l-0.229,0.086c-5.172,1.937-7.794,7.699-5.858,12.871
		C133.052,338.455,136.863,340.934,140.914,340.934z"/>
</g>
</svg>
