<?xml version="1.0" encoding="iso-8859-1"?>
<!-- Generator: Adobe Illustrator 19.0.0, SVG Export Plug-In . SVG Version: 6.00 Build 0)  -->
<svg version="1.1" id="Layer_1" xmlns="http://www.w3.org/2000/svg" xmlns:xlink="http://www.w3.org/1999/xlink" x="0px" y="0px"
	 viewBox="-49 141 512 512" style="enable-background:new -49 141 512 512;" xml:space="preserve">
<g>
	<path style="fill:#FFFFFF;" d="M458.108,322.437L210.946,198.856c-2.484-1.241-5.407-1.241-7.892,0L-44.108,322.437
		c-4.363,2.175-6.137,7.475-3.963,11.838c0.855,1.716,2.247,3.107,3.963,3.963l92.218,46.105v140.194
		c0,44.551,69.797,79.445,158.89,79.445s158.89-34.894,158.89-79.445V384.342l44.136-22.068v119.75
		c-13.744,4.813-20.983,19.857-16.169,33.6c1.31,3.739,3.445,7.135,6.247,9.935l-15.889,39.837
		c-1.809,4.527,0.395,9.664,4.922,11.472c1.029,0.411,2.126,0.625,3.234,0.63h52.963c4.875,0.002,8.829-3.949,8.83-8.824
		c0-1.123-0.213-2.235-0.63-3.278l-15.889-39.837c10.294-10.299,10.29-26.994-0.009-37.288c-2.807-2.805-6.21-4.941-9.957-6.247
		V353.447l30.427-15.165c4.363-2.175,6.137-7.475,3.963-11.838c-0.855-1.716-2.247-3.107-3.963-3.963V322.437z M348.236,524.536
		c0,29.845-56.75,61.791-141.236,61.791S65.764,554.381,65.764,524.536v-7.291c26.155,25.502,78.924,42.6,141.236,42.6
		s115.081-17.098,141.236-42.6V524.536z M348.236,480.4c0,29.845-56.75,61.791-141.236,61.791S65.764,510.245,65.764,480.4V393.17
		l137.29,68.694c2.484,1.241,5.407,1.241,7.892,0l137.29-68.694V480.4z M418.854,498.055c4.875,0,8.827,3.952,8.827,8.827
		c0,4.875-3.952,8.827-8.827,8.827c-4.875,0-8.827-3.952-8.827-8.827C410.026,502.007,413.979,498.055,418.854,498.055z
		 M432.298,559.845H405.41l10.707-26.755c0.883,0.088,1.765,0.274,2.736,0.274c0.971,0,1.827-0.185,2.736-0.274L432.298,559.845z
		 M417.194,338.953l-168.282-16.825c-5.526-10.796-21.609-18.272-41.912-18.272c-25.166,0-44.136,11.387-44.136,26.482
		s18.97,26.482,44.136,26.482c19.517,0,35.185-6.894,41.294-17.01l139.32,13.929L207,444.05L-20.425,330.337L207,216.625
		l227.425,113.712L417.194,338.953z M233.482,330.337c0,2.198-9.392,8.827-26.482,8.827s-26.482-6.629-26.482-8.827
		s9.392-8.827,26.482-8.827S233.482,328.139,233.482,330.337z"/>
	
		<rect x="317.341" y="156.996" transform="matrix(-0.4472 0.8944 -0.8944 -0.4472 678.6617 42.5951)" style="fill:#FFFFFF;" width="17.654" height="148.042"/>
</g>
</svg>
