<?xml version="1.0" encoding="utf-8"?>
<!-- Generator: Adobe Illustrator 19.0.0, SVG Export Plug-In . SVG Version: 6.00 Build 0)  -->
<svg version="1.1" id="Layer_1" xmlns="http://www.w3.org/2000/svg" xmlns:xlink="http://www.w3.org/1999/xlink" x="0px" y="0px"
	 viewBox="0 0 72 72" style="enable-background:new 0 0 72 72;" xml:space="preserve">
<style type="text/css">
	.st0{fill-rule:evenodd;clip-rule:evenodd;fill:#FFFFFF;}
</style>
<g>
	<path class="st0" d="M72,35.1c0,19.4-15.8,35.1-35.3,35.1c-6.2,0-12-1.6-17.1-4.4L0,72l6.4-18.8c-3.2-5.3-5.1-11.5-5.1-18.1
		C1.3,15.7,17.1,0,36.7,0C56.2,0,72,15.7,72,35.1L72,35.1z M36.7,5.6C20.3,5.6,6.9,18.8,6.9,35.1c0,6.4,2.1,12.4,5.7,17.3L8.9,63.3
		l11.4-3.6c4.7,3.1,10.3,4.9,16.4,4.9c16.4,0,29.7-13.2,29.7-29.5C66.4,18.8,53,5.6,36.7,5.6L36.7,5.6z M54.5,43.2
		c-0.2-0.4-0.8-0.6-1.7-1c-0.9-0.4-5.1-2.5-5.9-2.8c-0.8-0.3-1.4-0.4-1.9,0.4c-0.6,0.9-2.2,2.8-2.7,3.4c-0.5,0.6-1,0.6-1.9,0.2
		c-0.9-0.4-3.7-1.3-7-4.3c-2.6-2.3-4.3-5.1-4.8-6c-0.5-0.9,0-1.3,0.4-1.8c0.4-0.4,0.9-1,1.3-1.5c0.4-0.5,0.6-0.9,0.9-1.4
		c0.3-0.6,0.1-1.1-0.1-1.5c-0.2-0.4-1.9-4.7-2.7-6.4c-0.7-1.7-1.4-1.4-1.9-1.4c-0.5,0-1.1-0.1-1.7-0.1c-0.6,0-1.5,0.2-2.3,1.1
		c-0.8,0.9-3,2.9-3,7.2c0,4.2,3.1,8.3,3.5,8.9c0.4,0.6,6,9.5,14.8,13c8.8,3.4,8.8,2.3,10.4,2.1c1.6-0.1,5.1-2.1,5.8-4.1
		C54.7,45.2,54.7,43.5,54.5,43.2L54.5,43.2z M54.5,43.2"/>
</g>
</svg>
