<?xml version="1.0" encoding="utf-8"?>
<!-- Generator: Adobe Illustrator 23.0.3, SVG Export Plug-In . SVG Version: 6.00 Build 0)  -->
<svg version="1.1" id="Layer_1" xmlns="http://www.w3.org/2000/svg" xmlns:xlink="http://www.w3.org/1999/xlink" x="0px" y="0px"
	 viewBox="0 0 184 184" style="enable-background:new 0 0 184 184;" xml:space="preserve">
<style type="text/css">
	.st0{fill:#002D74;}
	.st1{fill:#C8A977;}
</style>
<g>
	<circle class="st0" cx="92" cy="92" r="92"/>
	<g>
		<path class="st1" d="M130.67,89.67h-56c-0.25,0-0.49,0.07-0.71,0.2L52.63,103.2c-0.5,0.32-0.74,0.93-0.58,1.5
			c0.17,0.57,0.69,0.97,1.28,0.97h56c0.25,0,0.49-0.07,0.71-0.2l21.33-13.33c0.5-0.32,0.74-0.93,0.58-1.5
			C131.78,90.06,131.26,89.67,130.67,89.67z M108.95,103H57.98l17.07-10.67h50.97L108.95,103z"/>
		<path class="st1" d="M108.95,124.33H53.33V127h56c0.25,0,0.49-0.07,0.71-0.2l21.33-13.33l-1.41-2.26L108.95,124.33z"/>
		<path class="st1" d="M108.95,108.33H53.33V111h56c0.25,0,0.49-0.07,0.71-0.2l21.33-13.33l-1.41-2.26L108.95,108.33z"/>
		<path class="st1" d="M108.95,113.67H53.33v2.67h56c0.25,0,0.49-0.07,0.71-0.2l21.33-13.33l-1.41-2.26L108.95,113.67z"/>
		<path class="st1" d="M108.95,119H53.33v2.67h56c0.25,0,0.49-0.07,0.71-0.2l21.33-13.33l-1.41-2.26L108.95,119z"/>
		<path class="st1" d="M86.21,100.33h2.08c0.96,0,1.91-0.32,2.67-0.89l3.67-2.75c0.31-0.23,0.69-0.36,1.07-0.36h2.08
			c1.11,0,1.55,0.85,1.65,1.11c0.11,0.26,0.4,1.17-0.39,1.95l1.89,1.89c0.65-0.65,1.07-1.44,1.23-2.28h4.49v-2.67h-4.8
			c-0.72-1.65-2.27-2.67-4.07-2.67h-2.08c-0.96,0-1.91,0.32-2.67,0.89l-3.67,2.75c-0.31,0.23-0.69,0.36-1.08,0.36h-2.08
			c-1.11,0-1.55-0.85-1.65-1.11c-0.11-0.26-0.4-1.17,0.39-1.95l-1.89-1.89c-0.65,0.65-1.07,1.44-1.23,2.28h-4.49v2.67h4.8
			C82.85,99.31,84.4,100.33,86.21,100.33z"/>
		<path class="st1" d="M118.67,69.67c-0.36,0-0.82,0.01-1.33,0.02V51c0-3.71-10.21-4-13.33-4c-3.13,0-13.33,0.29-13.33,4v5.36
			C87.42,55.14,82.11,55,80,55c-3.13,0-13.33,0.29-13.33,4v28h2.67v-4.02c3.25,1.22,8.56,1.36,10.67,1.36
			c2.11,0,7.42-0.14,10.67-1.36V87h2.67v-6.69c3.25,1.22,8.56,1.36,10.67,1.36V79c-6.14,0-9.87-1.01-10.67-1.61v-2.42
			c3.25,1.22,8.56,1.36,10.67,1.36v-2.67c-6.14,0-9.87-1.01-10.67-1.61v-2.42C96.58,70.86,101.89,71,104,71v-2.67
			c-6.14,0-9.87-1.01-10.67-1.61v-2.42c3.25,1.22,8.56,1.36,10.67,1.36s7.42-0.14,10.67-1.36v5.5c-4.12,0.3-9.33,1.2-9.33,3.85V87
			H108v-5.36c3.25,1.22,8.56,1.35,10.67,1.35s7.42-0.14,10.67-1.36V87H132V73.67C132,69.96,121.8,69.67,118.67,69.67z M93.33,53.64
			C96.58,54.86,101.89,55,104,55s7.42-0.14,10.67-1.36v2.42c-0.8,0.59-4.53,1.61-10.67,1.61c-6.14,0-9.87-1.01-10.67-1.61V53.64z
			 M104,49.67c5.27,0,8.76,0.75,10.15,1.33c-1.39,0.59-4.89,1.33-10.15,1.33c-5.27,0-8.76-0.75-10.15-1.33
			C95.24,50.41,98.73,49.67,104,49.67z M90.67,64.06c-0.8,0.59-4.53,1.61-10.67,1.61s-9.87-1.01-10.67-1.61v-2.42
			C72.58,62.86,77.89,63,80,63c2.11,0,7.42-0.14,10.67-1.36V64.06z M90.67,69.39C89.87,69.99,86.14,71,80,71s-9.87-1.01-10.67-1.61
			v-2.42c3.25,1.22,8.56,1.36,10.67,1.36c2.11,0,7.42-0.14,10.67-1.36V69.39z M90.67,74.73c-0.8,0.59-4.53,1.61-10.67,1.61
			s-9.87-1.01-10.67-1.61v-2.42c3.25,1.22,8.56,1.36,10.67,1.36c2.11,0,7.42-0.14,10.67-1.36V74.73z M80,57.67
			c5.27,0,8.76,0.75,10.15,1.33c-1.39,0.59-4.89,1.33-10.15,1.33c-5.27,0-8.76-0.75-10.15-1.33C71.24,58.41,74.73,57.67,80,57.67z
			 M69.33,80.06v-2.42C72.58,78.86,77.89,79,80,79c2.11,0,7.42-0.14,10.67-1.36v2.42c-0.8,0.59-4.53,1.61-10.67,1.61
			S70.13,80.65,69.33,80.06z M93.33,61.39v-2.42c3.25,1.22,8.56,1.36,10.67,1.36s7.42-0.14,10.67-1.36v2.42
			C113.87,61.99,110.14,63,104,63C97.86,63,94.13,61.99,93.33,61.39z M118.67,72.33c5.27,0,8.76,0.75,10.15,1.33
			c-1.39,0.59-4.89,1.33-10.15,1.33c-5.27,0-8.76-0.75-10.15-1.33C109.9,73.08,113.4,72.33,118.67,72.33z M108,78.73v-2.42
			c3.25,1.22,8.56,1.36,10.67,1.36s7.42-0.14,10.67-1.36v2.42c-0.8,0.59-4.53,1.61-10.67,1.61C112.53,80.33,108.8,79.32,108,78.73z"
			/>
	</g>
</g>
</svg>
