<?xml version="1.0" encoding="utf-8"?>
<!-- Generator: Adobe Illustrator 23.0.3, SVG Export Plug-In . SVG Version: 6.00 Build 0)  -->
<svg version="1.1" id="Layer_1" xmlns="http://www.w3.org/2000/svg" xmlns:xlink="http://www.w3.org/1999/xlink" x="0px" y="0px"
	 viewBox="0 0 184 184" style="enable-background:new 0 0 184 184;" xml:space="preserve">
<style type="text/css">
	.st0{fill:#002D74;}
	.st1{fill:#C8A977;}
</style>
<circle class="st0" cx="-3455" cy="92" r="92"/>
<g>
	<g>
		<path class="st1" d="M-3429.83,97.81c6.13-1.29,10.74-6.74,10.74-13.24c0-7.46-6.07-13.54-13.54-13.54
			c-7.46,0-13.54,6.07-13.54,13.54c0,6.51,4.61,11.95,10.74,13.24c-3,0.36-5.84,1.27-8.39,2.65c-1.11-4.17-4.9-7.25-9.41-7.25
			c-3.95,0-7.36,2.37-8.89,5.76c-3-1.58-6.37-2.58-9.93-2.83c7.1-0.88,12.62-6.94,12.62-14.28c0-7.94-6.46-14.4-14.4-14.4
			c-7.94,0-14.4,6.46-14.4,14.4c0,7.34,5.52,13.4,12.62,14.28c-13.06,0.92-23.41,11.83-23.41,25.12v1.09h30
			c-0.95,2.14-1.49,4.51-1.49,7v1.09h34.55v-1.09c0-2.49-0.54-4.86-1.49-7h28.43v-1.09C-3409,109.18-3418.11,99.19-3429.83,97.81z
			 M-3443.97,84.56c0-6.26,5.09-11.35,11.35-11.35c6.26,0,11.35,5.09,11.35,11.35c0,6.26-5.09,11.35-11.35,11.35
			C-3438.88,95.91-3443.97,90.82-3443.97,84.56z M-3453.22,95.4c4.17,0,7.56,3.39,7.56,7.56s-3.39,7.56-7.56,7.56
			c-4.17,0-7.56-3.39-7.56-7.56C-3460.78,98.79-3457.38,95.4-3453.22,95.4z M-3486.03,81.86c0-6.74,5.48-12.21,12.21-12.21
			c6.74,0,12.22,5.48,12.22,12.21s-5.48,12.21-12.22,12.21S-3486.03,88.59-3486.03,81.86z M-3496.79,120.16
			c0.57-12.18,10.66-21.91,22.98-21.91c4,0,7.76,1.03,11.03,2.83c-0.12,0.61-0.18,1.23-0.18,1.87c0,4.43,2.97,8.17,7.02,9.35
			c-5,0.8-9.28,3.74-11.88,7.85L-3496.79,120.16L-3496.79,120.16z M-3468.27,128.26c0.56-7.81,7.1-14,15.05-14
			c7.95,0,14.49,6.18,15.05,14H-3468.27z M-3438.61,120.16c-2.6-4.12-6.88-7.06-11.88-7.85c4.05-1.18,7.02-4.92,7.02-9.35
			c0-0.05-0.01-0.1-0.01-0.15c3.19-1.88,6.89-2.99,10.85-2.99c11.45,0,20.83,9.03,21.41,20.34
			C-3411.22,120.16-3438.61,120.16-3438.61,120.16z"/>
		<path class="st1" d="M-3452.32,75.25l0.11-0.1l0.11,0.11l12.13-12.13c3.56-3.56,3.56-9.34,0-12.9c-3.34-3.34-8.65-3.55-12.23-0.61
			c-3.58-2.94-8.89-2.73-12.23,0.61c-1.72,1.72-2.67,4.01-2.67,6.45c0,2.44,0.95,4.73,2.67,6.45L-3452.32,75.25z M-3462.9,51.77
			c1.35-1.35,3.13-2.03,4.9-2.03c1.78,0,3.55,0.68,4.9,2.03l0.88,0.88l0.88-0.88c2.7-2.7,7.1-2.7,9.81,0
			c1.31,1.31,2.03,3.05,2.03,4.9c0,1.85-0.72,3.59-2.03,4.9l-10.58,10.58l-0.1-0.1l-0.11,0.11l-10.58-10.58
			c-1.31-1.31-2.03-3.05-2.03-4.9C-3464.93,54.82-3464.21,53.08-3462.9,51.77z"/>
	</g>
</g>
<g>
	<circle class="st0" cx="92" cy="92" r="92"/>
	<g>
		<g>
			<path class="st1" d="M117.17,97.81c6.13-1.29,10.74-6.74,10.74-13.24c0-7.46-6.07-13.54-13.54-13.54s-13.54,6.07-13.54,13.54
				c0,6.51,4.62,11.95,10.74,13.24c-3,0.36-5.84,1.27-8.39,2.65c-1.11-4.17-4.9-7.25-9.41-7.25c-3.95,0-7.36,2.37-8.88,5.76
				c-3-1.58-6.37-2.58-9.93-2.83c7.1-0.88,12.62-6.94,12.62-14.28c0-7.94-6.46-14.4-14.4-14.4c-7.94,0-14.4,6.46-14.4,14.4
				c0,7.34,5.52,13.4,12.62,14.28C58.35,97.06,48,107.97,48,121.26v1.09h30c-0.95,2.14-1.5,4.51-1.5,7v1.09h34.55v-1.09
				c0-2.49-0.54-4.86-1.49-7H138v-1.09C138,109.18,128.89,99.19,117.17,97.81z M103.03,84.56c0-6.26,5.09-11.35,11.35-11.35
				c6.26,0,11.35,5.09,11.35,11.35c0,6.26-5.09,11.35-11.35,11.35S103.03,90.82,103.03,84.56z M93.78,95.4
				c4.17,0,7.56,3.39,7.56,7.56s-3.39,7.56-7.56,7.56c-4.17,0-7.56-3.39-7.56-7.56C86.22,98.79,89.62,95.4,93.78,95.4z M60.97,81.86
				c0-6.74,5.48-12.21,12.21-12.21c6.74,0,12.22,5.48,12.22,12.21s-5.48,12.21-12.22,12.21C66.45,94.07,60.97,88.59,60.97,81.86z
				 M50.21,120.16c0.57-12.18,10.66-21.91,22.97-21.91c4,0,7.76,1.03,11.03,2.83c-0.12,0.61-0.18,1.23-0.18,1.87
				c0,4.43,2.97,8.17,7.02,9.35c-5,0.8-9.28,3.74-11.88,7.85L50.21,120.16L50.21,120.16z M78.73,128.26c0.56-7.81,7.1-14,15.05-14
				s14.49,6.18,15.05,14H78.73z M108.39,120.16c-2.6-4.12-6.88-7.06-11.88-7.85c4.05-1.18,7.02-4.92,7.02-9.35
				c0-0.05-0.01-0.1-0.01-0.15c3.19-1.88,6.89-2.99,10.85-2.99c11.45,0,20.83,9.03,21.4,20.34
				C135.78,120.16,108.39,120.16,108.39,120.16z"/>
			<path class="st1" d="M94.68,75.25l0.11-0.1l0.11,0.11l12.13-12.13c3.56-3.56,3.56-9.34,0-12.9c-3.34-3.34-8.65-3.55-12.23-0.61
				c-3.58-2.94-8.89-2.73-12.23,0.61c-1.72,1.72-2.67,4.01-2.67,6.45c0,2.44,0.95,4.73,2.67,6.45L94.68,75.25z M84.1,51.77
				c1.35-1.35,3.13-2.03,4.9-2.03c1.78,0,3.55,0.68,4.9,2.03l0.88,0.88l0.88-0.88c2.7-2.7,7.1-2.7,9.81,0
				c1.31,1.31,2.03,3.05,2.03,4.9c0,1.85-0.72,3.59-2.03,4.9L94.89,72.16l-0.1-0.1l-0.11,0.11L84.1,61.58
				c-1.31-1.31-2.03-3.05-2.03-4.9C82.07,54.82,82.79,53.08,84.1,51.77z"/>
		</g>
	</g>
</g>
</svg>
