<?xml version="1.0" encoding="utf-8"?>
<!-- Generator: Adobe Illustrator 23.0.3, SVG Export Plug-In . SVG Version: 6.00 Build 0)  -->
<svg version="1.1" id="Layer_1" xmlns="http://www.w3.org/2000/svg" xmlns:xlink="http://www.w3.org/1999/xlink" x="0px" y="0px"
	 viewBox="0 0 184 184" style="enable-background:new 0 0 184 184;" xml:space="preserve">
<style type="text/css">
	.st0{fill:#002D74;}
	.st1{fill:#C8A977;}
</style>
<g>
	<g>
		<circle class="st0" cx="92" cy="92" r="92"/>
	</g>
	<g>
		<g>
			<g>
				<path class="st1" d="M146.98,111.71h-1.4c-1.81,0-3.23-1.42-3.23-3.23v-1h0.14V71.77l7.72-2.83v39.53
					C150.21,110.29,148.79,111.71,146.98,111.71z M144.49,109.07c0.2,0.39,0.61,0.64,1.09,0.64h1.4c0.7,0,1.23-0.53,1.23-1.23V71.81
					l-3.72,1.36V109.07z"/>
			</g>
			<g>
				<path class="st1" d="M153.83,136h-15.25v-1c0-10.63,2.7-21.94,7.7-21.94c0.97,0,1.89,0.44,2.74,1.3
					c3,3.03,4.94,11.33,4.82,20.65L153.83,136z M140.59,134h11.26c-0.03-9.59-2.19-16.15-4.25-18.23c-0.46-0.47-0.9-0.7-1.31-0.7
					C143.97,115.06,140.76,122.24,140.59,134z"/>
			</g>
			<g>
				<path class="st1" d="M88.36,111.71c-24.66,0-39.38-6.58-39.38-17.61V76.94L88.36,90.4l39.38-13.6v17.31
					C127.74,105.13,113.02,111.71,88.36,111.71z M50.98,79.73v14.37c0,9.77,13.97,15.61,37.38,15.61c18.07,0,37.38-4.1,37.38-15.61
					V79.6L88.36,92.51L50.98,79.73z"/>
			</g>
			<g>
				<path class="st1" d="M88.36,88.47L20.91,63.89l66.61-20.94l0.29,0.09l68.33,20.54L88.36,88.47z M27.13,64.03l61.23,22.31
					l61.46-22.57L87.53,45.05L27.13,64.03z"/>
			</g>
		</g>
		<g>
			<path class="st0" d="M130,123v-10c0-2.78-7.65-3-10-3c-0.27,0-0.61,0-1,0.01V96c0-2.78-7.65-3-10-3c-2.35,0-10,0.22-10,3v4.02
				C96.57,99.1,92.58,99,91,99c-2.35,0-10,0.22-10,3v21"/>
		</g>
		<g>
			<g>
				<path class="st1" d="M129,125H87c-0.19,0-0.37,0.05-0.53,0.15l-16,10c-0.38,0.24-0.55,0.69-0.43,1.12
					c0.12,0.43,0.52,0.72,0.96,0.72h42c0.19,0,0.37-0.05,0.53-0.15l16-10c0.38-0.24,0.55-0.69,0.43-1.12
					C129.84,125.3,129.45,125,129,125z M112.71,135H74.49l12.8-8h38.23L112.71,135z"/>
			</g>
			<g>
				<path class="st1" d="M112.71,151H71v2h42c0.19,0,0.37-0.05,0.53-0.15l16-10l-1.06-1.7L112.71,151z"/>
			</g>
			<g>
				<path class="st1" d="M112.71,139H71v2h42c0.19,0,0.37-0.05,0.53-0.15l16-10l-1.06-1.7L112.71,139z"/>
			</g>
			<g>
				<path class="st1" d="M112.71,143H71v2h42c0.19,0,0.37-0.05,0.53-0.15l16-10l-1.06-1.7L112.71,143z"/>
			</g>
			<g>
				<path class="st1" d="M112.71,147H71v2h42c0.19,0,0.37-0.05,0.53-0.15l16-10l-1.06-1.7L112.71,147z"/>
			</g>
			<g>
				<path class="st1" d="M95.66,133h1.56c0.72,0,1.43-0.24,2.01-0.67l2.75-2.06c0.23-0.17,0.52-0.27,0.81-0.27h1.56
					c0.83,0,1.16,0.63,1.24,0.83c0.08,0.19,0.3,0.87-0.29,1.46l1.41,1.41c0.49-0.49,0.8-1.08,0.92-1.71H111v-2h-3.6
					c-0.54-1.23-1.7-2-3.06-2h-1.56c-0.72,0-1.43,0.24-2.01,0.67l-2.75,2.06c-0.23,0.17-0.52,0.27-0.81,0.27h-1.56
					c-0.83,0-1.16-0.63-1.24-0.83c-0.08-0.19-0.3-0.87,0.29-1.46l-1.41-1.41c-0.49,0.49-0.8,1.08-0.92,1.71H89v2h3.6
					C93.14,132.23,94.3,133,95.66,133z"/>
			</g>
			<g>
				<path class="st1" d="M120,110c-0.27,0-0.61,0-1,0.01V96c0-2.78-7.65-3-10-3c-2.35,0-10,0.22-10,3v4.02
					C96.57,99.1,92.58,99,91,99c-2.35,0-10,0.22-10,3v21h2v-3.02c2.43,0.91,6.42,1.02,8,1.02c1.58,0,5.56-0.1,8-1.02V123h2v-5.02
					c2.43,0.91,6.42,1.02,8,1.02v-2c-4.6,0-7.4-0.76-8-1.2v-1.81c2.43,0.91,6.42,1.02,8,1.02v-2c-4.6,0-7.4-0.76-8-1.2v-1.81
					c2.43,0.91,6.42,1.02,8,1.02v-2c-4.6,0-7.4-0.76-8-1.2v-1.81c2.43,0.91,6.42,1.02,8,1.02s5.56-0.1,8-1.02v4.13
					c-3.09,0.22-7,0.9-7,2.89v10h2v-4.02c2.43,0.91,6.42,1.02,8,1.02s5.56-0.1,8-1.02V123h2v-10C130,110.22,122.35,110,120,110z
					 M101,97.98c2.43,0.91,6.42,1.02,8,1.02s5.56-0.1,8-1.02v1.81c-0.6,0.44-3.4,1.2-8,1.2s-7.4-0.76-8-1.2V97.98z M109,95
					c3.95,0,6.57,0.56,7.62,1c-1.04,0.44-3.67,1-7.62,1s-6.57-0.56-7.62-1C102.43,95.56,105.05,95,109,95z M99,105.8
					c-0.6,0.44-3.4,1.2-8,1.2s-7.4-0.76-8-1.2v-1.81c2.43,0.91,6.42,1.02,8,1.02c1.58,0,5.56-0.1,8-1.02V105.8z M99,109.8
					c-0.6,0.44-3.4,1.2-8,1.2s-7.4-0.76-8-1.2v-1.81c2.43,0.91,6.42,1.02,8,1.02c1.58,0,5.56-0.1,8-1.02V109.8z M99,113.8
					c-0.6,0.44-3.4,1.2-8,1.2s-7.4-0.76-8-1.2v-1.81c2.43,0.91,6.42,1.02,8,1.02c1.58,0,5.56-0.1,8-1.02V113.8z M91,101
					c3.95,0,6.57,0.56,7.62,1c-1.04,0.44-3.67,1-7.62,1c-3.95,0-6.57-0.56-7.62-1C84.43,101.56,87.05,101,91,101z M83,117.8v-1.81
					c2.43,0.91,6.42,1.02,8,1.02c1.58,0,5.56-0.1,8-1.02v1.81c-0.6,0.44-3.4,1.2-8,1.2S83.6,118.24,83,117.8z M101,103.8v-1.81
					c2.43,0.91,6.42,1.02,8,1.02s5.56-0.1,8-1.02v1.81c-0.6,0.44-3.4,1.2-8,1.2S101.6,104.24,101,103.8z M120,112
					c3.95,0,6.57,0.56,7.62,1c-1.04,0.44-3.67,1-7.62,1s-6.57-0.56-7.62-1C113.43,112.56,116.05,112,120,112z M112,116.8v-1.81
					c2.43,0.91,6.42,1.02,8,1.02s5.56-0.1,8-1.02v1.81c-0.6,0.44-3.4,1.2-8,1.2S112.6,117.24,112,116.8z"/>
			</g>
		</g>
	</g>
</g>
</svg>
